<svg viewBox="0 0 40 40" fill="rgb(147, 94, 199)"
	xmlns="http://www.w3.org/2000/svg">
	<path fill-rule="evenodd" clip-rule="evenodd"
		d="M20.3102 26.4404H20.2487L18.6526 21.8256H21.8657L20.3102 26.4404ZM0.497437 18.457V21.8256H8.83472V31.2742H12.4771V21.8256H15.2648L18.5972 31.2742H21.7489L25.0814 21.8256H27.8691V31.2742H31.5102V21.8256H39.8475V18.457H0.497437ZM36.5421 0.512207H31.5102V3.88082H36.5421V9.00972H39.8475V0.512207H36.5421ZM36.5421 36.4031H31.5102V39.7705H39.8475V31.2742H36.5421V36.4031ZM31.5102 15.0897V9.00972H26.1856L24.1357 15.0909H31.5102V15.0897ZM3.80161 31.2742H0.497437V39.7705H8.83472V36.4031H3.80161V31.2742ZM3.80161 3.87955H8.83472V0.512207H0.497437V9.00972H3.80161V3.88082V3.87955ZM8.83472 15.0897H16.3235L14.2208 9.00972H8.83472V15.0909V15.0897Z" />

</svg>