<svg xmlns="http://www.w3.org/2000/svg" version="1.1" viewBox="0 0 511.565 511.565">
    <path d="M377.186 145.149a139.802 139.802 0 0 0-114.623 59.768c-3.294 4.703-10.261 4.698-13.549-.01a139.793 139.793 0 0 0-114.615-59.758H21.617C9.679 145.149 0 154.828 0 166.768v48.318c3.284 148.818 159.349 177.595 252.088 128.96a8.164 8.164 0 0 1 7.426-.095c113.494 56.522 250.172 3.43 252.051-126.053v-51.13c0-11.94-9.679-21.619-21.619-21.619zM181.668 288.025h-38.289c-35.368 0-64.04-28.672-64.04-64.04 0-5.574 4.519-10.093 10.093-10.093h38.289c35.368 0 64.04 28.672 64.04 64.04 0 5.574-4.518 10.093-10.093 10.093zm251.529-64.04c0 35.368-28.672 64.04-64.04 64.04h-38.289c-5.574 0-10.093-4.519-10.093-10.093 0-35.368 28.672-64.04 64.04-64.04h38.289c5.574 0 10.093 4.519 10.093 10.093z"></path>
</svg>
