<?xml version="1.0" standalone="no"?>
<!DOCTYPE svg PUBLIC "-//W3C//DTD SVG 20010904//EN"
 "http://www.w3.org/TR/2001/REC-SVG-20010904/DTD/svg10.dtd">
<svg version="1.0" xmlns="http://www.w3.org/2000/svg"
 width="700.000000pt" height="700.000000pt" viewBox="0 0 700.000000 700.000000"
 preserveAspectRatio="xMidYMid meet">
<metadata>
Created by potrace 1.14, written by Peter Selinger 2001-2017
</metadata>
<g transform="translate(0.000000,700.000000) scale(0.100000,-0.100000)"
fill="#000000" stroke="none">
<path d="M89 6893 c0 -10 -1 -344 -1 -743 l-1 -725 289 0 289 0 0 447 0 448
40 0 c22 1 220 2 440 3 l400 2 1 293 0 292 -728 0 c-686 0 -728 -1 -729 -17z"/>
<path d="M5519 6903 c-1 -5 -2 -137 -3 -295 l-2 -288 441 0 440 0 0 -445 c-1
-245 2 -446 5 -447 3 0 132 -2 287 -3 l281 -2 4 26 c1 14 3 348 2 741 l0 715
-727 3 c-400 1 -728 -1 -728 -5z"/>
<path d="M1551 5415 c-4 -5 -6 -244 -6 -530 l1 -520 652 -3 c368 -1 652 2 652
7 0 4 -39 120 -86 257 -47 137 -127 368 -176 514 -50 146 -95 269 -99 274 -12
14 -928 14 -938 1z"/>
<path d="M4597 5422 c-9 -2 -17 -4 -17 -5 0 -7 -351 -1040 -355 -1048 -4 -6
228 -8 641 -7 l648 3 1 528 c0 290 -2 527 -5 528 -16 2 -899 3 -913 1z"/>
<path d="M89 3758 c-1 -17 -1 -538 0 -560 1 -17 43 -18 729 -18 l728 0 -1
-825 c0 -543 3 -825 10 -826 6 0 147 -1 314 -1 200 0 305 3 310 10 3 5 6 377
6 826 l-1 816 245 -2 245 -3 32 -90 c17 -49 34 -97 37 -105 3 -8 13 -35 21
-60 8 -25 40 -117 71 -205 31 -88 83 -234 115 -325 32 -91 84 -237 115 -325
31 -88 86 -243 121 -344 35 -102 66 -187 69 -189 3 -3 471 -6 536 -3 11 1 25
26 43 78 15 43 40 114 56 158 16 44 74 211 130 370 56 160 110 313 120 340 10
28 70 196 133 375 l114 325 245 3 245 2 -1 -825 c-1 -818 -1 -825 19 -826 117
-4 607 0 613 5 3 4 6 375 7 824 l0 817 728 3 c400 1 727 5 728 10 3 27 4 560
1 570 -6 18 -6882 18 -6883 0z m3731 -589 c0 -6 -20 -67 -44 -137 -24 -70 -49
-143 -54 -162 -22 -76 -164 -485 -171 -493 -4 -4 -17 21 -28 55 -12 35 -58
169 -103 298 -45 129 -97 280 -116 334 -19 55 -34 103 -34 108 0 4 124 8 275
8 188 0 275 -3 275 -11z"/>
<path d="M89 1506 c-1 -31 -1 -1439 0 -1454 1 -10 150 -12 729 -10 l727 3 1
293 0 292 -440 0 -441 0 0 448 0 447 -288 1 c-286 2 -287 1 -288 -20z"/>
<path d="M6395 1079 l0 -449 -440 0 -441 0 0 -295 0 -295 728 0 c400 0 728 3
729 8 3 23 4 1450 1 1464 -4 15 -31 16 -291 16 l-287 -1 1 -448z"/>
</g>
</svg>
