<svg
        xmlns="http://www.w3.org/2000/svg"
        viewBox="0 0 128 128"
>
    <path
            d="M101.403 10.765a10.076 10.076 0 0 1-2.393-6.488V2a2 2 0 0 0-4 0v2.277a13.98 13.98 0 0 0 1.23 5.702C87.964 7.48 76.327 6 63.998 6c-12.7 0-24.446 1.518-32.709 4.105a14.012 14.012 0 0 0 1.698-6.65V2a2 2 0 0 0-4.001 0v1.454a10.056 10.056 0 0 1-2.338 6.424 94.103 94.103 0 0 0-2.838 3.59l-.022.03c-9.866 13.1-29.552 45.716-20.443 87.963l5.93 25a2 2 0 0 0 3.894-.923l-5.921-24.96c-5.673-26.31.293-48.75 7.782-64.733a1.976 1.976 0 0 0 .23-.155c9.063-7.531 21.133-10.498 30.747-7.564 10.83 3.307 15.844 13.85 15.995 24.164v.005a32.21 32.21 0 0 1-.661 7.007c-1.709 8.203-7.119 18.289-16.743 19.72A2 2 0 0 0 44.889 83a1.97 1.97 0 0 0 .297-.022 19.493 19.493 0 0 0 8.974-3.821 109.649 109.649 0 0 0 1.874 14.235c1.894 9.465-2.941 31.949-2.99 32.164a2 2 0 0 0 1.508 2.394 2.027 2.027 0 0 0 .445.05 2.001 2.001 0 0 0 1.949-1.557c.208-.915 5.073-23.535 3.012-33.835a103.024 103.024 0 0 1-1.157-7.094 6.406 6.406 0 0 0 2.35.486c.112 0 .223-.004.337-.01a5.23 5.23 0 0 0 2.51-.828 5.23 5.23 0 0 0 2.51.828c.114.006.226.01.337.01a6.25 6.25 0 0 0 1.99-.347 103.187 103.187 0 0 1-1.14 6.955c-2.06 10.3 2.805 32.92 3.013 33.835A2.001 2.001 0 0 0 72.657 128a2.027 2.027 0 0 0 .445-.05 2 2 0 0 0 1.507-2.394c-.048-.215-4.883-22.7-2.99-32.164a109.484 109.484 0 0 0 1.89-14.484 19.563 19.563 0 0 0 9.301 4.07 1.97 1.97 0 0 0 .297.022 2 2 0 0 0 .292-3.978c-9.625-1.431-15.035-11.517-16.744-19.72a32.21 32.21 0 0 1-.66-7.007v-.005c.15-10.314 5.164-20.857 15.994-24.164 9.589-2.926 21.608.018 30.662 7.496 7.629 15.752 13.852 38.089 8.108 64.306l-5.93 24.603a2 2 0 0 0 3.89.937l5.94-24.644c10.096-46.085-15.248-80.583-23.256-90.059z"
    ></path>
    <path
            d="M46.168 34.448a2 2 0 0 0-1.33-2.497c-9.511-2.9-20.423 1.332-27.021 6.815a2 2 0 0 0 2.558 3.076c5.772-4.795 15.21-8.535 23.295-6.064a2.005 2.005 0 0 0 2.498-1.33zM83.158 31.952a2 2 0 1 0 1.169 3.825c8.084-2.467 17.521 1.27 23.295 6.065a2 2 0 1 0 2.557-3.076c-6.599-5.483-17.512-9.716-27.02-6.814z"
    ></path>
</svg>
