<svg xmlns="http://www.w3.org/2000/svg" viewBox="0 0 64 64">
    <path d="M6 28a45.017 45.017 0 0 0 5.135 20.811l-1.151.921A2.607 2.607 0 0 0 9 51.779a3.221 3.221 0 0 0 5.233 2.515l.29-.232A24.9 24.9 0 0 0 33.553 63h1.916a22.1 22.1 0 0 0 19.216-11.174l2.631-.878A1 1 0 0 0 58 50v-7a1 1 0 0 0-1.64-.769L50.522 47.1l-.608.174A44.933 44.933 0 0 1 37.568 49a13.671 13.671 0 0 1-10.5-4.966l.8-.644A3.026 3.026 0 0 0 25.974 38a3.783 3.783 0 0 0-1.724.426A31.263 31.263 0 0 1 23 29.755V19.07a17.951 17.951 0 0 0-5-12.478V4.5a3.5 3.5 0 1 0-7 0v2.093a17.942 17.942 0 0 0-5 12.478Zm50 21.279-1.73.577-1.789-1.789L56 45.135ZM37.563 51a46.9 46.9 0 0 0 12.9-1.806l.246-.07 2.036 2.036A20.089 20.089 0 0 1 35.469 61h-1.916a22.887 22.887 0 0 1-17.469-8.187l9.4-7.517A15.694 15.694 0 0 0 37.563 51ZM25.974 40a1.027 1.027 0 0 1 .641 1.828l-13.631 10.9A1.221 1.221 0 0 1 11 51.779a.619.619 0 0 1 .233-.485l13.632-10.9A1.779 1.779 0 0 1 25.974 40ZM8 19.071a15.968 15.968 0 0 1 4.707-11.364A1 1 0 0 0 13 7V4.5a1.5 1.5 0 0 1 3 0V7a1 1 0 0 0 .293.707A15.967 15.967 0 0 1 21 19.07v10.685a33.344 33.344 0 0 0 1.539 9.934l-9.809 7.847A43.015 43.015 0 0 1 8 28Z"
    ></path>
    <path
            d="M17 21h2v-2.395a12.868 12.868 0 0 0-2.168-7.16l-1.664 1.11A10.87 10.87 0 0 1 17 18.605ZM17 23h2v3h-2z"
    ></path>
</svg>
