<svg xmlns="http://www.w3.org/2000/svg" viewBox="0 0 511.694 511.694"
>
    <g>
        <path d="M489.72 266.433c0-23.915-15.967-44.16-37.797-50.664.006-7.268-.037-14.434-.062-23.588 39.149-14.117 39.122-69.769-.004-83.867V86.475C498.206 69.139 486.968.938 436.856 0c-50.119.942-61.342 69.148-14.999 86.475v21.838c-39.155 14.115-39.128 69.774.004 83.87.013 6.421.066 15.025.062 23.548-47.365 14.087-51.075 80.034-5.688 99.376-1.71 7.631-3.601 14.969-5.661 21.963-43.036-1.699-69.776 48.477-44.791 83.137-3.154 3.524-7.513 7.57-13.051 10.859-20.938-50.325-93.733-46.993-110.018 5.014a200.132 200.132 0 0 1-16.033-3.164c6.116-46.886-45.567-81.463-86.45-58.218-4.263-6.326-8.142-13.13-11.617-20.376 59.316-29.801 44.281-118.616-21.949-126.956.683-20.613 2.817-37.989 4.505-49.017C228.997 173.345 228.584 4.428 110.731 0 9.874 1.942-12.043 139.473 81.552 173.446c-1.967 12.708-4.439 33.001-4.994 57.219-70.447 25.82-53.663 129.315 22.264 130.676 5.519 12.505 12.058 24.036 19.547 34.464-35.948 64.857 50.943 122.776 97.023 65.218 8.35 2.196 17.081 3.933 26.117 5.215 14.986 62.608 104.065 59.772 114.98-3.754 15.079-5.811 25.93-15.625 32.786-23.579 59.194 22.133 100.552-55.74 49.817-92.476 2.641-8.879 5.03-18.23 7.134-27.981 24.693-4.437 43.494-26.064 43.494-52.015zM51.556 89.177C51.556 56.547 78.102 30 110.733 30c78.398 2.975 78.377 115.391-.001 118.354-32.63 0-59.176-26.547-59.176-59.177z"
        ></path>
    </g>
</svg>
