<svg xmlns="http://www.w3.org/2000/svg" viewBox="0 0 64 64"
>
    <path d="m25.447 14.1 2.2-.88a3.04 3.04 0 0 1 1.132-.22 1.221 1.221 0 0 1 .953 1.984l-3.112 3.89-.309-.077a4.73 4.73 0 0 1-3.2-2.7 4.857 4.857 0 0 1 2.336-1.997Zm-5.585 40.149a9.914 9.914 0 0 1-2.384 3.859A9.81 9.81 0 0 1 10.5 61H7.657a4.611 4.611 0 0 1-2.5-.742l14.136-14.137a.43.43 0 0 1 .707.293 4.568 4.568 0 0 0 1.957 3.753 15.347 15.347 0 0 0-2.095 4.082Zm4.255-6.51c-.307.278-.6.572-.881.873A2.574 2.574 0 0 1 22 46.414a2.414 2.414 0 0 0-4.121-1.707L3.742 58.844a4.627 4.627 0 0 1 .622-5.794L17.012 40.4A6.742 6.742 0 0 0 19 35.6a20.459 20.459 0 0 0-.277-3.348l-.474-2.844A18.378 18.378 0 0 1 18 26.4a12.246 12.246 0 0 1 3.668-8.764 6.709 6.709 0 0 0 4 3.05L23.6 26.212a9.427 9.427 0 0 0-.6 3.323 2.466 2.466 0 0 0 4.054 1.886L34.8 24.9a13.15 13.15 0 0 1 1.2 5.426V35a2.977 2.977 0 0 0 .465 1.588ZM40 35a1 1 0 0 1-2 0v-4.674a15.177 15.177 0 0 0-1.593-6.748A3.881 3.881 0 0 1 36 21.854a.854.854 0 0 1 1.618-.382A22.67 22.67 0 0 1 40 31.562Zm2-3.425v-.013a24.69 24.69 0 0 0-2.507-10.8q.91-.851 1.8-1.732A14.576 14.576 0 0 1 44 27.446V29a3 3 0 0 0 .068.625q-1.023.99-2.068 1.95ZM48 29a1 1 0 0 1-2 0v-1.554a16.585 16.585 0 0 0-3.621-10.323 1.739 1.739 0 0 1-.379-1.08 1.043 1.043 0 0 1 1.844-.668A17.963 17.963 0 0 1 48 26.854Zm-2.343-14.542a99.03 99.03 0 0 0 4.948-5.991A14.582 14.582 0 0 1 53 16.446V18a2.952 2.952 0 0 0 .37 1.412 110.944 110.944 0 0 1-3.634 4.281 19.965 19.965 0 0 0-4.079-9.235ZM57 18a1 1 0 0 1-2 0v-1.554a16.585 16.585 0 0 0-3.621-10.323A1.739 1.739 0 0 1 51 5.043a1.043 1.043 0 0 1 1.844-.668A17.963 17.963 0 0 1 57 15.854Zm3.213-8.068q-.756 1.173-1.545 2.334a19.956 19.956 0 0 0-3.953-8.731A4.227 4.227 0 0 1 61 7.25a4.95 4.95 0 0 1-.787 2.682Z"></path>
</svg>
