<svg xmlns="http://www.w3.org/2000/svg" viewBox="0 0 64 64">
    <path d="M40 51H24a1 1 0 0 1-1-1v-7a1 1 0 0 1 1-1 2 2 0 0 0 0-4 1 1 0 0 1-1-1V27a1 1 0 0 1 1-1 2 2 0 0 0 0-4 1 1 0 0 1-1-1v-6A12 12 0 0 1 35 3h6a3 3 0 0 1 2.78 4.11A39.86 39.86 0 0 0 41 21a1 1 0 0 1-1 1 2 2 0 1 0 0 4 1 1 0 0 1 1 1v10a1 1 0 0 1-1 1 2 2 0 0 0 0 4 1 1 0 0 1 1 1v7a1 1 0 0 1-1 1zm-15-2h14v-5.13a4 4 0 0 1 0-7.74v-8.26a4 4 0 0 1 0-7.75 41.72 41.72 0 0 1 3-13.75A1 1 0 0 0 41.05 5H35a10 10 0 0 0-10 10v5.13a4 4 0 0 1 0 7.74v8.26a4 4 0 0 1 0 7.74z"></path>
    <path d="M40 61H24a6 6 0 0 1 0-12h16a6 6 0 0 1 0 12zM24 51a4 4 0 0 0 0 8h16a4 4 0 0 0 0-8zM24 28a4 4 0 1 1 4-4 4 4 0 0 1-4 4zm0-6a2 2 0 1 0 2 2 2 2 0 0 0-2-2zM40 28a4 4 0 1 1 4-4 4 4 0 0 1-4 4zm0-6a2 2 0 1 0 2 2 2 2 0 0 0-2-2zM40 44a4 4 0 1 1 4-4 4 4 0 0 1-4 4zm0-6a2 2 0 1 0 2 2 2 2 0 0 0-2-2zM24 44a4 4 0 1 1 4-4 4 4 0 0 1-4 4zm0-6a2 2 0 1 0 2 2 2 2 0 0 0-2-2zM32 36a4 4 0 1 1 4-4 4 4 0 0 1-4 4zm0-6a2 2 0 1 0 2 2 2 2 0 0 0-2-2zM32 18a4 4 0 1 1 4-4 4 4 0 0 1-4 4zm0-6a2 2 0 1 0 2 2 2 2 0 0 0-2-2z"></path>
</svg>
