<svg xmlns="http://www.w3.org/2000/svg" version="1.1" xmlns:xlink="http://www.w3.org/1999/xlink" width="512"
     height="512" x="0" y="0" viewBox="0 0 128 128"
>
    <g>
        <path d="M127 57.3c0-22.5-15.2-42.2-36.9-48L59.3 1.2l-2.6 9.7L87.5 19c17.4 4.6 29.5 20.4 29.5 38.3 0 18.1-12.2 33.4-28.9 38.2C85.3 84.9 75.5 77 64 77c-11 0-20.4 7.1-23.7 17l-6.6-1.4C20.5 89.9 11 78.2 11 64.8c0-14.7 11.5-27.1 26.1-28.4l27.3-2.3-.8-10-27.3 2.3C16.5 28.1 1 44.9 1 64.8c0 18.1 12.9 34 30.6 37.7l7.5 1.6c1 12.9 11.8 23 24.9 23 12.5 0 22.9-9.3 24.7-21.3 21.9-5.3 38.3-25 38.3-48.5z"
        ></path>
    </g>
</svg>
