<svg xmlns="http://www.w3.org/2000/svg" version="1.1" xmlns:xlink="http://www.w3.org/1999/xlink" width="512"
     height="512" x="0" y="0" viewBox="0 0 64 64"
>
    <g>
        <path d="M15 22.59a7 7 0 1 1 7-7 7 7 0 0 1-7 7zm0-12a5 5 0 1 0 5 5 5 5 0 0 0-5-5z" fill="#000000" opacity="1"
        ></path>
        <path
                d="M15 27.59a12 12 0 1 1 10.79-17.24c.13.25.26.54.38.84a12 12 0 0 1 0 8.76 8.56 8.56 0 0 1-.41.91A12 12 0 0 1 15 27.59zm0-22A10 10 0 1 0 24 20c.14-.26.23-.49.33-.72a10.08 10.08 0 0 0 0-7.28 7.22 7.22 0 0 0-.31-.69A9.91 9.91 0 0 0 15 5.59z"
        ></path>
        <path
                d="M30 21.39h-5.11a1 1 0 0 1-.89-.49 1 1 0 0 1 0-1c.12-.22.21-.45.31-.68a10.08 10.08 0 0 0 0-7.28 7.22 7.22 0 0 0-.31-.69 1 1 0 0 1 .88-1.47H30a1 1 0 0 1 1 1v9.6a1 1 0 0 1-1 1.01zm-3.62-2H29v-7.6h-2.62a11.77 11.77 0 0 1 .62 3.8 12.05 12.05 0 0 1-.62 3.8zM48.41 56a7 7 0 1 1 7-7 7 7 0 0 1-7 7zm0-12a5 5 0 1 0 5 5 5 5 0 0 0-5-5z"
        ></path>
        <path
                d="M48.41 61a12 12 0 0 1-5.23-22.79 7.47 7.47 0 0 1 .85-.38 12 12 0 0 1 8.75 0 9.34 9.34 0 0 1 .91.41A12 12 0 0 1 48.41 61zm0-22a10.07 10.07 0 0 0-3.63.68 6.07 6.07 0 0 0-.69.31 10 10 0 1 0 8.69 0 7.43 7.43 0 0 0-.74-.33 10 10 0 0 0-3.63-.66z"
        ></path>
        <path
                d="M53.21 40.11a1 1 0 0 1-.47-.12 7.13 7.13 0 0 0-.7-.31 10.1 10.1 0 0 0-7.26 0 6.07 6.07 0 0 0-.69.31 1 1 0 0 1-1 0 1 1 0 0 1-.49-.86V34a1 1 0 0 1 1-1h9.6a1 1 0 0 1 1 1v5.11a1 1 0 0 1-.48.86 1.07 1.07 0 0 1-.51.14zM44.61 35v2.62a12 12 0 0 1 7.6 0V35zM38 19.59a4 4 0 1 1 4-4 4 4 0 0 1-4 4zm0-6a2 2 0 1 0 2 2 2 2 0 0 0-2-2zM48 19.59a4 4 0 1 1 4-4 4 4 0 0 1-4 4zm0-6a2 2 0 1 0 2 2 2 2 0 0 0-2-2zM48 30.59a4 4 0 1 1 4-4 4 4 0 0 1-4 4zm0-6a2 2 0 1 0 2 2 2 2 0 0 0-2-2z"
        ></path>
        <path
                d="M45 16.59h-4a1 1 0 0 1 0-2h4a1 1 0 0 1 0 2zM35 16.59h-5a1 1 0 0 1 0-2h5a1 1 0 0 1 0 2zM48 34.59a1 1 0 0 1-1-1v-4a1 1 0 0 1 2 0v4a1 1 0 0 1-1 1zM48 24.59a1 1 0 0 1-1-1v-5a1 1 0 0 1 2 0v5a1 1 0 0 1-1 1z"
        ></path>
    </g>
</svg>
