<svg xmlns="http://www.w3.org/2000/svg" version="1.1" xmlns:xlink="http://www.w3.org/1999/xlink" width="512"
     height="512" x="0" y="0" viewBox="0 0 512 512"
>
    <g>
        <path d="M436 105C436 47.103 388.897 0 331 0c-28.544 0-55.426 11.542-75 31.59C236.426 11.542 209.544 0 181 0 123.103 0 76 47.103 76 105c0 52.805 39.183 96.623 90 103.924V347c0 4.71.73 9.25 2.08 13.52A74.59 74.59 0 0 1 211 347h90c15.95 0 30.75 5 42.92 13.52 1.35-4.27 2.08-8.81 2.08-13.52V208.924c50.817-7.301 90-51.119 90-103.924zM301 377h-90c-24.81 0-45 20.19-45 45 0 48.711 38.751 83.914 75 90v-58.74c0-8.28 6.72-15 15-15s15 6.72 15 15V512c42.51-7.15 75-45.48 75-90 0-12.4-5.05-23.66-13.2-31.8-8.14-8.15-19.4-13.2-31.8-13.2z"
        ></path>
    </g>
</svg>
