<svg xmlns="http://www.w3.org/2000/svg" version="1.1" xmlns:xlink="http://www.w3.org/1999/xlink" viewBox="0 0 512 512"

>
    <g>
        <path d="M335.39 390.247c-.138 78.7-36.222 117.285-71.978 121.753v-43.7a7.412 7.412 0 1 0-14.824 0v43.6c-35.374-4.85-71-43.052-72-120.779 0-.276-.01-.551-.01-.826 0-6.925 1.175-11.88 3.335-14.241.159-.148.307-.3.455-.455a5.838 5.838 0 0 1 .508-.392c6.364-4.214 23.633 3.314 37.5 9.36s26.968 11.753 37.631 11.17c10.694.466 23.728-5.389 37.513-11.583 13.818-6.2 31-13.924 37.408-9.773 2.895 1.879 4.472 7.512 4.462 15.866zM328.338 0a83.978 83.978 0 0 0-51.447 17.354 34.549 34.549 0 0 1-41.771 0A84.985 84.985 0 0 0 98.671 84.959a84.919 84.919 0 0 0 78.9 84.758c3.4-27.836 7.761-54.518 13-79.379a7.418 7.418 0 0 1 14.516 3.06c-5.58 26.428-10.164 54.942-13.605 84.769-.022.158-.053.307-.085.465-6.1 52.687-9.074 111.938-9.074 180.793 12.145-1.451 27.254 5.135 41.982 11.562 11.806 5.146 24 10.451 31.108 9.932a6.643 6.643 0 0 1 1.027 0c7.136.455 19.26-5.008 31-10.281 14.8-6.65 30-13.479 42.225-11.975-.042-68.622-3.038-127.746-9.148-180.433a.544.544 0 0 1-.01-.127c-3.526-30.134-8.1-58.626-13.606-84.705a7.418 7.418 0 1 1 14.516-3.06c5.188 24.575 9.551 51.268 13 79.379A84.967 84.967 0 0 0 328.338 0z"
        ></path>
    </g>
</svg>
