<svg xmlns="http://www.w3.org/2000/svg" version="1.1" xmlns:xlink="http://www.w3.org/1999/xlink" width="512"
     height="512" x="0" y="0" viewBox="0 0 96 96"
>
    <g>
        <path d="M78.14 17C77.52 4 62.65-3.62 51.75 4.05a6.46 6.46 0 0 1-7.5 0 16.78 16.78 0 1 0-11.49 30.41 55.14 55.14 0 0 1 .66-6 1 1 0 0 1 2 .19c-.31 1.85-.64 5.26-.64 6A16.74 16.74 0 0 0 48 27.89a16.74 16.74 0 0 0 13.24 6.68 59.44 59.44 0 0 0-1.54-10.42c-1.3-5.2-1.21-4.79-1.21-4.89a1 1 0 0 1 2-.19 92.49 92.49 0 0 1 2.36 11c.25 1.81.41 4 .41 4.39A16.77 16.77 0 0 0 78.14 17zm-42.77 7a1 1 0 0 1-.73-1.21l.89-3.6a1 1 0 0 1 1.94.48l-.89 3.6a1 1 0 0 1-1.21.67z"
        ></path>
        <path
                d="M61.23 34.39c-.36-7.82-2.74-14.18-2.74-15.13-24.89 9.93-23 9.13-23.09 9.32s-.07 0-.4 3.06c-.19 1.53-.07-.16-2.27 39.53A4.36 4.36 0 0 0 34.55 75a5.85 5.85 0 0 1 3.52-1.18h19.86A5.85 5.85 0 0 1 61.45 75a4.36 4.36 0 0 0 1.82-3.8c-.01-.15-2.01-36.68-2.04-36.81zM57 70.51a1 1 0 0 1-1.35.41 7.19 7.19 0 0 0-6.1-.13 4.36 4.36 0 0 1-3.64 0 7.21 7.21 0 0 0-5.55-.12 1 1 0 0 1-1.36-.55 1 1 0 0 1 .55-1.3 9.26 9.26 0 0 1 7.16.16 2.27 2.27 0 0 0 1.94 0 9.2 9.2 0 0 1 7.89.18 1 1 0 0 1 .46 1.35z"
        ></path>
        <path
                d="M60.83 30.25c-.72-5.38-2.34-10.28-2.34-10.93a83 83 0 0 1 2.34 10.93zM35.4 28.61c0 .15 0 0-.23 1.58.06-.53.14-1.05.23-1.58zM61.73 80.24c-.63 3.94-.78 6.68-3.47 9.94A13.27 13.27 0 0 1 49 95v-5.59a1 1 0 0 0-2 0V95a13.27 13.27 0 0 1-9.26-4.78C35 86.9 34.87 84 34.27 80.24a3.85 3.85 0 0 1 3.8-4.45h19.86a3.85 3.85 0 0 1 3.8 4.45z"
        ></path>
    </g>
</svg>
