<svg xmlns="http://www.w3.org/2000/svg" version="1.1" xmlns:xlink="http://www.w3.org/1999/xlink" width="512"
     height="512" x="0" y="0" viewBox="0 0 64 64"
>
    <g>
        <path d="M28 38.776v7.547c-4.752.788-8 2.966-8 5.677v4c0 3.42 5.159 6 12 6s12-2.58 12-6v-4c0-2.711-3.248-4.889-8-5.677v-7.547C41.184 37.245 45 31.9 45 26A27.891 27.891 0 0 0 32.5 2.136a1 1 0 0 0-1.008 0A27.891 27.891 0 0 0 19 26c0 5.9 3.816 11.245 9 12.776ZM22 56c0-.81.792-1.661 2.143-2.369L27 55.535v.93l-2.857 1.9C22.792 57.661 22 56.81 22 56Zm4.416-3.258a21.382 21.382 0 0 1 11.168 0l-2.139 1.426A1 1 0 0 0 35 55h-6a1 1 0 0 0-.445-.832ZM32 60a20.317 20.317 0 0 1-5.584-.742l2.139-1.426A1 1 0 0 0 29 57h6a1 1 0 0 0 .445.832l2.139 1.426A20.317 20.317 0 0 1 32 60Zm7.857-1.631L37 56.465v-.93l2.857-1.9C41.208 54.339 42 55.19 42 56s-.792 1.661-2.143 2.369ZM42 52v.593C39.887 51.005 36.271 50 32 50s-7.887 1.005-10 2.593V52c0-1.888 4.276-4 10-4s10 2.112 10 4ZM32 4.2A26.5 26.5 0 0 1 43 26a11.537 11.537 0 0 1-7 10.656v-2.331h-2v11.758c-.649-.05-1.313-.083-2-.083s-1.351.033-2 .083V34.325h-2v2.331A11.537 11.537 0 0 1 21 26 26.5 26.5 0 0 1 32 4.2Z"
        ></path>
        <path
                d="m30.708 9.706-1.415-1.413A24.773 24.773 0 0 0 23 25h2a23.185 23.185 0 0 1 5.708-15.294ZM23 27h2v2h-2zM40.98 19.8l-1.96.392c1.789 8.95-2.233 10.808-2.405 10.885l.756 1.852c.236-.095 5.748-2.429 3.609-13.129Z"
        ></path>
    </g>
</svg>
