<svg xmlns="http://www.w3.org/2000/svg" viewBox="0 0 100 100">
    <path d="M71.796 71.443a1.693 1.693 0 0 1-1.226 2.033c-.287.067-1.328.285-2.757.285h-.033c-2.202 0-5.413-.521-8.117-3.042-3.076-2.89-4.638-7.595-4.622-13.998 0-1.261.051-2.572.151-3.916a1.689 1.689 0 0 1 1.799-1.563c.924.068 1.63.891 1.563 1.815a47.81 47.81 0 0 0-.151 3.664c0 5.444 1.209 9.327 3.563 11.545 1.883 1.765 4.218 2.135 5.848 2.135a9.746 9.746 0 0 0 1.949-.185h.016c.118-.034.253-.05.387-.05.773 0 1.445.522 1.63 1.277zm-14.083-23.51c.806 0 1.495-.572 1.646-1.379v-.017a1.677 1.677 0 0 0-1.377-1.932c-.891-.168-1.782.47-1.933 1.378V46a1.672 1.672 0 0 0 1.379 1.916c.084.017.185.017.285.017zm20.848 13.998a1.68 1.68 0 0 1-1.84 1.505c-.279-.028-6.898-.751-10.812-6.503-3.132-4.599-3.581-10.951-1.338-18.877.906-3.204.493-6.635-1.119-9.709a18.187 18.187 0 0 1-.698 3.923 141.163 141.163 0 0 0-2.068 7.781 1.695 1.695 0 0 1-2.033 1.244 1.727 1.727 0 0 1-1.041-.74 1.696 1.696 0 0 1-.202-1.278 157.65 157.65 0 0 1 2.117-7.965c.404-1.345.606-2.739.606-4.1a14.253 14.253 0 0 0-.46-3.565c-2.465-2.113-5.496-3.452-8.669-3.802.283.321.559.65.819.998 3.32 4.442 4.265 10.597 2.532 16.465-.54 1.829-1.064 3.457-1.549 4.969C51.177 47.35 50 51.016 50 56.722a1.68 1.68 0 1 1-3.361 0c0-6.233 1.31-10.31 2.967-15.472.48-1.489.995-3.092 1.526-4.893 1.434-4.857.686-9.904-2-13.502a11.775 11.775 0 0 0-2.894-2.752c-5.988 1.538-9.983 7.883-11.404 14.181l-2.883 12.355h4.605a1.68 1.68 0 0 1 1.681 1.68v6.723a1.68 1.68 0 0 1-1.681 1.68V83.611a6.73 6.73 0 0 1-6.722 6.722 6.729 6.729 0 0 1-6.722-6.722V56.722a1.68 1.68 0 0 1-1.681-1.68v-6.723c0-.928.752-1.68 1.681-1.68h4.198l-5.75-13.757a1.696 1.696 0 0 1-.13-.648c0-7.242 4.417-13.472 10.697-16.14 3.218-3.921 8.098-6.427 13.553-6.427h.302c7.742 0 14.339 5.096 16.639 12.114a19.861 19.861 0 0 1 2.169 2.42c3.328 4.401 4.426 9.785 3.015 14.77-1.96 6.924-1.663 12.332.883 16.071 3.042 4.468 8.316 5.044 8.369 5.049a1.681 1.681 0 0 1 1.504 1.84zm-45.367-5.209h-6.722v26.889c0 1.854 1.508 3.361 3.361 3.361s3.361-1.507 3.361-3.361h-1.68a1.68 1.68 0 1 1 0-3.361h1.68v-3.362h-1.68a1.68 1.68 0 1 1 0-3.361h1.68v-3.361h-1.68a1.68 1.68 0 1 1 0-3.361h1.68v-3.361h-1.68a1.68 1.68 0 1 1 0-3.361h1.68zM34.875 50H24.792v3.361h10.083zm-6.722-10.061V27.194c0-1.688.245-3.319.693-4.865a14.119 14.119 0 0 0-4.051 9.576zm13.635-21.633a13.637 13.637 0 0 0-2.526-.236h-.305c-1.653 0-3.24.286-4.716.809a14.102 14.102 0 0 0-2.726 8.316v6.528l.044-.19c1.373-6.087 4.903-12.216 10.229-15.227zm14.802-.449c-2.594-2.951-6.385-4.82-10.608-4.829h-.302c-2.404.005-4.67.614-6.656 1.681h.238c2.775 0 5.349.64 7.598 1.845a14.798 14.798 0 0 1 2.18-.165h.305c2.497 0 4.956.516 7.245 1.468z"></path>
</svg>
