<svg xmlns="http://www.w3.org/2000/svg" version="1.1" viewBox="0 0 24 24"
>
    <path
            d="M3.51 13.96c-1.93 0-3.5 1.57-3.5 3.5s1.57 3.5 3.5 3.5 3.5-1.57 3.5-3.5-1.57-3.5-3.5-3.5zm0 5c-.82 0-1.5-.67-1.5-1.5s.68-1.5 1.5-1.5c.83 0 1.5.67 1.5 1.5s-.67 1.5-1.5 1.5zm17.42-.07a1.41 1.41 0 0 0-1.56-.29l-2.36 1.06v2.2l2.8-1.26 1.36 1.36H24zm-10.52.68v-.01l-2.03-.85-.78 1.84 3.37 1.42h.16a3.12 3.12 0 0 1-.67-1.32c-.09-.37-.1-.72-.05-1.08zm7.19-1.65c.84-.45 1.41-1.25 1.57-2.18.17-.97-.13-1.95-.8-2.68-.2-.23-.44-.45-.7-.69-.8-.74-1.57-1.44-1.49-2.8.04-.51-.28-.98-.77-1.15a1.13 1.13 0 0 0-1.31.45l-4.71 7.05 1.92.73 3.29-4.93c.45.95 1.17 1.62 1.72 2.12.2.19.4.37.57.56.26.28.37.65.31 1-.03.19-.15.54-.51.74l-4.18 2.03c-.72.35-1.14 1.04-1.13 1.8 0 .15.01.3.05.45.22.93 1 1.55 1.95 1.55h2.43v-2h-2.43zm-6.08-9.46c1.93 0 3.5-1.57 3.5-3.5s-1.57-3.5-3.5-3.5-3.5 1.57-3.5 3.5 1.57 3.5 3.5 3.5zm0-5c.82 0 1.5.68 1.5 1.5 0 .83-.68 1.5-1.5 1.5-.83 0-1.5-.67-1.5-1.5 0-.82.67-1.5 1.5-1.5z"
    ></path>
</svg>
