<svg xmlns="http://www.w3.org/2000/svg" viewBox="0 0 64 64">
    <path d="M32 34.45a1 1 0 0 1-.71-.29l-6.53-6.53a4.13 4.13 0 0 1 0-5.8 4.09 4.09 0 0 1 2.91-1.21 4 4 0 0 1 2.9 1.21L32 23.26l1.43-1.44a2.72 2.72 0 0 1 .5-.41 4.1 4.1 0 0 1 5.31 6.22l-6.53 6.53a1 1 0 0 1-.71.29zm-4.34-11.83a2.08 2.08 0 0 0-1.49.62 2.13 2.13 0 0 0 0 3L32 32l5.83-5.82a2.13 2.13 0 0 0 .61-1.49A2.1 2.1 0 0 0 35.09 23a1.39 1.39 0 0 0-.24.2l-2.14 2.15a1 1 0 0 1-.71.29 1 1 0 0 1-.71-.29l-2.15-2.15a2 2 0 0 0-1.48-.58z"></path>
    <path d="M32 61a6 6 0 0 1-6-6V44a13 13 0 0 0-13-13 6 6 0 0 1-6-6v-2a6 6 0 0 1 6-6h38a6 6 0 0 1 6 6v2a6 6 0 0 1-6 6 13 13 0 0 0-13 13v11a6 6 0 0 1-6 6zM13 19a4 4 0 0 0-4 4v2a4 4 0 0 0 4 4 15 15 0 0 1 15 15v11a4 4 0 0 0 8 0V44a15 15 0 0 1 15-15 4 4 0 0 0 4-4v-2a4 4 0 0 0-4-4z"></path>
</svg>
