<svg viewBox="0 0 85 27" fill="none" xmlns="http://www.w3.org/2000/svg">
	<g clip-path="url(#clip0_1541_3426)">
		<path fill-rule="evenodd" clip-rule="evenodd"
			d="M3.97205 12.6383L5.4473 12.6778L5.48681 13.8633C5.52633 14.8643 5.55926 15.1278 5.69098 15.5427C5.77659 15.8127 5.97417 16.2408 6.11906 16.4976C6.27054 16.7545 6.52739 17.1496 6.70521 17.3867C6.87644 17.6238 7.25843 18.0651 7.54821 18.368C7.84458 18.671 8.33194 19.132 8.64806 19.3889C8.9576 19.6457 9.47789 20.0475 9.81377 20.2846C10.1431 20.5216 10.828 20.9497 11.322 21.2461C11.8686 21.5688 12.2637 21.8388 12.3098 21.9376C12.3691 22.043 12.3955 22.4711 12.3955 23.2614C12.3955 24.3349 12.402 24.4337 12.514 24.4337C12.5733 24.4337 12.9223 24.2493 13.2846 24.0254C13.6468 23.8014 14.2132 23.4392 14.5359 23.2285C14.8586 23.0111 15.425 22.6094 15.7872 22.3394C16.1494 22.0628 16.6961 21.6215 17.0056 21.3449C17.3086 21.0683 17.7498 20.6534 17.9803 20.4163C18.2108 20.1792 18.5862 19.7511 18.8167 19.4613C19.0407 19.1715 19.37 18.7105 19.5478 18.4405C19.719 18.1705 19.9627 17.7226 20.0944 17.4526C20.2195 17.1826 20.4105 16.6886 20.7267 15.7732H22.1756L22.169 16.0366C22.169 16.1815 22.0834 16.5503 21.9846 16.8599C21.8858 17.1694 21.6619 17.716 21.4906 18.0783C21.3194 18.4405 21.0494 18.941 20.8913 19.1979C20.7398 19.4547 20.3974 19.9421 20.1405 20.2846C19.8837 20.627 19.3766 21.2198 19.0143 21.5952C18.6521 21.9706 18.0133 22.5633 17.5983 22.9123C17.1834 23.2614 16.5578 23.7422 16.2153 23.9793C15.8728 24.2229 15.2735 24.6115 14.8849 24.8552C14.4898 25.0923 13.6929 25.5335 13.1067 25.8233C12.514 26.1197 12.0266 26.3831 12.0201 26.4161C12.0069 26.449 11.8357 26.4753 11.6381 26.4753C11.4405 26.4753 11.2363 26.449 11.1968 26.4095C11.1507 26.3765 10.6502 26.1131 10.0904 25.8299C9.53058 25.5467 8.70075 25.0857 8.24632 24.7959C7.79189 24.5127 7.19915 24.1176 6.92913 23.92C6.65911 23.7224 6.18492 23.347 5.87538 23.0967C5.56584 22.8399 5.00604 22.3328 4.63064 21.9706C4.25524 21.6017 3.70861 21.009 3.40566 20.6468C3.10929 20.2846 2.70755 19.7643 2.52314 19.4942C2.33873 19.2242 2.18726 18.9608 2.18726 18.9147C2.18726 18.8554 2.39801 18.8356 3.86667 18.8422L4.13011 19.1188C4.275 19.2769 4.6504 19.6984 4.95994 20.054C5.26948 20.4163 5.86221 21.009 6.27712 21.3778C6.69204 21.7466 7.32429 22.2603 7.68651 22.5304C8.04874 22.8004 8.62172 23.1889 8.9576 23.3997C9.2869 23.6039 9.83353 23.92 10.1562 24.1044C10.479 24.2822 10.7753 24.4205 10.8148 24.4008C10.8543 24.381 10.8807 24.1966 10.8807 23.9858C10.8807 23.7817 10.8609 23.4063 10.7819 22.7082L10.4724 22.5501C10.2945 22.4645 9.79401 22.1484 9.35276 21.8454C8.90491 21.5491 8.24632 21.0683 7.88409 20.7785C7.52845 20.4887 6.93572 19.9553 6.5669 19.593C6.20468 19.2308 5.71732 18.6776 5.48023 18.3615C5.24313 18.0519 4.92701 17.5777 4.77553 17.3143C4.61747 17.0443 4.40672 16.5767 4.30134 16.2671C4.18938 15.9576 4.07084 15.5163 4.03132 15.2792C3.9918 15.0421 3.9457 14.4362 3.91936 13.9291C3.8996 13.422 3.8996 12.9215 3.92594 12.8227L3.97205 12.6383ZM10.0904 0.335749C15.0693 0.329163 19.179 0.348921 19.2251 0.375265C19.2909 0.41478 19.3107 1.79783 19.3436 12.6119L20.8255 12.6449V0.395023L20.9703 0.355507C21.056 0.335749 21.3721 0.329163 22.2414 0.362093L22.2546 7.25757C22.2678 12.7371 22.2546 14.1596 22.1887 14.1662C22.1492 14.1728 21.5433 14.1662 20.8584 14.1596C20.022 14.1465 19.561 14.1662 19.4556 14.2123C19.337 14.2782 19.3107 14.344 19.3107 14.568C19.3107 14.726 19.2514 15.1014 19.1856 15.411C19.1131 15.7205 18.9485 16.2342 18.8036 16.5635C18.6653 16.8862 18.3557 17.4526 18.112 17.8148C17.8684 18.1771 17.46 18.7171 17.19 19.0135C16.9266 19.3098 16.4392 19.7906 16.1165 20.087C15.7872 20.3899 15.2142 20.8707 14.8323 21.1605C14.4503 21.4503 14.0946 21.6874 14.0419 21.6939C13.9629 21.7005 13.9366 21.5754 13.9234 21.009C13.9102 20.627 13.9168 20.2187 13.9366 20.1001C13.9695 19.9289 14.0946 19.7906 14.5491 19.4152C14.8718 19.1518 15.3525 18.7171 15.6226 18.4405C15.8992 18.1705 16.3009 17.7095 16.5117 17.4197C16.729 17.1299 17.0122 16.682 17.1439 16.4318C17.2822 16.1749 17.4732 15.7205 17.7564 14.8512L17.7828 11.0972C17.7959 9.02919 17.7893 6.1182 17.7301 1.90979H9.3791C4.7887 1.90979 0.995203 1.90979 0.949102 1.90979C0.889828 1.90979 0.863484 1.70562 0.856898 1.15899C0.843727 0.553085 0.863484 0.401608 0.93593 0.368679C0.988617 0.355507 5.11141 0.335749 10.0904 0.335749ZM75.0409 2.30494C75.1067 2.30494 75.2582 2.41032 75.3702 2.53545C75.4887 2.66058 75.6402 2.77913 75.6995 2.79889C75.7785 2.81865 75.9168 2.73303 76.1012 2.55521C76.3449 2.3247 76.4108 2.29177 76.5161 2.34446C76.582 2.38398 76.6479 2.48935 76.661 2.57497C76.6676 2.66058 76.6281 2.78572 76.5622 2.85158C76.4964 2.92402 76.3712 3.01623 76.279 3.06233C76.1868 3.10843 76.0222 3.16112 75.9168 3.18746C75.8049 3.2138 75.5941 3.20063 75.436 3.16112C75.2846 3.12819 75.087 3.02281 74.9948 2.93061C74.9026 2.83841 74.8236 2.68034 74.817 2.57497C74.8104 2.47618 74.8301 2.3708 74.8631 2.34446C74.896 2.3247 74.975 2.30494 75.0409 2.30494ZM8.64147 3.39162C12.7906 3.41138 16.189 3.42455 16.1955 3.42455C16.2087 3.42455 16.2153 3.74726 16.2153 4.14901C16.2153 4.54416 16.2087 4.88005 16.1955 4.88663C16.189 4.89322 15.3394 4.91298 12.4284 4.97225V6.48701L16.1824 6.55287V14.917L15.998 15.3451C15.8926 15.5822 15.6753 15.9773 15.5106 16.2342C15.3394 16.4845 14.8718 17.0179 14.47 17.4197C14.0749 17.8148 13.5217 18.3088 13.2516 18.5129C12.9816 18.7171 12.5338 19.0332 12.2637 19.2242C11.9937 19.4086 11.7105 19.5601 11.6381 19.5601C11.5656 19.5667 11.2363 19.3889 10.9136 19.1781C10.5843 18.9674 10.0904 18.6051 9.80719 18.3812C9.53058 18.1639 9.06956 17.749 8.78637 17.4658C8.50317 17.1892 8.12777 16.7677 7.95654 16.5306C7.77872 16.2935 7.56138 15.951 7.46918 15.7732C7.38356 15.5888 7.24526 15.2792 7.17281 15.0817C7.04109 14.7458 7.03451 14.5482 7.01475 12.2168C6.99499 10.2608 7.00816 9.69437 7.07402 9.62851C7.1333 9.56923 7.35722 9.54289 7.79847 9.54289C8.24632 9.54947 8.45707 9.57582 8.49 9.62851C8.51634 9.67461 8.5361 10.781 8.54269 14.4626L8.78637 14.9499C8.91808 15.22 9.18811 15.6217 9.3791 15.839C9.57009 16.0564 9.8928 16.3857 10.0904 16.5701C10.288 16.7545 10.6831 17.0838 10.9597 17.3077C11.2429 17.5316 11.5327 17.716 11.6051 17.716C11.6776 17.716 11.8949 17.5975 12.0793 17.4526C12.2703 17.3077 12.6918 16.9587 13.0145 16.6755C13.3372 16.3988 13.7587 15.9576 13.9563 15.7073C14.1539 15.4505 14.391 15.0817 14.6676 14.5219L14.7071 8.1335L14.5556 8.08081C14.47 8.05447 12.7511 8.03471 7.06085 8.03471L7.04109 7.88323C7.03451 7.8042 7.02792 7.46832 7.02792 6.55287L8.88515 6.51994C9.90597 6.50019 10.7556 6.47384 10.7753 6.45408C10.8017 6.43433 10.828 6.31578 10.8478 6.19065C10.8609 6.06551 10.8939 5.76256 10.9268 5.52547C10.9663 5.16983 10.9597 5.06445 10.8807 4.97883C10.7885 4.87346 10.4328 4.86687 2.4507 4.87346L2.41777 5.01835C2.39801 5.10397 2.38484 6.15113 2.38484 9.54948H3.8996L3.93253 6.55287L5.48023 6.51994V8.79209C5.48023 10.5571 5.46047 11.0642 5.39461 11.0708C5.35509 11.0774 4.68991 11.084 3.91936 11.0906C3.15539 11.0906 2.50338 11.1235 2.47045 11.1499C2.44411 11.1828 2.41777 12.039 2.41777 13.0598C2.41777 14.5284 2.44411 15.0421 2.52973 15.5097C2.589 15.8325 2.72072 16.3396 2.81292 16.6294C2.91171 16.9191 2.9644 17.176 2.93147 17.2023C2.90512 17.2353 2.54948 17.2484 1.42987 17.2221L1.31791 16.9916C1.25864 16.8665 1.14009 16.4515 1.05448 16.0696C0.903 15.378 0.903 15.3517 0.889828 9.398C0.87007 3.75385 0.876656 3.42455 0.982031 3.39162C1.04789 3.37845 4.49233 3.37845 8.64147 3.39162ZM40.6952 3.39162C40.7413 3.41138 40.8401 3.42455 40.9126 3.42455C41.0377 3.42455 41.0443 3.47066 41.0772 6.48701L42.3615 6.51994L42.3681 6.30261C42.3681 6.18406 42.3746 5.49912 42.3944 3.45748L42.6578 3.43773C42.8225 3.42455 42.941 3.4509 42.9674 3.50358C42.9937 3.54969 43.0201 4.22804 43.0201 6.42115L43.4811 6.65166L43.4481 7.8042H43.2176C42.9937 7.8042 42.9871 7.79103 42.8488 7.14561L40.4845 7.07975L40.4581 5.2752C40.4318 3.75385 40.445 3.45748 40.524 3.41138C40.5767 3.38504 40.6557 3.37187 40.6952 3.39162ZM44.5151 3.35869C44.5282 3.35869 44.6139 3.38504 44.8971 3.48383V4.58368C44.8971 5.25544 44.9234 5.6967 44.9629 5.70987C44.9958 5.72305 45.2922 5.26862 45.6215 4.70223C45.9442 4.13583 46.2669 3.61555 46.3262 3.54969C46.4118 3.45748 46.5172 3.43114 46.9387 3.45748L46.9716 7.04682L46.8201 7.08633C46.7411 7.10609 46.616 7.11268 46.5435 7.09951C46.4184 7.07975 46.4118 7.01389 46.3789 5.96673C46.3591 5.30813 46.3196 4.84053 46.2801 4.82736C46.2406 4.81419 46.0035 5.16983 45.7401 5.61108C45.4832 6.05893 45.2264 6.50677 45.1737 6.61873C45.1144 6.72411 45.009 6.88217 44.9366 6.9612C44.8575 7.04682 44.7192 7.11268 44.6139 7.11268C44.5151 7.11268 44.3965 7.07316 44.3504 7.02706C44.2912 6.96779 44.2648 6.51336 44.2582 5.22251C44.2516 3.58262 44.2516 3.49041 44.3768 3.43114C44.4426 3.39162 44.5085 3.35869 44.5151 3.35869ZM49.4743 3.39821C49.6389 3.41138 49.876 3.48383 50.0012 3.54969C50.1263 3.61555 50.3173 3.78019 50.6268 4.16218L50.6466 5.15666C50.6597 6.08527 50.6532 6.17748 50.5149 6.4475C50.4292 6.61873 50.2514 6.81631 50.1065 6.90851C49.8826 7.0534 49.7772 7.07975 49.303 7.07975C48.7959 7.07975 48.7432 7.06658 48.5061 6.87558C48.3678 6.76362 48.19 6.54629 48.1044 6.38164C47.9793 6.12479 47.9595 5.99307 47.9595 5.30155C47.9595 4.86687 47.9924 4.40586 48.032 4.28073C48.0781 4.15559 48.1637 3.9646 48.2361 3.86581C48.302 3.76702 48.4535 3.6353 48.572 3.57603C48.684 3.51676 48.8684 3.44431 48.9803 3.41797C49.0857 3.38504 49.3096 3.37845 49.4743 3.39821ZM48.6115 4.59685C48.6115 4.72857 48.6115 5.12373 48.6115 5.46619C48.6115 5.9799 48.6313 6.1182 48.7367 6.25651C48.8025 6.34871 48.9737 6.46067 49.1186 6.51336C49.3491 6.59898 49.4018 6.59239 49.6389 6.48043C49.7838 6.40798 49.9353 6.28285 49.9814 6.19065C50.0341 6.08527 50.067 5.73622 50.067 5.24886C50.067 4.76808 50.0341 4.41244 49.9814 4.30707C49.9419 4.20828 49.8233 4.08973 49.718 4.04363C49.6192 3.99094 49.4216 3.95143 49.2833 3.95143C49.0791 3.95143 48.9737 3.99753 48.8157 4.15559C48.6576 4.30707 48.6049 4.41244 48.6115 4.59685ZM51.9704 3.35211C52.0626 3.35211 52.1745 3.39162 52.2206 3.43773C52.2667 3.49041 52.3062 3.79337 52.3392 4.90639L53.6893 4.93932V4.22804C53.6893 3.76044 53.7156 3.497 53.7683 3.43773C53.8078 3.39162 53.9132 3.35869 53.9988 3.35869C54.0844 3.35869 54.1964 3.37187 54.2491 3.39162C54.3347 3.41797 54.3479 3.6814 54.3479 5.20276C54.3479 6.9151 54.3413 6.98096 54.2162 7.04682C54.1437 7.07975 54.0383 7.11268 53.9856 7.11268C53.933 7.11268 53.8408 7.06658 53.7881 7.01389C53.7156 6.93486 53.6893 6.75045 53.6893 5.56498L53.3797 5.5123C53.2019 5.48595 52.9385 5.46619 52.7804 5.46619C52.6289 5.46619 52.4577 5.47937 52.405 5.49912C52.326 5.52547 52.3062 5.67036 52.3062 6.25651C52.3062 6.96779 52.2996 6.98096 52.1416 7.04682C52.0296 7.08633 51.9242 7.08633 51.6476 6.98096L51.6345 5.24886C51.6213 3.83288 51.6411 3.50358 51.7135 3.43773C51.7662 3.39162 51.8781 3.35869 51.9704 3.35211ZM56.7517 3.39821C56.8242 3.41797 56.9164 3.47065 56.9625 3.51017C57.002 3.55627 57.2918 4.34658 57.6079 5.26862C57.9175 6.19065 58.1545 6.98096 58.1348 7.02706C58.115 7.07316 58.0228 7.11268 57.9175 7.11268C57.8187 7.11268 57.7067 7.08633 57.6606 7.05999C57.6211 7.03365 57.5223 6.869 57.4498 6.69776C57.3576 6.48701 57.2523 6.36188 57.1271 6.31578C57.0284 6.27626 56.7583 6.26309 56.0602 6.32237L55.8758 6.69776C55.7177 7.04023 55.6782 7.07975 55.4675 7.09951C55.3226 7.11268 55.2238 7.09292 55.1909 7.03365C55.1711 6.98755 55.4214 6.17748 55.7441 5.23569C56.1919 3.94484 56.3763 3.50358 56.4817 3.44431C56.5542 3.39821 56.6793 3.37845 56.7517 3.39821ZM56.238 5.64401C56.2512 5.70329 56.3895 5.72963 56.653 5.72963C56.923 5.72963 57.0481 5.70329 57.0481 5.64401C57.0481 5.59791 56.9822 5.34106 56.8966 5.07104C56.8044 4.77467 56.7056 4.57051 56.6464 4.55733C56.5805 4.54416 56.5015 4.68905 56.3829 5.05128C56.2907 5.33448 56.2249 5.59791 56.238 5.64401ZM66.4001 3.35869C66.4528 3.35869 66.5516 3.39162 66.6109 3.43773C66.7031 3.51017 66.7294 3.64848 66.7624 4.90639H68.1454L68.1783 4.18852C68.2047 3.64848 68.2376 3.4509 68.3101 3.4048C68.3627 3.37187 68.4879 3.35869 68.7711 3.42455V7.04682L68.5867 7.08633C68.4879 7.11268 68.3627 7.09951 68.3101 7.06658C68.2376 7.01389 68.2047 6.81631 68.1454 5.56498H66.7624L66.7294 6.28285C66.7031 6.81631 66.6702 7.01389 66.5977 7.06658C66.545 7.09951 66.4199 7.11268 66.1367 7.04682L66.1235 5.24227C66.1104 3.71433 66.1235 3.43114 66.2026 3.39821C66.2552 3.38504 66.3474 3.36528 66.4001 3.35869ZM70.3122 3.41138C70.411 3.43773 70.5032 3.51676 70.5229 3.5892C70.5493 3.66165 70.5427 3.89874 70.5163 4.11608C70.49 4.33341 70.49 4.57709 70.5098 4.65612C70.5427 4.79443 70.5888 4.8076 70.9576 4.8076C71.1881 4.8076 71.4779 4.83394 71.603 4.87346C71.7282 4.90639 71.9323 5.03152 72.0509 5.15007C72.1826 5.28179 72.288 5.47937 72.3341 5.66377C72.3802 5.86794 72.3802 6.05234 72.3341 6.25651C72.288 6.45408 72.1892 6.61873 72.0311 6.76362C71.906 6.88217 71.6886 7.0073 71.5503 7.04682C71.4186 7.07975 71.0235 7.11268 70.681 7.11268C70.2595 7.11268 70.029 7.08633 69.9697 7.02706C69.9104 6.96779 69.8907 6.5397 69.8907 5.28179C69.8907 3.76044 69.8973 3.60896 70.0092 3.497C70.1014 3.41138 70.1805 3.38504 70.3122 3.41138ZM70.5229 5.81525C70.5229 6.03917 70.5229 6.28944 70.5295 6.36847C70.5493 6.50677 70.5822 6.51994 70.9905 6.51994C71.2408 6.51336 71.4845 6.48043 71.5438 6.43433C71.603 6.38822 71.6821 6.28285 71.7282 6.19065C71.7808 6.09186 71.8006 5.9338 71.7743 5.80866C71.7545 5.69012 71.6689 5.5584 71.5833 5.50571C71.5042 5.45302 71.2869 5.40033 71.1091 5.38716C70.9247 5.36741 70.7271 5.3674 70.6547 5.38058C70.5559 5.40033 70.5361 5.47937 70.5229 5.81525ZM74.7445 3.36528C74.7906 3.35869 74.8762 3.41138 74.9355 3.47066C75.0277 3.56944 75.0409 3.73409 75.0211 4.61002C75.0014 5.47278 75.008 5.63084 75.0936 5.6506C75.1594 5.66377 75.3307 5.42009 75.6139 4.92615C75.8444 4.51782 76.1012 4.06339 76.1803 3.9185C76.2593 3.77361 76.4108 3.5892 76.5161 3.50358C76.6215 3.41797 76.7598 3.35211 76.8191 3.35211C76.8849 3.35869 76.9772 3.42455 77.0298 3.50358C77.1089 3.62872 77.122 3.93826 77.0891 5.30155C77.0694 6.38823 77.0298 6.97437 76.9771 7.03365C76.9376 7.07975 76.8454 7.11926 76.773 7.11268C76.7005 7.11268 76.6017 7.07316 76.5556 7.02706C76.4964 6.96779 76.4766 6.65166 76.4766 5.87452C76.4766 5.06445 76.4569 4.8076 76.391 4.80101C76.3515 4.80101 76.1605 5.06445 75.9761 5.38058C75.7851 5.6967 75.5414 6.14455 75.4295 6.36847C75.3175 6.59897 75.1528 6.85583 75.0606 6.94803C74.9684 7.04682 74.8236 7.11268 74.7182 7.11268C74.6194 7.11268 74.4942 7.07316 74.4481 7.02706C74.3889 6.96779 74.3691 6.5397 74.3691 5.26862C74.3691 4.34658 74.3955 3.55627 74.4218 3.51676C74.4482 3.47724 74.514 3.42455 74.5667 3.4048C74.6194 3.38504 74.705 3.36528 74.7445 3.36528ZM33.701 3.45748L33.7207 4.11608C33.7339 4.50465 33.7734 4.8076 33.8195 4.86029C33.8722 4.91956 34.0895 4.9459 34.5044 4.93932C34.8469 4.93932 35.1301 4.90639 35.1499 4.87346C35.1696 4.83394 35.2026 4.49806 35.2816 3.42455L35.4792 3.41797C35.5845 3.41797 35.7097 3.45748 35.7558 3.50358C35.8151 3.56944 35.8282 3.99753 35.7953 5.30155C35.7689 6.44091 35.736 7.02706 35.6833 7.05999C35.6438 7.08633 35.545 7.11268 35.4594 7.11268C35.3804 7.11268 35.2948 7.07316 35.275 7.02706C35.2487 6.98096 35.2157 6.65166 35.2026 6.28944C35.1894 5.92721 35.163 5.59133 35.1499 5.54522C35.1235 5.48595 34.9325 5.47278 33.7668 5.49912L33.7471 6.26968C33.7339 7.01389 33.7273 7.04682 33.5824 7.08633C33.5034 7.10609 33.3717 7.09292 33.286 7.0534C33.1412 6.98096 33.1412 6.97437 33.128 5.24227C33.1214 4.2939 33.1477 3.49041 33.1741 3.46407C33.207 3.43773 33.3387 3.42455 33.701 3.45748ZM38.1135 3.42455C38.2387 3.42455 38.3836 3.46407 38.4231 3.51017C38.4692 3.55627 38.7194 4.21487 38.9763 4.97225C39.2397 5.72963 39.4834 6.47384 39.5295 6.61873C39.5756 6.76362 39.5954 6.93486 39.569 6.99413C39.5427 7.06658 39.4571 7.11268 39.3451 7.11268C39.2463 7.11268 39.1212 7.05999 39.0619 7.00072C39.0026 6.93486 38.917 6.77021 38.8775 6.6319C38.8314 6.47384 38.7458 6.36188 38.6404 6.32237C38.5482 6.28285 38.3177 6.25651 38.1267 6.25651C37.9423 6.25651 37.7184 6.27626 37.6328 6.30261C37.534 6.33554 37.4418 6.45408 37.3693 6.64508C37.3101 6.80973 37.2179 6.98096 37.1718 7.02706C37.1191 7.07316 36.9939 7.11268 36.8886 7.11268C36.7634 7.11268 36.6844 7.07316 36.6581 6.99413C36.6317 6.92827 36.8425 6.21699 37.1586 5.30155C37.4549 4.4322 37.7447 3.65506 37.7908 3.56944C37.8633 3.46407 37.9489 3.42455 38.1135 3.42455ZM37.8567 5.10397C37.7974 5.28179 37.7513 5.49912 37.7513 5.57815C37.7513 5.71646 37.7842 5.72963 38.0674 5.72963C38.2387 5.72963 38.4099 5.6967 38.4428 5.66377C38.4889 5.61767 38.456 5.42009 38.3704 5.11714C38.2848 4.8076 38.1992 4.63637 38.1267 4.62319C38.0674 4.61002 38.0082 4.63637 37.9884 4.68905C37.9752 4.73515 37.9094 4.91956 37.8567 5.10397ZM60.3279 3.41797C60.4596 3.41797 60.6045 3.45748 60.6506 3.50358C60.6967 3.54969 60.9799 4.35317 61.2895 5.28179C61.599 6.21699 61.8427 7.0073 61.8229 7.04682C61.8032 7.07975 61.6846 7.11268 61.5595 7.11268C61.3948 7.11268 61.3026 7.07316 61.2368 6.9612C61.1841 6.88217 60.9799 6.28944 60.7757 5.64401C60.5584 4.95249 60.374 4.48489 60.3279 4.49148C60.2884 4.50465 60.0645 5.07104 59.834 5.76256C59.6035 6.4475 59.3795 7.03365 59.3334 7.05999C59.2873 7.08633 59.1754 7.11268 59.07 7.11268C58.958 7.11268 58.879 7.06658 58.8527 6.99413C58.8263 6.92827 59.0436 6.19723 59.3532 5.30155C59.6496 4.4322 59.9393 3.65506 59.9854 3.56944C60.0579 3.46407 60.1435 3.42455 60.3279 3.41797ZM63.206 3.45748L63.2191 3.98436C63.2323 4.27414 63.2521 4.57051 63.2652 4.64295C63.2916 4.75491 63.3706 4.78126 63.8448 4.8076C64.1873 4.83394 64.4902 4.89322 64.6549 4.97225C64.7998 5.04469 64.9842 5.20934 65.0698 5.33448C65.1752 5.49912 65.2147 5.65719 65.2147 5.89428C65.2147 6.0721 65.1554 6.34212 65.0961 6.48701C65.0039 6.68459 64.8985 6.78997 64.6483 6.9151C64.3848 7.04682 64.2004 7.07975 63.667 7.09951C63.3047 7.11926 62.9293 7.11268 62.6462 7.04682L62.633 5.2752C62.6264 4.30707 62.6527 3.49041 62.6791 3.46407C62.712 3.43773 62.8437 3.42455 63.206 3.45748ZM63.2586 5.80208C63.2389 5.99307 63.2389 6.23675 63.2652 6.33554C63.3047 6.51336 63.3179 6.51994 63.7328 6.51994C63.9699 6.51994 64.24 6.48043 64.3387 6.42774C64.4441 6.38164 64.5429 6.28944 64.5692 6.23016C64.6022 6.17089 64.6219 6.03917 64.6219 5.94038C64.6219 5.84159 64.5758 5.6967 64.5231 5.61108C64.4705 5.53205 64.3124 5.43326 64.1741 5.40033C64.0424 5.36082 63.825 5.33448 63.6999 5.33448C63.5748 5.33448 63.4299 5.36082 63.3772 5.38716C63.3311 5.42009 63.2718 5.6045 63.2586 5.80208ZM72.9795 3.42455C73.0717 3.42455 73.1902 3.45748 73.2363 3.50358C73.2956 3.56944 73.3154 3.99094 73.3154 5.21593C73.3154 6.17089 73.289 6.90193 73.2495 6.98096C73.21 7.05999 73.1178 7.11268 72.9992 7.11268C72.9005 7.11268 72.7819 7.07316 72.7358 7.02706C72.6765 6.96779 72.6502 6.51994 72.6436 5.26203C72.6304 3.89216 72.6502 3.56944 72.7226 3.50358C72.7753 3.45748 72.8873 3.42455 72.9795 3.42455ZM82.1076 7.83713C82.1998 7.83713 82.3644 7.92275 82.483 8.02812C82.6015 8.14008 82.7464 8.2257 82.7991 8.2257C82.8518 8.2257 82.9967 8.15326 83.1087 8.06764C83.2272 7.97544 83.405 7.8964 83.4972 7.88323C83.6026 7.87665 83.7014 7.91616 83.7475 7.98202C83.8068 8.07422 83.7936 8.1335 83.6816 8.27839C83.6092 8.37718 83.4445 8.51548 83.3194 8.57476C83.1943 8.64062 82.9703 8.6933 82.8123 8.6933C82.6608 8.6933 82.4237 8.63403 82.2854 8.56817C82.1537 8.50231 82.0022 8.36401 81.9495 8.25863C81.9034 8.15326 81.8771 8.01495 81.9034 7.94909C81.9232 7.88323 82.0088 7.83713 82.1076 7.83713ZM51.5884 8.75916C51.6542 8.75916 51.7728 8.83819 51.8452 8.93698C51.9242 9.03577 52.2206 9.83267 52.5038 10.702C52.7936 11.5714 53.0307 12.3485 53.0307 12.4275C53.0307 12.5131 52.9846 12.5922 52.9319 12.6119C52.8792 12.6317 52.7672 12.6119 52.6816 12.579C52.6026 12.5395 52.4972 12.4473 52.4511 12.3617C52.405 12.2826 52.214 11.7097 52.023 11.0972C51.7794 10.3134 51.6476 9.97756 51.5818 9.97756C51.5159 9.97756 51.4171 10.162 51.3052 10.5044C51.2064 10.7942 51.0286 11.3408 50.91 11.7162C50.752 12.2036 50.6466 12.4341 50.528 12.5263C50.4227 12.6119 50.3107 12.6383 50.2119 12.6185C50.1329 12.5922 50.067 12.5395 50.067 12.4934C50.067 12.4473 50.3107 11.6701 50.6071 10.7679C50.9561 9.70754 51.1998 9.05553 51.3052 8.93698C51.3908 8.83819 51.5159 8.75916 51.5884 8.75916ZM43.4613 8.82502C43.5469 8.82502 43.6589 8.87112 43.7116 8.92381C43.784 8.99626 43.8104 9.18725 43.8104 10.4056H45.1605L45.2132 9.66144C45.2461 9.25311 45.279 8.89747 45.2988 8.87112C45.312 8.84478 45.4042 8.82502 45.503 8.82502C45.6083 8.82502 45.7269 8.85795 45.773 8.90405C45.8323 8.96991 45.852 9.40458 45.852 10.702C45.852 11.9599 45.8323 12.4341 45.773 12.4934C45.7269 12.5395 45.6083 12.579 45.5095 12.579C45.4108 12.579 45.312 12.5527 45.2988 12.5263C45.279 12.5 45.2461 12.1509 45.1605 11.0116L44.6336 10.9655C44.3438 10.9391 44.0409 10.9325 43.9553 10.9589C43.817 10.9984 43.8104 11.0313 43.7906 11.7228C43.784 12.2826 43.7577 12.467 43.6787 12.5131C43.626 12.5461 43.5206 12.579 43.4481 12.579C43.3757 12.579 43.2769 12.5395 43.2308 12.4934C43.1715 12.4341 43.1452 11.9797 43.1386 10.6954C43.1254 9.29921 43.1452 8.96991 43.2176 8.90405C43.2703 8.85795 43.3757 8.82502 43.4613 8.82502ZM48.1242 8.82502C48.2691 8.82502 48.5193 8.86454 48.684 8.92381C48.8486 8.98308 49.0528 9.09505 49.1384 9.17408C49.224 9.25311 49.3491 9.43751 49.415 9.58241C49.5138 9.79316 49.5401 10.0105 49.5401 10.702C49.5401 11.3935 49.5138 11.6043 49.415 11.8216C49.3491 11.9665 49.2108 12.1575 49.1055 12.2563C49.0001 12.3485 48.8223 12.4605 48.7169 12.5066C48.6049 12.5527 48.3349 12.579 48.0847 12.5658C47.7488 12.5527 47.5907 12.5066 47.38 12.3617C47.2219 12.2629 47.0441 12.0653 46.9716 11.9204C46.8597 11.6965 46.8399 11.5253 46.8399 10.7349C46.8399 10.2278 46.8728 9.7273 46.9124 9.62851C46.9453 9.52972 47.0572 9.36507 47.156 9.25969C47.2548 9.15432 47.4524 9.01601 47.5973 8.95015C47.7422 8.8843 47.9793 8.82502 48.1242 8.82502ZM47.4722 9.80633C47.4326 11.2486 47.4524 11.5384 47.5117 11.657C47.5644 11.7492 47.7027 11.8743 47.8278 11.9468C47.9924 12.0324 48.1242 12.0587 48.2888 12.0324C48.4139 12.006 48.5918 11.9204 48.684 11.8348C48.7762 11.7492 48.8684 11.5779 48.9013 11.4528C48.9276 11.3277 48.9474 10.9655 48.9474 10.6493C48.9474 10.2871 48.9079 9.99073 48.8486 9.84584C48.7893 9.71412 48.6642 9.56923 48.5522 9.51655C48.4403 9.46386 48.2493 9.41776 48.1242 9.41776C47.9595 9.41776 47.8344 9.47044 47.6829 9.61533L47.4722 9.80633ZM54.9406 8.81844C55.1382 8.81844 55.3687 8.87771 55.5992 8.99626C55.8758 9.14115 56.0009 9.25311 56.1261 9.47703C56.2644 9.7273 56.2973 9.87877 56.3171 10.4649C56.3302 10.8469 56.3105 11.3277 56.2644 11.5384C56.2183 11.8085 56.1327 11.9797 55.9812 12.1509C55.8626 12.2761 55.6453 12.4275 55.5004 12.4868C55.3358 12.5461 55.0921 12.579 54.8418 12.5592C54.5389 12.5461 54.3742 12.4934 54.1635 12.3617C54.0054 12.2563 53.8276 12.0587 53.742 11.9007C53.6366 11.6833 53.5971 11.466 53.5707 10.9918C53.5576 10.6493 53.5773 10.1883 53.6234 9.97097C53.6629 9.75364 53.7617 9.47703 53.8408 9.35848C53.9198 9.23994 54.1371 9.0687 54.3149 8.98308C54.5191 8.87771 54.7562 8.81844 54.9406 8.81844ZM54.203 9.87219C54.2491 11.5911 54.2623 11.6504 54.4137 11.815C54.5059 11.9072 54.6706 11.9994 54.776 12.0192C54.8879 12.0455 55.0592 12.0455 55.1579 12.0192C55.2567 11.9994 55.4148 11.9072 55.5004 11.815C55.6651 11.657 55.6651 11.624 55.6651 10.7613C55.6651 10.2739 55.6387 9.81291 55.5992 9.74047C55.5663 9.66802 55.4477 9.56265 55.3358 9.50996C55.2304 9.45727 55.0328 9.41117 54.9011 9.41117C54.7233 9.41117 54.6113 9.46386 54.4335 9.64168L54.203 9.87219ZM60.5584 8.81844C60.6243 8.81844 60.7165 8.86454 60.7692 8.91723C60.8548 8.99626 60.868 9.22018 60.868 10.0698C60.868 10.7086 60.8943 11.1367 60.9338 11.1564C60.9733 11.1762 61.1446 10.9457 61.3224 10.6493C61.5002 10.3464 61.7636 9.87877 61.9151 9.60875C62.06 9.33872 62.2312 9.0687 62.2971 9.00943C62.363 8.95016 62.4881 8.8843 62.5671 8.85795C62.6659 8.83161 62.7581 8.85795 62.8371 8.93698C62.9425 9.04236 62.9557 9.20701 62.9689 10.6823C62.9755 11.5779 62.9557 12.3617 62.9228 12.4275C62.8898 12.4868 62.7976 12.5658 62.7252 12.5922C62.6264 12.6251 62.5474 12.5988 62.4486 12.5066C62.33 12.388 62.3169 12.2892 62.3169 11.3211C62.3169 10.5242 62.2971 10.2673 62.2378 10.2673C62.1917 10.2673 62.0995 10.3661 62.0337 10.4847C61.9612 10.6032 61.6978 11.0642 61.4475 11.5187C61.1972 11.9731 60.9338 12.4012 60.868 12.467C60.8021 12.5329 60.6704 12.5922 60.565 12.5856C60.4596 12.5856 60.3411 12.5329 60.295 12.467C60.2291 12.3683 60.2094 11.9533 60.2291 10.6427C60.2423 9.22018 60.262 8.93698 60.3411 8.8843C60.4003 8.85137 60.4926 8.81844 60.5584 8.81844ZM68.6723 8.85795C69.2189 8.8843 69.6865 8.91064 69.7129 8.92381C69.7392 8.93698 69.759 9.0226 69.759 9.1148C69.759 9.20701 69.726 9.3058 69.6799 9.33214C69.6338 9.35848 69.2716 9.39141 68.1586 9.4441L68.0993 9.64168C68.0598 9.75364 68.0532 9.96439 68.1125 10.3991H68.804C69.4099 10.3991 69.5153 10.4188 69.6272 10.5308C69.726 10.623 69.7458 10.702 69.7129 10.8008C69.6865 10.8732 69.6009 10.9523 69.5285 10.9655C69.456 10.9786 69.1201 10.9984 68.1454 11.0247L68.1059 11.4199C68.0861 11.6372 68.0795 11.8546 68.0927 11.9007C68.1059 11.9599 68.3166 11.9797 68.8369 11.9797C69.3967 11.9797 69.5877 12.006 69.6602 12.0785C69.7194 12.1312 69.759 12.2365 69.759 12.309C69.759 12.388 69.6931 12.467 69.5943 12.5066C69.5087 12.5461 69.0148 12.5724 68.5076 12.5724C67.6976 12.5724 67.579 12.5592 67.5263 12.4605C67.4934 12.388 67.4802 11.6504 67.5066 10.6296C67.5263 9.50337 67.5658 8.90405 67.612 8.86454C67.6581 8.83819 68.1322 8.83161 68.6723 8.85795ZM71.9982 8.84478C72.1628 8.85795 72.3933 8.91723 72.5119 8.9765C72.6304 9.03577 72.8148 9.20701 72.9268 9.36507C73.0519 9.5363 73.1178 9.70754 73.1112 9.80633C73.0915 9.92487 73.0453 9.97756 72.9202 9.99073C72.8017 10.0105 72.6765 9.93146 72.446 9.71412C72.1826 9.45727 72.0904 9.41117 71.8665 9.41117C71.7216 9.41117 71.5438 9.4441 71.4713 9.47703C71.3989 9.51655 71.3001 9.62851 71.254 9.7273C71.2013 9.82608 71.142 10.1159 71.1157 10.3661C71.0893 10.623 71.0827 10.9786 71.1091 11.1564C71.1288 11.3408 71.2145 11.5911 71.2935 11.7162C71.3923 11.8677 71.524 11.9665 71.6755 12.006C71.8401 12.0521 71.9653 12.0455 72.1233 11.9731C72.2485 11.927 72.4329 11.7689 72.5382 11.6372C72.6436 11.4923 72.7819 11.387 72.8544 11.387C72.9268 11.387 73.0322 11.4331 73.0849 11.4857C73.1639 11.5648 73.1705 11.6306 73.1244 11.7689C73.0914 11.8677 72.9334 12.0785 72.7753 12.23C72.6239 12.388 72.3933 12.5461 72.2616 12.579C72.1365 12.6119 71.9455 12.6383 71.8335 12.6383C71.7282 12.6383 71.5174 12.5856 71.3725 12.5197C71.2276 12.4539 71.0037 12.2695 70.8654 12.1048C70.7008 11.9204 70.5888 11.7031 70.5427 11.4857C70.5032 11.3013 70.4834 10.8667 70.5032 10.4978C70.5229 9.99732 70.569 9.7734 70.6744 9.56265C70.7534 9.40458 70.9115 9.20701 71.0301 9.12139C71.1486 9.03577 71.3462 8.9304 71.4713 8.89088C71.603 8.85795 71.8401 8.83819 71.9982 8.84478ZM77.8794 8.81844C77.9058 8.81844 78.0046 8.85137 78.2548 8.95015L78.2746 10.0368C78.2812 10.6954 78.3141 11.1301 78.3536 11.1367C78.3931 11.1433 78.6895 10.6888 79.0122 10.1159C79.3415 9.54948 79.6576 9.03577 79.7169 8.9765C79.7828 8.91064 79.9211 8.86454 80.033 8.85795C80.1516 8.85795 80.2635 8.89747 80.303 8.95015C80.336 9.00943 80.3623 9.77998 80.3623 10.7152C80.3623 11.6306 80.3492 12.4209 80.3294 12.4736C80.3096 12.5329 80.2174 12.5724 80.0857 12.5724C79.9672 12.5724 79.8355 12.5395 79.7893 12.4934C79.7301 12.4341 79.7037 12.118 79.7037 11.3409C79.7037 10.5242 79.684 10.2673 79.6247 10.2673C79.5786 10.2673 79.4798 10.3793 79.4008 10.5176C79.3283 10.6493 79.0649 11.1169 78.8212 11.5516C78.5709 11.9863 78.3075 12.3946 78.2351 12.4605C78.156 12.5263 78.0111 12.579 77.9124 12.579C77.8004 12.5724 77.7082 12.5263 77.6621 12.4407C77.6226 12.3617 77.6028 11.6504 77.616 10.6296C77.6292 9.22018 77.6489 8.93698 77.7279 8.8843C77.7872 8.85137 77.8531 8.81844 77.8794 8.81844ZM34.9852 8.89747C35.7228 8.8843 35.8941 8.89747 35.9599 8.98308C36.0192 9.05553 36.0258 9.12139 35.9731 9.21359C35.9402 9.28604 35.8414 9.35848 35.7624 9.37824C35.6833 9.398 35.4528 9.41776 34.8864 9.4441L34.8206 12.4736L34.5769 12.4934C34.4386 12.5 34.3266 12.5 34.32 12.4934C34.3135 12.4802 34.2937 11.7953 34.2278 9.4441L33.7536 9.37824C33.4968 9.34531 33.2465 9.27945 33.1938 9.23335C33.128 9.16749 33.128 9.13456 33.207 9.04894C33.2729 8.98967 33.4507 8.94357 33.701 8.9304C33.9183 8.91723 34.4979 8.90405 34.9852 8.89747ZM36.6317 8.8843H37.6855C38.6733 8.8843 38.7458 8.89088 38.8051 9.01601C38.8446 9.08846 38.8578 9.20701 38.838 9.27945C38.8117 9.40458 38.7524 9.41117 38.1004 9.41117C37.7118 9.41117 37.3562 9.43751 37.3101 9.46386C37.2508 9.49679 37.231 9.64826 37.2574 10.3661L38.6404 10.432L38.6602 10.6493C38.6668 10.7679 38.6404 10.8798 38.5943 10.8996C38.5482 10.9194 38.2321 10.9391 37.2574 10.9589L37.2442 11.4528C37.231 11.8019 37.2508 11.9599 37.3101 11.9994C37.3562 12.0258 37.7118 12.0455 38.1004 12.0455C38.6733 12.0455 38.8117 12.0653 38.838 12.1443C38.8578 12.197 38.8709 12.2761 38.8709 12.309C38.8709 12.3485 38.8248 12.4209 38.7721 12.4736C38.6865 12.5527 38.4626 12.5724 36.6317 12.5724V8.8843ZM39.9444 8.89747C40.2079 8.91723 40.2276 8.93698 40.5174 9.43093C40.6821 9.71412 40.8599 9.93805 40.9126 9.93805C40.9718 9.93805 41.1497 9.70095 41.6041 8.8843H41.8873C42.0914 8.8843 42.1639 8.91064 42.1639 8.98308C42.1639 9.03577 41.9729 9.41117 41.7358 9.80633C41.5053 10.2081 41.3077 10.5703 41.3143 10.6164C41.3143 10.6625 41.367 10.7876 41.4329 10.893C41.4987 11.005 41.716 11.4001 41.9202 11.7821C42.1244 12.1641 42.2759 12.5 42.2495 12.5263C42.2298 12.5527 42.1244 12.5724 42.0256 12.5724C41.9202 12.5724 41.7885 12.5527 41.7292 12.5263C41.6765 12.5 41.4855 12.2168 41.3209 11.9007C41.1167 11.5121 40.9784 11.3211 40.8994 11.3211C40.8204 11.3211 40.6821 11.5121 40.4713 11.9138C40.2737 12.2892 40.1091 12.5197 40.0235 12.5395C39.951 12.5592 39.8127 12.5724 39.7139 12.5724C39.6085 12.5724 39.5361 12.5395 39.5361 12.4934C39.5361 12.4473 39.681 12.1575 39.8522 11.848C40.0301 11.5384 40.254 11.1367 40.5174 10.5966L40.0959 9.85901C39.8588 9.45069 39.6678 9.06212 39.6678 8.99626C39.6744 8.89747 39.7205 8.8843 39.9444 8.89747ZM57.3115 8.8843H58.3653C59.3137 8.8843 59.4256 8.89747 59.4651 9.00284C59.4849 9.06212 59.4849 9.18066 59.4651 9.26628C59.4256 9.40458 59.3927 9.41117 58.7473 9.41117C58.3785 9.41117 58.036 9.43751 57.9899 9.46386C57.9372 9.49679 57.9043 9.92487 57.8713 12.5395H57.3445L57.3115 8.8843ZM64.4639 8.91723L64.477 9.57582C64.4902 9.93805 64.51 10.2937 64.5231 10.3661C64.5363 10.4386 64.6483 10.544 64.7668 10.5901C64.9117 10.6493 65.0829 10.6691 65.2542 10.6427C65.3991 10.6164 65.5703 10.5505 65.6362 10.4847C65.7284 10.3859 65.7481 10.2542 65.7481 9.7273C65.7481 9.37165 65.7613 9.03577 65.7811 8.98308C65.8008 8.92381 65.8996 8.8843 66.0445 8.8843C66.1696 8.8843 66.2882 8.91723 66.3079 8.95015C66.3277 8.98967 66.354 9.48362 66.3672 10.0566C66.3804 10.623 66.3738 11.4199 66.3079 12.5395L66.1104 12.5592C65.9984 12.5658 65.8733 12.5395 65.8272 12.4934C65.7679 12.4341 65.7415 12.2102 65.7415 11.7689C65.7481 11.4133 65.7218 11.1103 65.6954 11.0972C65.6691 11.084 65.4715 11.1169 65.2542 11.1696C65.0368 11.2223 64.7668 11.2552 64.6614 11.2355C64.5495 11.2091 64.3783 11.1301 64.2729 11.0445C64.1609 10.9655 64.0358 10.8008 63.9897 10.6823C63.9436 10.5637 63.8843 10.1949 63.8646 9.85901C63.8382 9.45727 63.8514 9.18066 63.8975 9.06212C63.9633 8.89747 64.0029 8.87771 64.4639 8.91723ZM74.4086 8.8843C74.5338 8.8843 74.6391 8.91064 74.6457 8.93698C74.6523 8.96333 74.6655 9.28604 74.6787 9.66144C74.6918 10.0302 74.7182 10.3661 74.7379 10.3991C74.7577 10.4386 74.8236 10.4649 74.8828 10.4649C74.9553 10.4649 75.1792 10.2015 75.4953 9.73388C75.7653 9.33214 76.042 8.9765 76.1012 8.94357C76.1671 8.91064 76.3054 8.8843 76.4173 8.8843C76.5688 8.8843 76.6149 8.91723 76.6149 9.01601C76.6149 9.08846 76.47 9.3519 76.2988 9.59558C76.1276 9.83926 75.9036 10.1554 75.7983 10.3003C75.6731 10.4847 75.627 10.6098 75.66 10.6954C75.6797 10.7679 75.9366 11.1828 76.2198 11.6175C76.5095 12.0521 76.7401 12.4473 76.7466 12.4934C76.7466 12.5395 76.6544 12.5724 76.5161 12.5724C76.391 12.5724 76.2329 12.5527 76.1737 12.5263C76.1144 12.5 75.8312 12.1246 75.548 11.7031C75.1792 11.1433 74.9948 10.9259 74.9026 10.9259C74.8301 10.9259 74.7577 10.9589 74.7379 10.9918C74.7182 11.0313 74.6984 11.3474 74.6984 11.7031C74.6984 12.0521 74.6787 12.3946 74.6655 12.4605C74.6457 12.5395 74.5733 12.5724 74.4086 12.5724C74.244 12.5724 74.1584 12.5395 74.1123 12.4407C74.0728 12.3683 74.0398 11.6372 74.0398 10.7284C74.0332 9.66802 74.0596 9.09505 74.1057 9.01601C74.1584 8.92381 74.2506 8.8843 74.4086 8.8843ZM81.7059 8.8843C81.8244 8.8843 81.9495 8.91723 81.9956 8.96333C82.0483 9.02041 82.0813 9.398 82.0944 10.0961C82.1076 10.7218 82.1405 11.1564 82.18 11.1696C82.213 11.1762 82.4962 10.7415 82.8057 10.1949C83.1152 9.64826 83.4182 9.12798 83.4775 9.04236C83.5565 8.93698 83.6619 8.8843 83.8068 8.8843C83.9253 8.8843 84.057 8.91723 84.1031 8.96333C84.1624 9.02919 84.1822 9.4902 84.1558 12.5395L83.596 12.5724L83.5894 12.2629C83.5828 12.0916 83.5697 11.8611 83.5697 11.7492C83.5631 11.6438 83.5499 11.2486 83.5433 10.8798C83.5367 10.5044 83.5038 10.2015 83.4775 10.2015C83.4511 10.2015 83.1679 10.6691 82.8452 11.2421C82.5225 11.8085 82.1932 12.3419 82.1208 12.4275C82.0286 12.5263 81.91 12.579 81.7651 12.5724C81.6005 12.5724 81.5412 12.5395 81.4885 12.4078C81.449 12.3156 81.4227 11.5648 81.4227 10.6625C81.4227 9.79315 81.4358 9.03577 81.4622 8.98308C81.4819 8.92381 81.5873 8.8843 81.7059 8.8843ZM11.6644 9.35848C11.9542 9.37824 11.974 9.39141 11.9871 9.57582C12.0003 9.68778 12.0201 9.87219 12.0398 9.99073C12.0727 10.2015 12.0793 10.2015 12.4152 10.2015C12.6128 10.2015 12.7972 10.241 12.8433 10.2871C12.896 10.3332 12.9289 10.5242 12.9289 10.7481C12.9289 10.9786 12.896 11.1433 12.8433 11.1762C12.7972 11.2025 12.6128 11.2355 12.1057 11.2882L12.0859 12.2761C12.0727 13.0137 12.0925 13.2771 12.1518 13.31C12.1979 13.3364 12.4152 13.3693 12.6326 13.3891C12.8499 13.4154 13.0672 13.4681 13.1133 13.5142C13.1726 13.5735 13.1924 13.8435 13.1792 14.5482C13.166 15.0751 13.1331 15.5427 13.1067 15.5888C13.0738 15.6481 12.6984 15.6678 11.6117 15.6678C10.8148 15.6678 10.1497 15.6481 10.1365 15.6217C10.1233 15.5954 10.0904 15.1409 10.064 14.6141C10.0179 13.7842 10.0245 13.6459 10.1233 13.5471C10.1892 13.4681 10.367 13.4154 10.637 13.3957C10.8675 13.3693 11.0914 13.3364 11.1375 13.31C11.1968 13.2771 11.2232 12.8161 11.2495 11.3606C11.2627 10.3134 11.2956 9.43093 11.3154 9.398C11.3417 9.36507 11.4998 9.3519 11.6644 9.35848ZM10.8741 14.456C10.8807 14.6141 10.9005 14.7919 10.9202 14.8446C10.9466 14.9236 11.0849 14.9434 11.6117 14.9434C12.0662 14.9434 12.2835 14.917 12.3164 14.8643C12.3362 14.8182 12.3559 14.647 12.3559 14.4823C12.3559 14.2716 12.3164 14.1662 12.2308 14.1069C12.1518 14.0543 11.9081 14.0213 11.6117 14.0213C11.3417 14.0279 11.0585 14.0543 10.9927 14.0938C10.8939 14.1465 10.8675 14.2255 10.8741 14.456ZM78.6566 13.231C78.729 13.231 78.8937 13.3364 79.0188 13.4615C79.1439 13.5867 79.3086 13.692 79.381 13.692C79.4535 13.692 79.6313 13.5867 79.7762 13.4615C79.9211 13.3364 80.066 13.231 80.1055 13.231C80.1384 13.231 80.2174 13.2771 80.2701 13.3298C80.3228 13.3825 80.3689 13.4681 80.3689 13.5142C80.3689 13.5603 80.3162 13.6657 80.2504 13.7579C80.1779 13.8501 80.0199 13.9752 79.8815 14.0411C79.7498 14.1004 79.5457 14.153 79.4271 14.153C79.3086 14.153 79.0912 14.0938 78.9332 14.0213C78.7817 13.9489 78.6105 13.8237 78.5512 13.7447C78.4853 13.6525 78.459 13.5274 78.4853 13.4154C78.5117 13.2903 78.5644 13.231 78.6566 13.231ZM40.3857 14.2848C40.4779 14.2848 40.5899 14.3111 40.636 14.3375C40.6886 14.3704 40.7216 14.6338 40.7545 15.8325L42.1705 15.8654V15.108C42.1705 14.4362 42.1837 14.3506 42.289 14.3111C42.3549 14.2914 42.4866 14.2913 42.7632 14.3506V17.907L42.6117 17.9795C42.5064 18.0322 42.4273 18.0322 42.3154 17.9795C42.1771 17.9136 42.1705 17.8675 42.1705 17.2353C42.1705 16.7742 42.1441 16.5306 42.0849 16.4779C42.0322 16.4186 41.8083 16.3923 41.4394 16.3923C41.0772 16.3923 40.8467 16.4252 40.8006 16.4779C40.7479 16.5306 40.7216 16.7874 40.7216 17.2155C40.7216 17.6502 40.6952 17.907 40.6425 17.9597C40.5964 18.0058 40.5042 18.0387 40.4252 18.0387C40.3528 18.0387 40.254 18.0058 40.2079 17.9597C40.1486 17.8939 40.1223 17.4394 40.1157 16.1222C40.1091 15.1607 40.1288 14.3572 40.1618 14.3309C40.1881 14.3045 40.2935 14.2848 40.3857 14.2848ZM55.9548 14.2848C55.9944 14.2848 56.0997 14.3309 56.1788 14.3836C56.3237 14.4823 56.3302 14.5153 56.3302 15.5361C56.3302 16.4318 56.3434 16.5898 56.429 16.5898C56.4883 16.5898 56.732 16.221 57.0284 15.6876C57.305 15.187 57.575 14.7128 57.6211 14.6338C57.6738 14.5482 57.8187 14.4362 57.9438 14.3836C58.0689 14.3309 58.1875 14.2848 58.2072 14.2848C58.227 14.2848 58.2863 14.3309 58.3389 14.3836C58.418 14.4692 58.4377 14.7524 58.4377 16.1288C58.4377 17.097 58.4114 17.8346 58.3719 17.907C58.328 17.9948 58.2402 18.0387 58.1084 18.0387C57.9767 18.0387 57.8889 17.9948 57.845 17.907C57.8055 17.8346 57.7791 17.3341 57.7791 16.7874C57.7791 15.9576 57.7594 15.7995 57.6804 15.7995C57.6211 15.7995 57.3511 16.2079 57.0152 16.8072C56.7056 17.3604 56.4027 17.8609 56.3368 17.9268C56.2776 17.9926 56.1392 18.0453 56.0141 18.0453C55.8692 18.0387 55.7836 17.9992 55.7375 17.907C55.698 17.8346 55.6651 17.0904 55.6651 16.1354C55.6585 14.6931 55.6716 14.4823 55.7704 14.3901C55.8297 14.3309 55.9153 14.2848 55.9548 14.2848ZM68.7447 14.3243C68.9225 14.344 69.186 14.4231 69.3177 14.4889C69.456 14.5614 69.647 14.7392 69.7458 14.8907C69.917 15.1475 69.9302 15.22 69.95 15.9905C69.9631 16.4581 69.9434 16.9455 69.9039 17.1035C69.8643 17.255 69.7326 17.4855 69.6141 17.6172C69.4955 17.7424 69.2716 17.9004 69.107 17.9597C68.9028 18.0256 68.692 18.0519 68.4484 18.0256C68.1981 18.0058 67.9939 17.9334 67.8029 17.8017C67.6317 17.6897 67.4605 17.5053 67.388 17.3472C67.2827 17.1299 67.2629 16.9323 67.2629 16.1947C67.2629 15.4044 67.2761 15.2792 67.4078 15.0158C67.4934 14.8512 67.6317 14.6667 67.7239 14.6009C67.8161 14.535 68.0071 14.4362 68.152 14.3836C68.3232 14.3177 68.5274 14.2979 68.7447 14.3243ZM67.8359 15.3451C67.849 16.6886 67.882 16.9784 67.9544 17.1167C68.0071 17.2287 68.1388 17.3604 68.2508 17.4131C68.3562 17.4658 68.5208 17.5119 68.613 17.5119C68.7052 17.5119 68.8567 17.4724 68.9555 17.4197C69.0543 17.3736 69.1728 17.255 69.2189 17.1562C69.2716 17.0509 69.3045 16.682 69.3045 16.1288V15.2727C68.9423 14.9104 68.8567 14.8775 68.5867 14.8775C68.2969 14.8775 68.2376 14.9038 68.0466 15.1146L67.8359 15.3451ZM71.906 14.3111C72.3143 14.3243 72.5909 14.377 72.7951 14.4626C72.9597 14.535 73.1573 14.6667 73.2429 14.7524C73.3351 14.8512 73.4076 15.0224 73.4273 15.2068C73.4603 15.4505 73.4405 15.5427 73.2956 15.7468C73.2034 15.8851 73.1244 16.0432 73.1244 16.0959C73.1244 16.1486 73.1771 16.2342 73.2429 16.2737C73.3154 16.3198 73.401 16.4252 73.4405 16.5042C73.4866 16.5898 73.5195 16.794 73.5195 16.9652C73.5195 17.1628 73.4734 17.3604 73.3878 17.4921C73.3154 17.6107 73.131 17.7753 72.9795 17.8478C72.7622 17.9597 72.5382 17.9992 72.0048 18.019C71.5833 18.0387 71.2408 18.0256 70.951 17.907V16.2079C70.951 15.2792 70.9774 14.4823 71.0037 14.4428C71.0366 14.3967 71.1157 14.3506 71.1881 14.3309C71.254 14.3045 71.5833 14.2979 71.906 14.3111ZM71.5372 15.4044C71.5372 15.569 71.5767 15.7403 71.6228 15.7864C71.6755 15.8325 71.873 15.8654 72.1036 15.8654C72.3472 15.8654 72.558 15.8259 72.6502 15.7666C72.7556 15.6942 72.7951 15.602 72.7951 15.4175C72.8017 15.2661 72.7556 15.1344 72.6831 15.0685C72.6173 15.0092 72.4263 14.9302 72.255 14.8841C72.0772 14.8446 71.8928 14.8116 71.8467 14.8116C71.794 14.8116 71.7018 14.8775 71.6425 14.9565C71.5767 15.0487 71.5306 15.22 71.5372 15.4044ZM71.5306 16.9652C71.5372 17.1957 71.5767 17.3933 71.6096 17.4131C71.6491 17.4328 71.8796 17.4526 72.1299 17.4592C72.5382 17.4789 72.6041 17.4592 72.7556 17.3143C72.8609 17.2089 72.9268 17.0772 72.9268 16.9652C72.9268 16.8665 72.907 16.7347 72.8807 16.6755C72.8478 16.6162 72.749 16.5306 72.6502 16.4779C72.5448 16.4318 72.2946 16.3923 72.0838 16.3923C71.8731 16.3923 71.6623 16.4252 71.6096 16.4713C71.5438 16.524 71.524 16.6755 71.5306 16.9652ZM75.8575 14.3243C76.0419 14.344 76.2461 14.3901 76.3186 14.4297C76.391 14.4692 76.5359 14.5745 76.6347 14.6733C76.7401 14.7655 76.8718 14.9302 76.9311 15.0421C77.0035 15.1805 77.043 15.4768 77.0628 16.03C77.0825 16.5701 77.0628 16.9126 77.0035 17.1167C76.9508 17.2814 76.8125 17.5185 76.6808 17.6502C76.5491 17.7885 76.3383 17.9202 76.1868 17.9663C76.0419 18.0058 75.8049 18.0387 75.66 18.0387C75.5151 18.0387 75.278 17.9795 75.1331 17.9136C74.9882 17.8478 74.7906 17.7029 74.6918 17.6041C74.593 17.4987 74.4877 17.3341 74.4481 17.2287C74.4086 17.1299 74.3757 16.6491 74.3757 16.1618C74.3757 15.569 74.4042 15.2002 74.4613 15.0553C74.514 14.9434 74.6589 14.7458 74.7906 14.6272C74.9289 14.5153 75.1133 14.3967 75.2187 14.377C75.3175 14.3572 75.4295 14.3243 75.4624 14.3111C75.5019 14.2979 75.6797 14.3045 75.8575 14.3243ZM75.0672 15.3714C75.0145 15.4966 74.9487 15.7732 74.9289 15.9774C74.896 16.2408 74.9158 16.4779 74.9948 16.7347C75.0541 16.9455 75.1726 17.1957 75.2516 17.2945C75.3373 17.3999 75.4887 17.4987 75.5809 17.525C75.6995 17.558 75.8312 17.5448 75.9563 17.4789C76.0683 17.4263 76.2198 17.255 76.2988 17.097C76.4239 16.8665 76.4503 16.715 76.4503 16.1947C76.4503 15.6744 76.4239 15.5229 76.2988 15.2858C76.2198 15.1344 76.0881 14.9631 76.009 14.9104C75.9234 14.8577 75.7719 14.8116 75.6731 14.8116C75.5678 14.8116 75.4229 14.8775 75.3307 14.9763C75.2385 15.0685 75.1199 15.2463 75.0672 15.3714ZM78.3009 14.2848C78.3141 14.2848 78.4063 14.3111 78.6895 14.4099V15.5097C78.6895 16.1881 78.7158 16.6162 78.7554 16.6294C78.7949 16.6425 78.9727 16.3923 79.1637 16.0761C79.3481 15.76 79.6313 15.2727 79.7893 14.9829C79.954 14.6799 80.145 14.4297 80.2504 14.3704C80.3887 14.2913 80.4611 14.2848 80.7641 14.4165L80.7311 18.0058L80.5336 18.0256C80.4282 18.0322 80.2965 18.0058 80.2504 17.9597C80.1845 17.8939 80.1647 17.5909 80.1713 16.7677C80.1713 16.0761 80.145 15.6678 80.1055 15.6678C80.0725 15.6678 79.9738 15.7732 79.8947 15.9049C79.8091 16.0432 79.5325 16.524 79.2756 16.9784C78.9463 17.558 78.7422 17.8543 78.5841 17.9597C78.3865 18.0848 78.347 18.0914 78.2285 18.0124C78.1033 17.9268 78.0968 17.8346 78.077 16.2079C78.0572 14.6733 78.0638 14.4823 78.1626 14.3901C78.2219 14.3309 78.2812 14.2848 78.3009 14.2848ZM33.7075 14.3836L33.7273 15.8786C33.7405 17.2353 33.7536 17.3867 33.859 17.4328C33.9183 17.4658 34.2213 17.4724 35.0906 17.4131L35.1565 14.3836L35.354 14.3638C35.4858 14.344 35.578 14.377 35.6372 14.4626C35.6965 14.5482 35.7163 14.9434 35.7163 17.2484L35.9468 17.4592C36.1773 17.6765 36.1839 17.6831 36.1641 18.1639C36.1509 18.5393 36.118 18.6644 36.0324 18.7237C35.9468 18.7764 35.8809 18.7764 35.8019 18.7237C35.736 18.6842 35.6702 18.5459 35.6504 18.4273C35.6306 18.3022 35.5911 18.1639 35.5648 18.1178C35.5319 18.0585 35.2289 18.0387 34.4188 18.0387C33.4573 18.0453 33.2992 18.0322 33.2136 17.9334C33.128 17.8346 33.1214 17.5975 33.1675 16.1683C33.207 15.1739 33.2531 14.4823 33.2992 14.4297C33.3387 14.3836 33.4441 14.3506 33.7075 14.3836ZM36.9676 14.3506H39.2068L39.2397 14.5153C39.2595 14.6075 39.2332 14.726 39.1936 14.7787C39.1278 14.8643 38.9565 14.8841 38.3704 14.8775C37.6525 14.8775 37.6262 14.8841 37.5933 15.0224C37.5735 15.108 37.5603 15.2924 37.5603 15.4373C37.5603 15.5822 37.5867 15.7403 37.613 15.7864C37.6394 15.839 37.9028 15.8851 39.0422 15.9642L39.0751 16.3923L38.5021 16.4252C38.1794 16.445 37.8633 16.4713 37.7974 16.4779C37.7316 16.4845 37.6459 16.5372 37.6064 16.5898C37.5735 16.6425 37.5603 16.8533 37.6262 17.446H38.3506C38.9039 17.446 39.1014 17.4658 39.1739 17.5448C39.2266 17.5975 39.2727 17.6831 39.2727 17.7226C39.2727 17.7687 39.2463 17.8412 39.22 17.8807C39.1936 17.9268 38.7919 17.9663 37.0005 18.0058L36.9676 14.3506ZM44.8378 14.3506C46.0694 14.3506 46.1945 14.3572 46.234 14.4626C46.2538 14.5284 46.2538 14.647 46.234 14.726C46.1945 14.8643 46.155 14.8775 45.694 14.8775C45.4239 14.8775 45.1934 14.8841 45.1868 14.8907C45.1803 14.9038 45.1605 15.6085 45.1012 18.0058L44.8707 18.0256C44.7456 18.0322 44.6204 18.019 44.5941 17.9926C44.5612 17.9597 44.5282 17.3933 44.5151 16.7216C44.5019 16.0498 44.4887 15.3649 44.4756 14.8775L43.9684 14.8577C43.4745 14.8446 43.4547 14.838 43.435 14.6799C43.4284 14.5877 43.435 14.4758 43.4481 14.4297C43.4811 14.3704 43.817 14.3506 44.8378 14.3506ZM47.5578 14.3506C47.8739 14.3506 48.2954 14.377 48.493 14.4165C48.6971 14.4494 48.9342 14.535 49.0198 14.6075C49.1121 14.6733 49.2372 14.7985 49.303 14.8841C49.3689 14.9697 49.4414 15.1607 49.4611 15.3056C49.4809 15.4505 49.4809 15.681 49.4611 15.8127C49.4348 15.9576 49.3228 16.1683 49.2043 16.3001C49.0857 16.4384 48.8947 16.5833 48.7762 16.6294C48.6576 16.682 48.3613 16.7216 48.111 16.7216C47.841 16.7216 47.6368 16.7545 47.5841 16.8006C47.538 16.8533 47.5051 17.0706 47.5051 17.3472C47.5117 17.6172 47.4722 17.8543 47.4261 17.9268C47.3668 18.0058 47.2812 18.0387 46.9453 18.0058L46.9387 16.2605C46.9321 15.299 46.9387 14.4823 46.9519 14.4362C46.9716 14.377 47.1494 14.3506 47.5578 14.3506ZM47.5117 15.569L47.538 16.1618C48.302 16.1947 48.4403 16.1683 48.6115 16.063C48.7696 15.9642 48.8354 15.8654 48.8684 15.681C48.8947 15.5229 48.875 15.378 48.8157 15.2727C48.7696 15.187 48.6379 15.0619 48.5259 15.0026C48.4205 14.9434 48.1966 14.8775 48.0254 14.8512C47.8344 14.8314 47.6763 14.8446 47.6039 14.8973C47.4985 14.9697 47.4853 15.0487 47.5117 15.569ZM52.4775 14.3836L52.5433 17.4131H53.7947L53.8605 14.3836L54.4203 14.3506V15.7798C54.4203 16.8401 54.4401 17.2418 54.5059 17.3209C54.552 17.3736 54.6706 17.4724 54.7694 17.5316C54.9406 17.637 54.9472 17.6699 54.9472 18.1046C54.9472 18.4339 54.9208 18.592 54.8484 18.6644C54.7891 18.7171 54.7101 18.7632 54.664 18.7632C54.6245 18.7632 54.5389 18.7303 54.473 18.6842C54.4137 18.6315 54.3545 18.4866 54.3215 18.0717L53.169 18.0519C52.3918 18.0387 51.9901 18.0058 51.9243 17.9531C51.8518 17.8873 51.8386 17.5843 51.8716 16.1683C51.8913 15.2331 51.9308 14.4362 51.9572 14.4033C51.9769 14.3704 52.1087 14.3506 52.4775 14.3836ZM61.105 14.3506C61.105 14.3506 61.3882 14.4494 61.7307 14.5811C62.1456 14.7326 62.4354 14.8841 62.5737 15.0224C62.6923 15.1409 62.824 15.3451 62.8635 15.4702C62.903 15.5954 62.9359 15.9247 62.9359 16.1947C62.9359 16.5437 62.8964 16.7742 62.8042 16.985C62.7318 17.1496 62.6198 17.3341 62.5474 17.3933C62.4815 17.4526 62.172 17.6107 61.8624 17.7424C61.5595 17.8675 61.2433 17.9729 61.1709 17.9729C61.0985 17.9729 60.7889 17.8675 60.4794 17.7424C60.1764 17.6107 59.8603 17.4658 59.7879 17.4197C59.7154 17.3736 59.61 17.2353 59.5508 17.1101C59.4849 16.985 59.419 16.6755 59.3927 16.4252C59.3598 16.0827 59.3729 15.8654 59.452 15.602C59.5244 15.3517 59.6298 15.1607 59.801 14.996C59.9657 14.838 60.1962 14.7063 60.4794 14.6141C60.7165 14.5416 60.9536 14.4494 61.0063 14.4165C61.0655 14.3836 61.105 14.3506 61.105 14.3506ZM60.0974 15.5822C60.0513 15.6678 60.0184 15.9378 60.0184 16.1947C60.0184 16.4581 60.0579 16.7347 60.1106 16.8335C60.1633 16.9389 60.2752 17.0574 60.3608 17.1035C60.4465 17.1496 60.5913 17.1826 60.677 17.1694C60.8416 17.1496 60.8416 17.1431 60.8614 16.3923C60.8745 15.9773 60.868 15.5361 60.8482 15.4175C60.8153 15.2397 60.7823 15.2068 60.6309 15.2068C60.5321 15.2068 60.3872 15.2595 60.3081 15.3253C60.2291 15.3846 60.1369 15.5032 60.0974 15.5822ZM61.4673 16.1618C61.4673 16.7347 61.4936 17.1299 61.5331 17.1496C61.5726 17.1694 61.7044 17.1496 61.8295 17.1167C61.981 17.0706 62.1127 16.9718 62.1917 16.8335C62.2905 16.682 62.3234 16.5042 62.3234 16.2079C62.3234 15.9839 62.2839 15.7205 62.2378 15.6151C62.1851 15.5163 62.0666 15.3846 61.9744 15.3188C61.8756 15.2595 61.7241 15.2068 61.6319 15.2068H61.4673V16.1618ZM64.7602 14.3506C65.4583 14.3506 65.5505 14.3638 65.8798 14.5284C66.1762 14.6799 66.2618 14.7655 66.3672 15.0092C66.466 15.2397 66.4858 15.3846 66.4528 15.6678C66.4265 15.872 66.3409 16.1288 66.2618 16.254C66.1762 16.3791 65.9918 16.5372 65.8469 16.603C65.6889 16.6755 65.4188 16.7216 65.1554 16.7216C64.9249 16.7216 64.6944 16.7413 64.6483 16.7742C64.6022 16.8006 64.5495 17.064 64.5166 17.3736C64.477 17.7753 64.4375 17.9465 64.3585 17.9992C64.2729 18.0519 64.2004 18.0519 63.9041 17.907L63.8975 16.1749C63.8909 15.22 63.9107 14.4165 63.937 14.3967C63.9699 14.3704 64.3387 14.3506 64.7602 14.3506ZM64.5034 15.6744C64.5034 15.9247 64.5297 16.142 64.5627 16.1618C64.6022 16.1815 64.8327 16.2013 65.0764 16.2013C65.4979 16.2144 65.5308 16.2013 65.702 16.0037C65.8272 15.8654 65.8798 15.7271 65.8798 15.569C65.8798 15.4439 65.8535 15.2792 65.814 15.2068C65.7811 15.1343 65.6625 15.029 65.5505 14.9763C65.4452 14.9236 65.1883 14.8775 64.9907 14.8775C64.6614 14.8775 64.6219 14.8907 64.5692 15.0487C64.5363 15.1409 64.51 15.4175 64.5034 15.6744ZM33.4836 19.7511C33.5495 19.7511 33.6417 19.8104 33.6746 19.8828C33.7141 19.9553 33.7405 20.2319 33.7405 20.4887C33.7405 20.7522 33.7668 21.0683 33.7932 21.1868C33.8195 21.312 33.8854 21.3976 33.9381 21.3976C33.9973 21.3976 34.1027 21.3317 34.1751 21.2527C34.2542 21.1671 34.4979 20.8312 34.7086 20.5085C34.9325 20.1726 35.1828 19.8762 35.2816 19.8301C35.3738 19.7906 35.5121 19.7511 35.5845 19.7511C35.657 19.7511 35.736 19.7972 35.7492 19.8499C35.7689 19.9026 35.545 20.3109 35.2552 20.7522C34.9655 21.2 34.735 21.6083 34.7481 21.661C34.7613 21.7137 35.005 22.1023 35.2882 22.5172C35.6372 23.0309 35.7887 23.3141 35.7624 23.3865C35.736 23.4524 35.657 23.5051 35.5845 23.5051C35.5121 23.5051 35.3738 23.4656 35.275 23.4129C35.1762 23.3668 34.9918 23.1692 34.8667 22.9716C34.7481 22.774 34.5308 22.4579 34.3925 22.2669C34.2015 22.0101 34.1027 21.931 33.9907 21.9376C33.8722 21.9508 33.8327 22.0101 33.7998 22.2208C33.7734 22.3657 33.7471 22.7016 33.7471 22.9584C33.7405 23.3734 33.7207 23.4458 33.6088 23.5051C33.51 23.5578 33.4441 23.538 33.3321 23.4458C33.1873 23.3207 33.1807 23.2812 33.1543 21.6939C33.128 20.245 33.1346 20.054 33.2399 19.9092C33.2992 19.8235 33.4112 19.7511 33.4836 19.7511ZM37.6262 19.7708C38.0674 19.7906 38.4165 19.8367 38.5811 19.9092C38.726 19.975 38.9039 20.0738 38.9697 20.1331C39.0422 20.1923 39.1475 20.3636 39.22 20.5085C39.2858 20.6534 39.3385 20.9168 39.3385 21.1012C39.3385 21.3185 39.2924 21.503 39.2068 21.6413C39.1344 21.7598 38.95 21.9179 38.7985 21.9969C38.6404 22.0759 38.2584 22.1681 37.3759 22.2867L37.3298 22.8465C37.3035 23.156 37.2508 23.4458 37.2113 23.4919C37.1652 23.538 37.0796 23.5775 37.0203 23.5709C36.9478 23.5709 36.8622 23.4721 36.7964 23.3207C36.7107 23.1099 36.6976 22.8333 36.7239 21.4634C36.7503 20.1989 36.7766 19.8433 36.849 19.7972C36.8951 19.7708 37.2508 19.7577 37.6262 19.7708ZM37.3298 20.6204C37.3101 20.7785 37.2969 21.0683 37.3101 21.2659L37.3298 21.6281C37.9423 21.661 38.186 21.6478 38.2716 21.6281C38.3506 21.6083 38.4758 21.5359 38.5482 21.4634C38.647 21.3646 38.6799 21.2461 38.6799 21.0024C38.6799 20.7192 38.6536 20.6534 38.4824 20.5085C38.3177 20.3636 38.2189 20.3438 37.8303 20.3438H37.3693L37.3298 20.6204ZM40.4581 19.7445C40.5174 19.7445 40.6228 19.7906 40.6952 19.8367C40.8138 19.9289 40.8269 20.0079 40.8269 21.009C40.8269 21.8849 40.8401 22.0825 40.9191 22.0825C40.9652 22.0825 41.2682 21.6281 41.5843 21.0617C41.907 20.5019 42.2429 19.975 42.3351 19.896C42.4273 19.817 42.5525 19.7445 42.6183 19.7445C42.6842 19.7445 42.7698 19.784 42.8159 19.8301C42.8818 19.8894 42.9015 20.3372 42.9015 21.6742C42.9015 23.3668 42.8949 23.4392 42.7698 23.4985C42.671 23.5512 42.592 23.538 42.4734 23.4656C42.3088 23.3668 42.3088 23.3602 42.289 22.3064C42.2824 21.6676 42.2495 21.2329 42.21 21.2132C42.1705 21.2 41.8741 21.6544 41.5514 22.2208C41.2221 22.7938 40.873 23.3273 40.7743 23.4129C40.6755 23.4985 40.5569 23.5643 40.5108 23.5643C40.4647 23.5643 40.3791 23.5117 40.3132 23.4524C40.2079 23.347 40.1947 23.1692 40.1815 21.6215C40.1749 20.2187 40.1881 19.8894 40.2671 19.8235C40.3132 19.784 40.4054 19.7445 40.4581 19.7445ZM52.1218 19.784C52.326 19.8038 52.5763 19.8828 52.708 19.9618C52.8331 20.0409 53.0109 20.2121 53.1031 20.3372C53.2612 20.548 53.2744 20.6007 53.2875 21.5556C53.3073 22.4777 53.3007 22.5633 53.1558 22.8399C53.0702 23.0045 52.899 23.2021 52.7475 23.3009C52.5565 23.426 52.3853 23.4721 52.056 23.4919C51.7201 23.5117 51.5686 23.4853 51.3644 23.3865C51.2196 23.3075 51.0351 23.1824 50.9561 23.0967C50.8771 23.0111 50.7651 22.8399 50.7059 22.7082C50.6071 22.5172 50.5939 22.3328 50.6136 21.5556C50.6334 20.6995 50.6532 20.6204 50.8112 20.3702C50.9034 20.2253 51.0483 20.0606 51.1339 20.0014C51.2261 19.9421 51.3974 19.8631 51.5291 19.8235C51.6542 19.784 51.9177 19.7643 52.1218 19.784ZM51.2854 20.7851C51.2327 20.9102 51.1998 21.2659 51.1998 21.6544C51.1998 22.0935 51.2327 22.3899 51.2986 22.5435C51.3579 22.6818 51.483 22.8201 51.6081 22.886C51.753 22.9584 51.9045 22.9782 52.0889 22.9519C52.2404 22.9255 52.4182 22.8465 52.517 22.7477C52.6685 22.5896 52.6816 22.5304 52.7014 21.773C52.708 21.3251 52.7014 20.897 52.6816 20.818C52.6619 20.739 52.5631 20.5941 52.4643 20.5019C52.326 20.3768 52.214 20.3372 51.9901 20.3372C51.8123 20.3372 51.6279 20.3833 51.5291 20.4558C51.4435 20.5151 51.3315 20.6665 51.2854 20.7851ZM58.1809 19.7708C58.6287 19.784 58.9514 19.8301 59.1029 19.896C59.2281 19.9553 59.4125 20.087 59.5112 20.1858C59.6298 20.3043 59.722 20.4953 59.7615 20.6995C59.8076 20.9234 59.8076 21.1276 59.7615 21.3251C59.722 21.4898 59.6496 21.6939 59.5969 21.773C59.5376 21.852 59.3664 21.9771 59.2149 22.0496C59.0634 22.122 58.7012 22.2011 57.8845 22.2801L57.8516 22.807C57.8318 23.0967 57.7989 23.3668 57.7726 23.3997C57.7528 23.4392 57.6804 23.4853 57.6079 23.5117C57.5421 23.538 57.4367 23.5248 57.3708 23.4787C57.272 23.4129 57.2589 23.2087 57.2259 21.6874C57.2128 20.7456 57.2193 19.9421 57.2391 19.9026C57.2654 19.8631 57.3313 19.817 57.3906 19.7906C57.4433 19.7643 57.7989 19.7577 58.1809 19.7708ZM57.8648 21.0683L57.8845 21.6215C58.7802 21.6544 58.8592 21.6413 59.0173 21.4964C59.1688 21.3646 59.2017 21.2856 59.2017 20.9958C59.2017 20.7061 59.1688 20.6336 59.0173 20.5019C58.8658 20.3636 58.767 20.3372 58.3719 20.3372C58.0492 20.3372 57.9043 20.3636 57.8779 20.4294C57.8582 20.4755 57.8516 20.7653 57.8648 21.0683ZM61.7702 19.7906C61.8427 19.8104 61.9349 19.8762 61.981 19.9355C62.0271 19.9948 62.3037 20.7522 62.5935 21.6215C62.8832 22.4908 63.1203 23.2746 63.1203 23.3536C63.1203 23.4326 63.0677 23.5182 63.0018 23.5446C62.9359 23.5643 62.8174 23.5512 62.7384 23.5117C62.6593 23.4656 62.5144 23.2746 62.2642 22.7082L61.0524 22.7411L60.8482 23.1363C60.6704 23.4853 60.6243 23.5314 60.4596 23.5314C60.3542 23.5314 60.2423 23.4919 60.2094 23.4326C60.1633 23.3668 60.3279 22.8136 60.7428 21.6281C61.2104 20.3043 61.3751 19.9026 61.487 19.8367C61.5726 19.7906 61.6978 19.7643 61.7702 19.7906ZM61.408 21.4239C61.3356 21.6413 61.2697 21.8915 61.2697 21.9706C61.2763 22.1089 61.3026 22.1154 61.6714 22.1154C61.9415 22.1154 62.0666 22.0957 62.06 22.0364C62.06 21.9903 61.9941 21.7335 61.9151 21.4634C61.8361 21.2 61.7307 20.9629 61.6912 20.9497C61.6517 20.9366 61.6056 20.9497 61.5792 20.9761C61.5595 21.009 61.4804 21.2066 61.408 21.4239ZM68.4813 19.7445C68.5208 19.7445 68.6196 19.7972 68.6986 19.8565C68.8369 19.975 68.8501 20.0277 68.8633 21.0288C68.8765 21.6478 68.9094 22.0825 68.9489 22.0957C68.9818 22.1089 69.265 21.6676 69.5746 21.121C69.8775 20.5677 70.2002 20.0343 70.2793 19.9355C70.3583 19.8301 70.49 19.7445 70.5624 19.7445C70.6349 19.7445 70.7534 19.8038 70.8259 19.8762C70.9444 20.0014 70.9576 20.1001 70.9576 21.6544C70.9576 23.2153 70.9444 23.3075 70.8259 23.4326C70.7534 23.5051 70.6415 23.5709 70.5756 23.5709C70.5098 23.5709 70.4241 23.5314 70.3846 23.4853C70.3254 23.4326 70.299 23.0441 70.2858 22.3196C70.2727 21.6808 70.2397 21.2329 70.2002 21.2132C70.1607 21.2 69.8512 21.6874 69.5087 22.2933C69.1596 22.8926 68.8238 23.4326 68.7513 23.4787C68.6789 23.5248 68.5801 23.5709 68.534 23.5643C68.4879 23.5643 68.3957 23.5051 68.3232 23.4326C68.1981 23.3141 68.1849 23.2087 68.1783 21.6478C68.1652 20.1199 68.1718 19.9816 68.2837 19.8696C68.3496 19.8038 68.4352 19.7445 68.4813 19.7445ZM72.2946 19.7445C72.3736 19.7445 72.479 19.7906 72.5382 19.8499C72.6107 19.9355 72.6436 20.2121 72.6699 21.0222C72.6831 21.6083 72.7292 22.0825 72.7622 22.0825C72.7951 22.0825 73.1046 21.5952 73.4603 20.9958C73.9015 20.2384 74.1518 19.8894 74.2703 19.8301C74.3691 19.784 74.4943 19.7643 74.5601 19.7774C74.6589 19.8038 74.6852 19.9355 74.7313 20.6204C74.7577 21.0617 74.7577 21.8783 74.7313 22.4382C74.6918 23.1231 74.6457 23.4721 74.593 23.5248C74.5272 23.5775 74.4679 23.5775 74.3625 23.5248C74.2769 23.4853 74.1913 23.3602 74.165 23.2285C74.1386 23.1099 74.1123 22.583 74.1123 22.0693C74.1189 21.5556 74.0925 21.1276 74.0662 21.1276C74.0398 21.1276 73.7961 21.5095 73.5261 21.9706C73.2561 22.4316 72.9466 22.9584 72.8346 23.1363C72.6897 23.3668 72.5646 23.4853 72.4329 23.5248C72.2748 23.5643 72.2155 23.5512 72.1167 23.426C72.0048 23.2812 71.9982 23.1428 72.0245 21.582C72.0377 20.6534 72.0706 19.8631 72.097 19.8235C72.1233 19.7774 72.2089 19.7445 72.2946 19.7445ZM45.3449 19.8104C46.3921 19.8104 46.5896 19.8301 46.6226 19.9092C46.6357 19.9684 46.6489 20.7587 46.6489 21.6742C46.6489 23.156 46.6357 23.347 46.537 23.4524C46.4711 23.5182 46.3855 23.5709 46.3394 23.5709C46.2933 23.5709 46.2142 23.5248 46.1616 23.4656C46.0759 23.3865 46.0628 23.1231 46.0628 21.9376C46.0628 20.8707 46.043 20.4821 45.9772 20.4229C45.9245 20.3636 45.7005 20.3372 45.3317 20.3372C44.9695 20.3372 44.739 20.3702 44.6863 20.4229C44.6336 20.4821 44.6073 20.9036 44.6139 21.9508C44.6139 23.0045 44.5941 23.426 44.5348 23.4853C44.4887 23.5314 44.3965 23.5643 44.3373 23.5643C44.2714 23.5643 44.1726 23.4985 44.1133 23.4195C44.0343 23.2943 44.0145 22.965 44.008 21.5886C44.0014 20.6599 44.0211 19.8828 44.0541 19.8565C44.0804 19.8301 44.6665 19.8104 45.3449 19.8104ZM47.3141 19.8104L50.0473 19.8433L50.0802 20.3372L49.0594 20.3702L49.0198 21.9179C49.0001 22.774 48.9803 23.4787 48.9738 23.4853C48.9606 23.4919 48.8289 23.4919 48.4008 23.4656L48.381 21.9508C48.3678 20.8509 48.3415 20.4229 48.2822 20.3899C48.2361 20.3636 47.999 20.3438 47.7554 20.3438C47.3931 20.3372 47.3009 20.3175 47.268 20.2253C47.2482 20.1594 47.2482 20.0409 47.2746 19.9618L47.3141 19.8104ZM54.3545 19.8104L56.429 19.8433L56.462 20.3372L54.9801 20.3702L54.9472 21.8981C54.9274 22.774 54.8879 23.459 54.8484 23.5051C54.8023 23.5512 54.7233 23.5578 54.3874 23.4524L54.3545 19.8104ZM65.432 19.8169C65.4979 19.8169 65.8206 19.9421 66.1565 20.1001C66.4923 20.2582 66.8414 20.4755 66.9336 20.5809C67.0258 20.6863 67.1378 20.93 67.1839 21.1144C67.2234 21.3054 67.2629 21.5754 67.2629 21.7071C67.2629 21.8454 67.2234 22.1023 67.1707 22.2867C67.1114 22.4974 66.9929 22.6884 66.8546 22.8136C66.736 22.9255 66.4726 23.0704 66.275 23.1428C66.0774 23.2087 65.8074 23.3207 65.4518 23.5248L65.0237 23.3273C64.7866 23.2153 64.5034 23.0967 64.398 23.0506C64.2861 23.0111 64.1346 22.9123 64.0555 22.8333C63.9765 22.7477 63.8646 22.5699 63.8053 22.4316C63.7394 22.2735 63.7065 21.9837 63.7065 21.6083C63.7065 21.1802 63.7394 20.9695 63.8316 20.7719C63.9041 20.627 64.0424 20.4492 64.1477 20.3833C64.2465 20.3109 64.4968 20.1989 64.6944 20.1331C64.892 20.0606 65.1159 19.9618 65.1883 19.9092C65.2608 19.8565 65.3727 19.8169 65.432 19.8169ZM65.735 21.6676L65.7481 22.6489C66.1169 22.6423 66.2289 22.583 66.3738 22.4316C66.5055 22.2933 66.5911 22.1154 66.6241 21.9244C66.6504 21.7598 66.6438 21.4964 66.6043 21.3317C66.5714 21.1671 66.4726 20.9695 66.387 20.8839C66.3079 20.8048 66.163 20.7126 66.0708 20.6797C65.9721 20.6534 65.8535 20.6402 65.8074 20.6534C65.7415 20.6797 65.7218 20.897 65.735 21.6676ZM64.3124 21.5491C64.2926 21.9047 64.3058 22.0759 64.3914 22.234C64.4441 22.3525 64.589 22.4974 64.7076 22.5567C64.8261 22.616 64.9776 22.6489 65.0368 22.6226C65.1422 22.5896 65.1554 22.4777 65.1554 21.6281V20.6731C64.78 20.6731 64.668 20.7258 64.5297 20.8707C64.3717 21.0485 64.3387 21.1407 64.3124 21.5491Z"
			fill="#B8BABF" />
	</g>
	<defs>
		<clipPath id="clip0_1541_3426">
			<rect width="84.3" height="26.4755" fill="white" transform="translate(0.343201)" />
		</clipPath>
	</defs>
</svg>