<svg viewBox="0 0 117 25" fill="none" xmlns="http://www.w3.org/2000/svg">
	<g clip-path="url(#clip0_1438_1123)">
		<mask id="mask0_1438_1123" style="mask-type:luminance" maskUnits="userSpaceOnUse" x="0" y="0">
			<path d="M116.362 0.438965H0.851807V24.3945H116.362V0.438965Z" fill="white" />
		</mask>
		<g mask="url(#mask0_1438_1123)">
			<path d="M31.1545 1.28906H29.6278V7.03551H31.1545V1.28906Z" fill="#B8BABF" />
			<path d="M31.1545 7.03613H29.6278V12.7826H31.1545V7.03613Z" fill="#9FA3A9" />
			<path d="M31.1545 12.7822H29.6278V18.5287H31.1545V12.7822Z" fill="#888C94" />
			<path d="M31.1545 18.5283H29.6278V24.2747H31.1545V18.5283Z" fill="#E8E8EA" />
			<path
				d="M14.4696 12.0549C14.4639 12.0494 14.3267 11.91 14.0894 11.91C13.9636 11.91 13.8349 11.949 13.7063 12.0215C13.6834 12.0326 13.6691 12.0577 13.6748 12.0828C13.6748 12.0884 13.7692 12.7126 13.6977 12.9802C13.6434 13.1808 13.469 13.4177 13.1516 13.4177C13.083 13.4177 13.0144 13.4065 12.94 13.387H12.9372L13.1774 13.2282C13.1945 13.217 13.2059 13.1975 13.2059 13.1753C13.2059 13.1529 13.1945 13.1362 13.1774 13.1223L12.6998 12.8018C12.8514 12.6903 12.9457 12.6123 12.9572 12.6012C12.9715 12.59 12.9801 12.5733 12.9801 12.5566C12.9801 12.5399 12.9744 12.5231 12.96 12.5092L12.8743 12.4256C12.8628 12.4144 12.8457 12.4061 12.8285 12.4061C12.8142 12.4061 12.7999 12.4117 12.7885 12.42C12.7828 12.4228 12.657 12.5175 12.4654 12.6457L12.2739 12.5175L13.0229 12.0159L13.0801 12.1608C13.0887 12.1831 13.1116 12.1998 13.1373 12.1998C13.1373 12.1998 13.1373 12.1998 13.1402 12.1998C13.163 12.1998 13.1859 12.1859 13.1973 12.1664L13.5547 11.5254C13.5662 11.5031 13.5633 11.4781 13.5519 11.4586C13.5404 11.4418 13.5204 11.4307 13.4976 11.4307C13.4947 11.4307 13.4918 11.4307 13.489 11.4307L12.7513 11.5394C12.7256 11.5422 12.7056 11.5589 12.697 11.584C12.6913 11.6062 12.697 11.6313 12.717 11.6481L12.8371 11.7511L11.9851 12.3224L11.1359 11.7511L11.256 11.6481C11.2732 11.6313 11.2818 11.6062 11.2732 11.584C11.2674 11.5589 11.2474 11.5422 11.2217 11.5394L10.4841 11.4307C10.4812 11.4307 10.4783 11.4307 10.4755 11.4307C10.4526 11.4307 10.4326 11.439 10.4212 11.4586C10.4069 11.4781 10.4069 11.5031 10.4183 11.5254L10.7729 12.1664C10.7843 12.1859 10.8071 12.1998 10.83 12.1998C10.8329 12.1998 10.8329 12.1998 10.8329 12.1998C10.8586 12.1998 10.8786 12.1831 10.8901 12.1608L10.9501 12.0159L11.6992 12.5175L11.5076 12.6457C11.3161 12.5175 11.1903 12.4228 11.1874 12.42C11.176 12.4117 11.1617 12.4061 11.1474 12.4061C11.1302 12.4061 11.1131 12.4117 11.1016 12.4256L11.0159 12.5092C11.0044 12.5203 10.9958 12.5371 10.9958 12.5566C10.9958 12.5733 11.0044 12.59 11.0187 12.6012C11.033 12.6123 11.1274 12.6903 11.2789 12.8018L10.8014 13.1223C10.7843 13.1334 10.7729 13.1529 10.7729 13.1753C10.7729 13.1975 10.7843 13.2142 10.8014 13.2282L11.0416 13.387C11.0416 13.387 11.0416 13.387 11.0387 13.387C10.9644 13.4065 10.8958 13.4177 10.8272 13.4177C10.5098 13.4177 10.3325 13.1808 10.2782 12.9802C10.2067 12.7126 10.3011 12.0884 10.3011 12.0828C10.304 12.0577 10.2925 12.0326 10.2696 12.0215C10.1381 11.949 10.0095 11.91 9.88651 11.91C9.64639 11.91 9.5091 12.0466 9.50339 12.0549C9.49196 12.0633 9.48625 12.08 9.48625 12.0912C9.48339 12.1302 9.40906 13.0303 9.83795 13.4874C9.99518 13.6546 10.2039 13.741 10.4526 13.741C10.4955 13.741 10.5441 13.741 10.5899 13.7326C10.8329 13.7047 11.0702 13.6406 11.3018 13.5626L11.6992 13.8246L10.8215 14.4042C10.8043 14.4181 10.7928 14.4349 10.7928 14.4572C10.7928 14.4767 10.8014 14.4962 10.8215 14.5101L11.702 15.1037L10.9501 15.6109L10.8929 15.4688C10.8844 15.4465 10.8615 15.4326 10.8358 15.4298C10.8358 15.4298 10.8358 15.4298 10.8329 15.4298C10.81 15.4298 10.7871 15.4437 10.7757 15.4632L10.4212 16.1042C10.4097 16.1237 10.4126 16.1516 10.424 16.1683C10.4355 16.185 10.4555 16.1961 10.4783 16.1961C10.4812 16.1961 10.4841 16.1961 10.4869 16.1961L11.2246 16.0903C11.2503 16.0875 11.2703 16.068 11.2761 16.0457C11.2846 16.0206 11.2761 15.9955 11.2589 15.9788L11.1359 15.8729L11.9879 15.2988L12.8399 15.8729L12.717 15.9788C12.697 15.9955 12.6913 16.0206 12.697 16.0457C12.7027 16.068 12.7256 16.0847 12.7513 16.0903L13.489 16.1961C13.4918 16.1961 13.4947 16.1961 13.4976 16.1961C13.5176 16.1961 13.5376 16.1878 13.5519 16.1683C13.5662 16.1488 13.5662 16.1237 13.5547 16.1042L13.1973 15.4632C13.1859 15.4437 13.1659 15.4298 13.1402 15.4298H13.1373C13.1087 15.4298 13.0887 15.4465 13.0801 15.4688L13.0229 15.6109L12.271 15.1037L13.1516 14.5101C13.1688 14.499 13.1802 14.4795 13.1802 14.4572C13.1802 14.4349 13.1688 14.4181 13.1516 14.4042L12.2739 13.8246L12.6713 13.5626C12.9 13.6434 13.1373 13.7047 13.3803 13.7326C13.429 13.7382 13.4747 13.741 13.5176 13.741C13.7692 13.741 13.975 13.6546 14.1323 13.4874C14.5611 13.0303 14.4868 12.1302 14.484 12.0912C14.484 12.08 14.4782 12.0661 14.4696 12.0549ZM11.9822 12.7182L12.1709 12.8436C12.1109 12.8798 12.048 12.9189 11.9822 12.9578C11.9165 12.9189 11.8536 12.8826 11.7935 12.8436L11.9822 12.7182ZM11.2961 13.178L11.5562 13.0025C11.6077 13.0331 11.6591 13.0665 11.7163 13.1028C11.6134 13.1557 11.5105 13.2059 11.4076 13.2533L11.2961 13.178ZM12.6541 14.4572L11.9822 14.9086L11.3132 14.4572L11.9822 14.0141L12.6541 14.4572ZM11.9822 13.6323L11.6591 13.4177C11.7735 13.3648 11.8793 13.3118 11.9822 13.2561C12.0852 13.3118 12.1938 13.3648 12.3082 13.4177L11.9822 13.6323ZM12.5598 13.2533C12.4569 13.2087 12.3511 13.1585 12.2481 13.1028C12.3053 13.0693 12.3568 13.0359 12.4082 13.0025L12.6713 13.178L12.5598 13.2533Z"
				fill="#B8BABF" />
			<path
				d="M14.6956 12.5838C14.7216 12.5337 14.7332 12.4389 14.7332 12.4389L14.6956 12.4277V12.5838Z"
				fill="#B8BABF" />
			<path
				d="M23.1436 10.3517C22.8692 10.1901 22.4146 10.1343 21.9514 10.1762C22.6748 9.93092 23.1694 9.40701 23.1951 8.93879C22.8177 8.83292 22.426 8.88861 22.0858 8.9639C22.4374 8.70751 23.015 8.23929 22.9435 7.55093C22.6033 7.47013 21.98 7.70146 21.7199 7.81573C22.5547 7.35864 22.8549 6.27735 22.4117 5.66428C22.1487 5.81475 20.9565 7.00196 20.7621 7.13851C21.3796 6.45015 21.6684 5.95687 21.8342 5.49428C22.0315 4.98986 22.0458 4.10922 21.4054 3.81382C21.1023 4.48823 20.0445 6.21883 19.4555 6.93787C19.3897 6.88212 19.3383 6.80689 19.2554 6.79291C19.1153 7.23045 18.6978 7.81294 18.3176 8.09161C18.2976 8.05535 18.2604 7.95506 18.1947 7.84636C17.7915 8.43437 16.7451 9.23978 16.4078 9.73584C16.1447 10.1037 16.1447 10.4353 16.5107 10.7781C16.6594 10.923 16.9395 11.1766 16.6966 11.5333C16.3649 12.0043 15.6988 12.06 15.3385 11.7814C15.3385 11.6978 15.3356 11.6169 15.3328 11.5417C15.7587 11.3801 15.8588 10.8144 15.5443 10.4632C15.4757 10.5914 15.3614 10.6862 15.2242 10.7335C15.187 10.5858 15.1555 10.5161 15.1526 10.5078L15.1355 10.4743H15.0984C15.0955 10.4743 14.9554 10.466 14.7467 10.4437C14.984 10.3685 15.1355 10.1538 15.1012 9.86682C14.7352 10.1734 14.3693 9.88075 14.2864 9.79994C14.0577 9.53799 13.9919 9.24256 14.0834 8.7911C14.1606 8.39817 14.578 7.77391 14.8525 7.57326C14.8925 7.60946 14.9554 7.68475 15.0897 7.67356C15.167 7.6485 15.2956 7.5844 15.3928 7.54815C15.6701 7.46735 15.9389 7.52866 16.1104 7.63736C16.4249 7.82408 16.3963 8.03029 16.3878 8.18076C16.8652 7.91881 16.6994 7.48127 16.0733 7.31966C16.5021 7.31966 16.8538 7.70146 16.9453 7.74885C17.1826 7.91881 17.5228 7.87983 17.7201 7.78783C18.1003 7.61225 18.1775 7.17471 18.0746 7.08555C18.0374 7.24164 17.9145 7.38097 17.6943 7.40603C17.3684 7.44229 17.0539 7.30574 16.8052 7.19704C16.5936 7.11061 16.2534 7.04651 16.0218 7.06049C16.4507 6.82916 17.1168 6.85422 17.3541 7.21096C17.497 7.09947 17.5857 6.99918 17.6257 6.76785C17.7486 6.14359 17.2483 5.82311 16.7137 5.82311C16.728 5.67264 16.6193 5.5974 16.4764 5.64752C16.4764 5.58345 16.4592 5.53329 16.422 5.50821C16.4335 5.50821 16.4507 5.50264 16.4621 5.50264C16.9996 5.4664 17.5085 5.30477 17.783 5.0233C18.2633 4.52167 17.497 3.88627 17.7716 3.39301C18.0346 3.50448 18.229 3.64939 18.5921 3.69956C18.6292 3.7748 18.6635 3.92529 18.675 4.00611C18.7922 4.56348 18.229 4.65544 18.3748 5.24903C18.4377 5.51936 18.6464 5.61133 18.715 5.93181C18.715 5.93181 18.7407 6.15473 18.5406 6.34986C19.0038 6.361 19.2468 5.9792 19.1039 5.62525C19.041 5.48034 18.8808 5.34379 18.8808 5.17379C19.1181 5.48034 19.3297 5.46919 19.6956 5.35493C19.8615 5.30477 19.8758 5.53051 19.7729 5.71167C20.0244 5.56673 20.0873 5.32985 20.0873 5.22395C20.0873 4.97314 19.8872 4.85609 19.6956 4.90625C19.587 4.9174 19.3698 5.06232 19.3554 4.85609C19.3097 4.49938 19.8872 4.51331 19.77 3.93922C19.7071 3.65218 19.3783 3.49333 18.8665 3.43202C18.8151 3.38186 18.6864 3.26202 18.6178 3.1617C18.3376 2.70745 18.046 2.58761 17.8716 2.67957C17.6657 2.7799 17.5599 2.86629 17.3913 2.95547C17.2569 3.02514 17.114 3.06137 17.0253 3.1617C16.8023 3.43202 17.0139 3.85004 17.1283 4.10644C17.2054 4.25692 17.3913 4.5997 17.3084 4.85609C17.2169 5.16264 16.6994 5.35493 16.3849 5.41903C16.3649 5.41903 16.3506 5.4246 16.3306 5.4246V5.30477C16.422 5.14871 16.4993 4.96199 16.5622 4.792C16.7737 4.2402 16.4592 4.01726 15.9932 3.91136C15.9332 3.87512 15.8703 3.86119 15.7931 3.88627H15.7788L15.7674 3.97824L15.7045 3.95873L15.7188 3.84726H15.6901C15.7445 3.81103 15.7674 3.74693 15.7674 3.68562C15.7674 3.61874 15.7416 3.56579 15.7159 3.52956H15.7788L15.753 3.50448C15.7416 3.4794 15.7159 3.45431 15.6758 3.4153C15.6644 3.40415 15.6501 3.37907 15.6501 3.36514C15.6616 3.37628 15.6758 3.39022 15.7016 3.40137C15.7273 3.42645 15.7645 3.45153 15.7788 3.47661L15.8159 3.50169V2.99727L15.7788 3.02793C15.7674 3.03908 15.7273 3.06416 15.7016 3.09203C15.6758 3.11711 15.6644 3.11711 15.6501 3.12826C15.6501 3.11711 15.6616 3.10317 15.6758 3.07809C15.7159 3.05301 15.7416 3.01679 15.753 2.99727L15.7788 2.95826H15.2527L15.2784 2.99727C15.3042 3.014 15.3356 3.05301 15.3614 3.07809C15.3728 3.10317 15.3871 3.11711 15.3985 3.12826C15.3842 3.11711 15.3614 3.11711 15.3471 3.09203C15.3013 3.06694 15.2784 3.04186 15.2527 3.02793L15.2327 2.99727V3.51005L15.2584 3.48497C15.2842 3.45989 15.3099 3.43481 15.3528 3.40972C15.3671 3.39858 15.39 3.38464 15.4042 3.3735C15.39 3.38464 15.3785 3.40972 15.3671 3.42366C15.3413 3.46268 15.3071 3.48497 15.2842 3.51284L15.2584 3.53792H15.3413C15.2956 3.57415 15.2842 3.6271 15.2842 3.69398C15.2842 3.7553 15.3099 3.81939 15.3528 3.85562H15.3413L15.3528 3.96709L15.2842 3.9866L15.2699 3.89463H15.2584C15.1813 3.86956 15.1184 3.88349 15.0669 3.91971C14.5923 4.02562 14.2778 4.25135 14.4894 4.80036C14.5551 4.97035 14.6323 5.15707 14.7267 5.31313V5.39395C14.2521 5.24346 13.3972 4.73626 13.1685 4.42971C13.1427 4.39905 13.1227 4.37397 13.1113 4.35446H13.1085L13.117 4.02283C13.2828 3.75251 13.4315 3.42087 13.5459 3.11711C13.8461 2.32286 13.4029 1.99123 12.6996 1.85468C12.6282 1.80451 12.5395 1.77943 12.4223 1.81844L12.3965 1.94385L12.2479 1.93271L12.2593 1.77107C12.2393 1.77665 12.2136 1.77665 12.1878 1.77665C12.2879 1.72648 12.3594 1.60665 12.3594 1.48403C12.3594 1.39485 12.3136 1.28895 12.2365 1.23878H12.3594C12.2879 1.17747 12.1736 1.04649 12.1507 0.957316C12.2393 0.982398 12.3737 1.09944 12.4366 1.16354V0.514209C12.3737 0.564372 12.2393 0.689779 12.1507 0.700927C12.1736 0.628469 12.2879 0.503062 12.3594 0.438965H11.6933C11.7447 0.503062 11.8733 0.628469 11.8848 0.700927C11.8076 0.689779 11.6789 0.564372 11.6074 0.514209V1.16354C11.6789 1.09944 11.8047 0.982398 11.8848 0.957316C11.8733 1.0437 11.7447 1.17469 11.6933 1.23878H11.8076C11.7304 1.28895 11.6933 1.39485 11.6933 1.48403C11.6933 1.60665 11.7562 1.72927 11.8591 1.77665C11.8333 1.77665 11.8076 1.77665 11.7676 1.7655L11.7819 1.92713L11.6332 1.93828L11.6189 1.81287C11.5045 1.77665 11.4159 1.80173 11.3387 1.8491C10.6411 1.98844 10.1979 2.31729 10.4982 3.11153C10.6011 3.4153 10.7498 3.74972 10.927 4.01726V4.36004C10.9156 4.37118 10.9013 4.39626 10.8755 4.42134C10.6525 4.72789 9.79197 5.2351 9.31738 5.38559V5.30477C9.41176 5.14871 9.4918 4.96199 9.5547 4.792C9.76626 4.2402 9.45175 4.01726 8.97716 3.91136C8.92283 3.87512 8.86278 3.86119 8.7856 3.88627H8.77417L8.75989 3.97824L8.69699 3.95873L8.70841 3.84726H8.69699C8.73412 3.81103 8.75989 3.74693 8.75989 3.68562C8.75989 3.61874 8.74846 3.56579 8.70841 3.52956H8.7856L8.75989 3.50448C8.73412 3.4794 8.70841 3.45431 8.6827 3.4153C8.67122 3.40415 8.65122 3.37907 8.63694 3.36514C8.65122 3.37628 8.6827 3.39022 8.69413 3.40137C8.73127 3.42645 8.75703 3.45153 8.7856 3.47661L8.81136 3.50169V2.99727L8.7856 3.02793C8.75989 3.03908 8.73412 3.06416 8.69413 3.09203C8.6827 3.11711 8.65122 3.11711 8.63694 3.12826C8.65122 3.11711 8.66836 3.10317 8.6827 3.07809C8.70841 3.05301 8.73412 3.01679 8.75989 2.99727L8.7856 2.95826H8.25953L8.28529 2.99727C8.29672 3.014 8.331 3.05301 8.35677 3.07809C8.38248 3.10317 8.3939 3.11711 8.3939 3.12826C8.38533 3.11432 8.37105 3.11432 8.3482 3.08924C8.31672 3.06416 8.27672 3.03908 8.26524 3.02514L8.22525 2.99449V3.50727L8.26524 3.48219C8.27672 3.4571 8.31672 3.43202 8.3482 3.40694C8.37391 3.39579 8.38533 3.38186 8.39676 3.37071C8.39676 3.38186 8.38533 3.40694 8.35962 3.42087C8.33386 3.45989 8.29958 3.48219 8.28815 3.51005L8.26239 3.53513H8.331C8.29958 3.57136 8.27096 3.62431 8.27096 3.6912C8.27096 3.75251 8.29672 3.8166 8.35677 3.85283H8.331L8.34534 3.9643L8.27387 3.98381L8.26239 3.89185H8.2481C8.17092 3.86677 8.10802 3.8807 8.05654 3.91693C7.58195 4.02283 7.26744 4.24856 7.47905 4.79757C7.54481 4.96756 7.622 5.15428 7.71632 5.31034V5.43018C7.69632 5.43018 7.67918 5.4246 7.66485 5.4246C7.35039 5.36051 6.82432 5.16822 6.73571 4.86166C6.65276 4.60528 6.83861 4.26249 6.91579 4.11201C7.03874 3.85562 7.24458 3.4376 7.02731 3.16727C6.93008 3.06694 6.78999 3.03072 6.65276 2.96105C6.48696 2.87465 6.38401 2.78548 6.17245 2.68515C6.00377 2.59319 5.71787 2.71023 5.42625 3.16727C5.36335 3.2676 5.22898 3.38464 5.17466 3.4376C4.66861 3.4989 4.34268 3.65497 4.27121 3.9448C4.15398 4.51889 4.73151 4.50774 4.69434 4.86166C4.68005 5.06789 4.45704 4.92298 4.35411 4.91183C4.15398 4.86166 3.95671 4.97871 3.95671 5.22953C3.95671 5.33543 4.02818 5.57231 4.27121 5.71724C4.16828 5.53608 4.17971 5.31034 4.35411 5.36051C4.72007 5.47477 4.92306 5.48592 5.16322 5.17936C5.16322 5.34658 5.00883 5.48591 4.94022 5.63082C4.79726 5.98755 5.03456 6.36656 5.50344 6.35543C5.29187 6.16035 5.33476 5.93738 5.33476 5.93738C5.40052 5.6169 5.60637 5.52493 5.67499 5.25461C5.81794 4.66101 5.25185 4.56905 5.37479 4.01168C5.38622 3.93086 5.41195 3.78038 5.45198 3.70513C5.81794 3.65497 6.01807 3.51284 6.27254 3.39858C6.53558 3.89185 5.77791 4.52725 6.26106 5.02888C6.53844 5.31034 7.05017 5.47198 7.58195 5.50821C7.59337 5.50821 7.61057 5.51378 7.62485 5.51657C7.58766 5.54165 7.56766 5.58903 7.56766 5.65315C7.42758 5.60297 7.31891 5.67821 7.33896 5.82868C6.78713 5.82868 6.30111 6.14916 6.4212 6.77342C6.45834 7.00475 6.54986 7.10504 6.69852 7.21653C6.93007 6.85985 7.59623 6.83473 8.03083 7.06606C7.79351 7.05214 7.45329 7.11623 7.24458 7.20261C6.99869 7.30852 6.68709 7.44785 6.36116 7.4116C6.13529 7.38654 6.02093 7.25 5.97519 7.09112C5.87226 7.18033 5.94945 7.61503 6.33259 7.7934C6.5241 7.88539 6.86432 7.92438 7.10164 7.75442C7.19311 7.70424 7.54481 7.32523 7.9765 7.32523C7.35325 7.48684 7.17883 7.92438 7.6677 8.18633C7.64771 8.03586 7.62485 7.82965 7.93645 7.64293C8.11087 7.53701 8.38533 7.47292 8.65694 7.55372C8.75132 7.58997 8.87998 7.65407 8.95716 7.67913C9.09154 7.69032 9.15444 7.61503 9.19443 7.57883C9.47175 7.77948 9.87487 8.40374 9.96354 8.79667C10.0607 9.24813 9.98925 9.54077 9.75769 9.80551C9.68051 9.88631 9.30881 10.179 8.94574 9.87239C8.9114 10.1594 9.06291 10.3712 9.30024 10.4493C9.08868 10.4715 8.94574 10.4799 8.94288 10.4799H8.90569L8.8914 10.5134C8.88855 10.5189 8.85707 10.5914 8.81708 10.7363C8.68556 10.6862 8.57118 10.5942 8.50257 10.466C8.18806 10.8171 8.28529 11.3801 8.70841 11.5417C8.70555 11.6197 8.7027 11.7006 8.7027 11.7869C8.33963 12.06 7.68204 12.0015 7.3561 11.5333C7.1045 11.1766 7.39324 10.9202 7.53624 10.7781C7.90217 10.4353 7.90217 10.1037 7.63628 9.73584C7.29606 9.24256 6.25249 8.43437 5.84939 7.84636C5.78363 7.95227 5.74646 8.05257 5.73216 8.09161C5.35478 7.81294 4.93164 7.23045 4.79154 6.79291C4.71435 6.8041 4.65717 6.88212 4.59142 6.93787C4.00817 6.21883 2.94461 4.48823 2.64442 3.81382C2.00971 4.10922 2.02115 4.98986 2.21556 5.49428C2.38711 5.95687 2.67587 6.45015 3.28484 7.13851C3.09329 6.99918 1.90107 5.81475 1.63804 5.66428C1.19775 6.27735 1.49795 7.35864 2.32992 7.81573C2.07547 7.70146 1.44648 7.47013 1.10626 7.55093C1.04336 8.23929 1.61231 8.70751 1.96397 8.9639C1.62088 8.88861 1.2292 8.83292 0.851807 8.93879C0.877538 9.40701 1.37787 9.9337 2.08119 10.1762C1.63232 10.1316 1.17774 10.1901 0.90041 10.3517C0.951873 10.8394 1.51796 11.2602 2.19555 11.3605C1.74096 11.4107 1.33784 11.6058 1.12627 11.8733C1.37501 12.191 1.74096 12.4363 2.29848 12.4251C2.16982 12.4697 2.02115 12.5561 1.89535 12.6732C1.88106 12.662 1.85532 12.6481 1.83245 12.6481C1.80386 12.6592 1.79528 12.6982 1.80386 12.7233C1.80386 12.7233 1.80386 12.7233 1.80386 12.7428C1.74954 12.7791 1.72095 12.8236 1.71523 12.8682C1.66377 12.9407 1.60945 13.0243 1.58086 13.0996C1.59515 13.1051 1.60659 13.119 1.61803 13.1246C1.61516 13.1637 1.6266 13.211 1.65805 13.2584C1.63232 13.2835 1.62088 13.3197 1.60659 13.3587L1.28066 13.2305C1.26351 13.5203 1.32927 13.7572 1.47793 13.9049C1.59515 14.0359 1.72953 14.0164 1.6895 14.061L2.04402 14.2728C2.10692 14.4038 2.23557 14.4038 2.3242 14.3676C2.3242 14.3676 2.3242 14.3787 2.3242 14.3926C2.3242 14.5292 2.42141 14.6407 2.54721 14.6853C2.52148 14.7995 2.57294 14.8719 2.73305 14.9249L4.06535 18.074C4.01389 18.2245 4.06535 18.3555 4.18257 18.4057C4.15398 18.4419 4.13111 18.4809 4.13111 18.5561C4.18257 18.5199 4.25977 18.506 4.29694 18.6119C4.32266 18.6871 4.18257 18.9296 4.39414 19.094C4.36555 19.2389 4.44561 19.3866 4.59713 19.4507C4.59713 19.526 4.66861 19.7684 4.68005 19.8548C4.5857 19.9858 4.36555 20.1864 4.39414 20.4066C4.41987 20.5627 4.48277 20.6128 4.61143 20.6518C4.55997 20.9333 4.72007 21.0587 4.96309 21.0727C4.96309 21.2789 5.16036 21.3513 5.28902 21.3652C5.41195 21.4545 5.46342 21.4907 5.60351 21.5604C5.47486 21.7081 5.56634 21.9031 5.80078 21.9672C5.82651 22.0536 5.89227 22.1289 6.02379 22.1595C6.10098 22.2849 6.24107 22.2849 6.32396 22.2487C6.37544 22.2236 6.46696 22.0787 6.38687 21.9533C6.43834 21.892 6.41263 21.7722 6.37544 21.6969C6.45262 21.5604 6.38687 21.3904 6.28111 21.3402C6.2954 21.265 6.25535 21.1451 6.22964 21.0727C6.41549 20.9584 6.64704 20.8163 6.72994 20.7661C7.18454 20.4484 7.69918 20.1642 8.28244 20.1279C8.43109 20.114 8.70555 20.1029 8.85993 20.114C9.09725 20.1391 9.42319 20.2087 9.61475 20.0638C9.67474 20.0276 9.71193 19.9635 9.7005 19.9022C9.67479 19.7573 9.51465 19.6319 9.46318 19.5037C9.4489 19.4647 9.42604 19.4061 9.40028 19.3532C9.56613 19.381 9.7205 19.3588 9.81488 19.3142C9.91778 19.278 10.1665 19.0968 10.1551 18.8265C9.95497 18.9184 9.47461 19.0438 9.42319 18.5701C9.37171 18.1521 9.74912 17.7953 10.3409 17.9514C10.744 18.0517 11.333 18.8878 10.7955 19.2528C10.5325 19.4284 10.1293 19.5957 10.1808 20.0527C10.3524 19.8465 10.5839 19.7461 10.8842 19.7712C10.4438 20.0889 10.1036 20.1279 9.64046 20.3704C9.23734 20.6017 8.93711 20.9835 8.6198 20.9946C8.37676 21.0058 8.24239 20.7243 8.47971 20.5069C8.24239 20.4568 7.92788 20.6379 7.83927 20.8804C7.72489 21.212 7.81356 21.4489 8.02512 21.5827C7.73923 21.7331 7.52476 22.0258 7.62771 22.4438C7.72489 22.7866 8.07659 22.7866 7.94222 23.2241C8.13949 23.1739 8.2681 23.043 8.32529 22.8562C8.35105 22.7253 8.37676 22.5887 8.44252 22.5246C8.41395 22.7866 8.56832 23.1739 8.93711 23.3495C9.18586 23.4694 9.57756 23.5167 9.87778 23.213C10.0007 23.5557 10.4153 23.8511 10.847 23.8372C11.0442 23.8372 11.2387 23.7536 11.3845 23.67C11.4874 23.9236 11.7504 24.1828 12.0106 24.3054C12.2793 24.1828 12.5423 23.9236 12.651 23.67C12.794 23.7564 12.9912 23.8372 13.1828 23.8372C13.5973 23.8484 14.0348 23.5557 14.152 23.213C14.4522 23.5167 14.8439 23.4694 15.0926 23.3495C15.4586 23.1739 15.6129 22.7866 15.5872 22.5246C15.6559 22.5887 15.6816 22.7253 15.7102 22.8562C15.7617 23.043 15.8874 23.1739 16.0875 23.2241C15.9532 22.7866 16.3134 22.7866 16.4021 22.4438C16.505 22.0258 16.2934 21.7303 16.0104 21.5827C16.2162 21.4517 16.3134 21.2148 16.1905 20.8804C16.1019 20.6379 15.7874 20.4568 15.55 20.5069C15.7874 20.7243 15.6587 21.0058 15.41 20.9946C15.0955 20.9835 14.7953 20.5989 14.3893 20.3704C13.929 20.1251 13.5888 20.0889 13.1456 19.7712C13.4458 19.7461 13.6831 19.8465 13.8489 20.0527C13.9004 19.5957 13.4973 19.4284 13.2343 19.2528C12.7025 18.8878 13.2857 18.0517 13.6974 17.9514C14.2806 17.7953 14.6666 18.1521 14.6066 18.5701C14.5437 19.0466 14.0748 18.9212 13.8632 18.8265C13.8632 19.094 14.112 19.2752 14.2149 19.3142C14.335 19.3699 14.558 19.4006 14.7552 19.3169C14.7495 19.3643 14.7409 19.4145 14.7409 19.4284C14.701 19.8353 14.4779 19.8715 14.5551 20.0388C14.6638 20.1642 15.3814 20.1391 15.5758 20.1781C15.916 20.2227 16.2048 20.3453 16.5307 20.4094C16.8967 20.4847 17.2855 20.4847 17.6143 20.6156C17.8258 20.7048 18.0632 20.872 18.269 20.9723C18.5835 21.0225 18.532 21.1479 18.7322 21.1479C18.9123 21.1479 18.9809 20.9974 19.2125 20.9361C19.3726 20.8999 19.5527 20.9612 19.7128 20.911C19.83 20.8859 19.8815 20.7689 19.9901 20.7048C20.1188 20.6296 20.2989 20.6296 20.419 20.5209C20.4819 20.4651 20.4962 20.3592 20.4847 20.284L20.4876 20.3007C20.7335 20.1335 20.9193 19.8882 21.0222 19.6068C21.0851 19.5957 21.1366 19.5399 21.1366 19.4758C21.1366 19.4647 21.1366 19.4507 21.1366 19.4507C21.1995 19.4006 21.2395 19.3253 21.2395 19.2501C21.2395 19.1553 21.2024 19.0801 21.1366 19.0188C21.1366 19.0188 21.1366 19.0048 21.1366 18.9937C21.1366 18.9435 21.1109 18.9073 21.0851 18.8738C20.9822 18.3304 20.5591 17.8929 20.013 17.7563C20.013 17.7424 20.013 17.7424 20.013 17.7312H20.0016C20.0016 17.7062 19.9901 17.6922 19.9702 17.6922C19.8929 17.617 19.8014 17.5 19.79 17.4247C19.8786 17.4498 20.0273 17.5863 20.1045 17.6421V16.9231C20.0273 16.9788 19.8815 17.1154 19.79 17.1404C19.8014 17.0513 19.9415 16.8952 20.013 16.8339H19.2639C19.3326 16.8952 19.4755 17.0513 19.4869 17.1404C19.3983 17.1154 19.2497 16.9788 19.1753 16.9231V17.6421C19.2525 17.5863 19.3983 17.4498 19.4869 17.4247C19.4755 17.5139 19.3326 17.6699 19.2639 17.7312L19.2897 17.7424C18.7322 17.8678 18.2833 18.3193 18.1804 18.8738C18.1432 18.9045 18.1175 18.9435 18.1175 18.9937C18.1175 19.0048 18.1175 19.0188 18.1175 19.0188C18.0517 19.0801 18.0145 19.1553 18.0145 19.2501C18.0145 19.3225 18.0517 19.4006 18.1175 19.4507C18.1175 19.4507 18.1175 19.4619 18.1175 19.4758C18.1175 19.5566 18.169 19.5957 18.2318 19.6068C18.2576 19.6765 18.289 19.7461 18.3233 19.8074C18.3233 19.8019 18.3233 19.8019 18.3319 19.7935C18.2861 19.9997 18.0288 20.1251 17.9717 20.1251C17.5142 20.1892 17.0082 19.9997 16.5479 19.8325C16.3449 19.7573 16.0675 19.6709 15.9332 19.4758C15.8503 19.3337 15.8131 19.2445 15.856 19.1191C15.9075 19.1804 15.9904 19.2501 16.1076 19.3114C16.119 19.2501 16.119 19.1804 16.1447 19.1302C16.262 19.3002 16.4478 19.3866 16.6708 19.3755C16.5364 19.264 16.4735 18.9686 16.5364 18.7122C16.7223 19.0188 17.4284 19.0801 17.5571 18.5311C17.294 18.6509 17.1254 18.5199 17.0768 18.3806C16.9996 18.1604 17.2569 17.6281 17.0253 17.2185C16.8395 16.9119 16.6279 16.7252 16.1362 16.6499C16.1734 16.5914 16.1876 16.5413 16.1991 16.4549C15.7445 16.6165 15.3528 16.4911 15.167 16.1372C15.2584 16.1734 15.39 16.1873 15.5186 16.1873C15.1155 15.8669 15.1412 14.9611 15.43 14.4929C15.4671 14.4679 15.4814 14.4428 15.5186 14.4317C15.6072 14.6072 15.8703 14.6072 16.0046 14.7494C16.0561 14.6992 16.0818 14.6853 16.1333 14.6434C16.1333 14.6434 16.1447 15.3875 16.1962 15.6941C16.2477 16.0369 16.5879 16.0006 16.7623 16.1511C16.9682 15.931 17.3398 15.9421 17.2826 15.5631C17.2312 15.1841 17.154 14.8385 17.1425 14.5821C17.2569 14.8135 17.4828 15.6829 17.5714 15.9309C17.7172 16.2988 18.0832 16.1873 18.289 16.3322C18.4234 16.0759 18.7636 16.0006 18.6292 15.6133C18.5921 15.513 18.0346 14.3704 17.9516 14.1502C18.1489 14.4317 18.6893 15.4377 18.8551 15.7192C19.041 16.0118 19.3812 15.8696 19.6242 15.9421C19.6699 15.7303 19.9987 15.4851 19.7585 15.1172C19.4584 14.6295 18.7522 13.7795 18.715 13.6597C18.8551 13.7906 19.9501 15.1172 20.0359 15.1896C20.2903 15.407 20.662 15.2398 20.8821 15.2398C20.8821 14.9973 21.0794 14.7215 20.7935 14.44C20.5305 14.1948 19.9272 13.7767 19.7986 13.6346C20.2017 13.9049 20.6763 14.3341 20.9593 14.4038C21.4597 14.5292 21.6398 14.3341 21.8256 14.2589C21.6712 13.8158 21.8771 13.6095 20.8192 13.1776C21.7341 13.4953 22.1401 13.3392 22.4661 13.0884C22.3374 12.7707 22.0115 12.5031 21.7456 12.414C22.3059 12.4251 22.6776 12.1827 22.9207 11.8622C22.7148 11.5946 22.3059 11.3996 21.837 11.3494C22.529 11.2575 23.0807 10.8394 23.1436 10.3517ZM1.92108 13.6263C1.90964 13.6263 1.90964 13.6374 1.89535 13.6513C1.81816 13.6402 1.81816 13.551 1.83245 13.4758C1.86962 13.4758 1.89535 13.4646 1.92108 13.4395L1.93252 13.4535L1.89535 13.4786C1.90964 13.5259 1.90964 13.5761 1.92108 13.6263ZM2.17268 14.1502L2.04688 14.0777C2.09834 14.0192 2.14695 14.0192 2.19841 14.0527C2.19841 14.0889 2.19841 14.1251 2.17268 14.1502ZM2.55007 13.3699C2.53292 13.3699 2.51576 13.3699 2.49861 13.3699C2.49575 13.3671 2.49289 13.3615 2.49003 13.3587C2.5129 13.3532 2.53864 13.3532 2.55865 13.3475C2.55865 13.3532 2.55293 13.3615 2.55007 13.3699ZM9.82059 22.4995C9.50608 22.4995 9.2831 22.3072 9.44318 22.0369C9.52608 22.1595 9.69193 22.2153 9.83488 22.2292C9.82059 22.3574 9.82059 22.3936 9.82059 22.4995ZM14.6037 22.0369C14.7639 22.3072 14.5408 22.4995 14.2264 22.4995C14.2264 22.3936 14.2264 22.3574 14.2006 22.2292C14.3464 22.2181 14.518 22.1651 14.6037 22.0369ZM9.80917 5.49428C10.5267 5.34379 11.2587 4.95084 11.5874 4.61921C11.8591 4.63593 12.2107 4.63872 12.4766 4.622C12.7997 4.95642 13.5202 5.341 14.2406 5.49149C13.8232 5.49149 13.0942 5.45526 13.0027 5.35493C13.0284 5.61133 13.5859 5.90113 13.9518 5.9792C13.6488 6.0154 13.3686 5.9792 13.1313 5.87328C13.26 6.05443 13.4086 6.19098 13.6517 6.27178C13.3972 6.57835 12.8711 6.7762 12.3508 6.72882C12.4794 6.87934 12.7168 6.97406 12.9226 6.94622C12.4537 7.67356 12.1078 8.42044 12.0249 9.28438H12.022V9.28717C11.9448 8.42044 11.5989 7.67356 11.1329 6.94622C11.3444 6.97128 11.576 6.87934 11.6961 6.72882C11.17 6.77899 10.664 6.57835 10.4009 6.27178C10.6468 6.19098 10.7926 6.05443 10.9213 5.87328C10.6897 5.9792 10.4009 6.0154 10.1008 5.9792C10.4667 5.89834 11.03 5.61133 11.0557 5.35493C10.9556 5.45805 10.2266 5.49428 9.80917 5.49428ZM3.23052 13.1831C3.16476 13.211 3.08471 13.2445 3.02467 13.2695C3.02467 13.2639 3.02467 13.2584 3.02467 13.2528C3.08757 13.2277 3.16762 13.2054 3.23052 13.1831ZM7.84498 16.4576C7.85926 16.5441 7.87075 16.5942 7.90788 16.6527C7.41329 16.728 7.20459 16.9147 7.02446 17.2212C6.77285 17.6337 7.03588 18.166 6.96441 18.3834C6.91293 18.5199 6.74999 18.6537 6.48696 18.5339C6.61562 19.0857 7.31891 19.0216 7.50476 18.715C7.56766 18.9714 7.50476 19.2668 7.3761 19.3782C7.59623 19.3894 7.78208 19.303 7.89646 19.133C7.92217 19.1832 7.92217 19.2528 7.93359 19.3142C8.05654 19.2528 8.13372 19.1832 8.1852 19.1219C8.20525 19.1832 8.22811 19.3281 8.19948 19.4451C8.10516 19.5064 7.99935 19.565 7.83355 19.6486C7.57052 19.774 7.09021 19.9551 6.81575 19.9914C6.58986 20.0276 6.19816 19.9022 6.09812 19.5957C6.00663 19.303 5.7579 19.2083 5.56062 19.3894C5.50916 19.3532 5.36907 19.3253 5.30903 19.4173C5.30903 19.4173 5.24613 19.278 5.16894 19.2111C5.2204 19.0606 5.18038 18.8794 5.04028 18.8181C5.02885 18.5227 4.84301 18.5227 4.77725 18.4224C4.74009 18.3611 4.74009 18.283 4.82871 18.2719C4.79155 18.2162 4.7115 18.205 4.70006 18.205C4.72579 18.0796 4.68576 17.9235 4.51422 17.8734L2.99322 14.8135C3.09043 14.7131 3.03896 14.5682 2.93032 14.518C2.93032 14.518 2.93032 14.5069 2.93032 14.4929C2.93889 14.4679 2.94176 14.4512 2.94461 14.4317C2.98464 14.426 3.0361 14.4149 3.07899 14.4038C3.37919 14.3341 3.84807 13.9049 4.25405 13.6346C4.1111 13.7795 3.52214 14.1976 3.25911 14.44C3.01323 14.6769 3.11616 14.9138 3.15618 15.1283L3.21336 15.2482C3.43637 15.2621 3.77087 15.3931 4.01961 15.1924C4.09681 15.1172 5.19467 13.7906 5.34048 13.6625C5.2833 13.7823 4.59142 14.6323 4.27692 15.12C4.04534 15.4878 4.38557 15.7303 4.42559 15.9449C4.67433 15.8696 5.01455 16.0145 5.19467 15.722C5.36907 15.4405 5.90085 14.4345 6.09812 14.1529C6.02093 14.3731 5.4577 15.5157 5.41767 15.616C5.2833 16.0034 5.62352 16.0786 5.7579 16.335C5.96375 16.1901 6.33259 16.3044 6.47553 15.9337C6.56415 15.6857 6.78999 14.8162 6.90722 14.5849C6.89294 14.8413 6.81575 15.1868 6.76428 15.5659C6.7128 15.9477 7.07879 15.9337 7.27035 16.1539C7.45614 16.0034 7.79636 16.0397 7.84784 15.6968C7.89931 15.3903 7.91074 14.6462 7.91074 14.6462C7.96221 14.6908 7.98792 14.702 8.04511 14.7521C8.17092 14.6072 8.43681 14.6072 8.52542 14.4345C8.56547 14.4456 8.57689 14.4706 8.61694 14.4958C8.90569 14.9639 8.92854 15.8696 8.52542 16.1901C8.64265 16.1901 8.78845 16.1762 8.87712 16.1399C8.69984 16.4939 8.30243 16.6193 7.84498 16.4576ZM10.6869 20.7383C10.4496 21.056 10.2637 21.2872 10.1093 21.683C9.83202 21.6579 9.88635 21.3263 9.97496 21.159C10.1608 20.8274 10.9156 20.3954 11.2958 19.9635C11.1271 20.2394 10.8927 20.4902 10.6869 20.7383ZM11.5074 21.3263C11.353 21.9115 11.2444 22.7754 11.2958 23.1628C10.7641 22.8925 11.0642 21.8502 11.2701 21.4015C11.556 20.7772 11.7562 20.0136 11.8219 19.526C11.9877 19.8966 11.6189 20.9305 11.5074 21.3263ZM12.7511 23.1628C12.8025 22.7754 12.6996 21.9115 12.5395 21.3263C12.428 20.9305 12.062 19.8966 12.225 19.526C12.2879 20.0136 12.4881 20.7745 12.7768 21.4015C12.9827 21.8502 13.2828 22.8925 12.7511 23.1628ZM14.0719 21.1562C14.1635 21.3263 14.2149 21.6551 13.9376 21.6802C13.7832 21.2844 13.5973 21.056 13.3686 20.7355C13.1542 20.4902 12.9198 20.2366 12.7511 19.9607C13.1285 20.3954 13.8861 20.8246 14.0719 21.1562ZM14.0062 16.6834C13.3115 17.9988 12.0392 19.0689 12.0249 19.055C12.0106 19.0717 10.7383 17.9988 10.0436 16.6834C9.34886 15.3708 8.90283 13.3058 8.87998 12.3192C8.85421 11.3327 9.05434 10.9119 9.05434 10.9119C9.05434 10.9119 9.92349 10.8645 10.6183 10.6304C11.2072 10.4326 11.8476 9.92813 12.0278 9.7804C12.2078 9.92813 12.8483 10.4298 13.4401 10.6304C14.132 10.8673 15.0011 10.9119 15.0011 10.9119C15.0011 10.9119 15.1984 11.3355 15.1727 12.3192C15.1441 13.3058 14.6981 15.3708 14.0062 16.6834Z"
				fill="#B8BABF" />
			<path
				d="M37.802 13.6121C38.2395 13.5201 38.7169 13.456 39.2344 13.4226C39.7519 13.3863 40.258 13.3696 40.7611 13.3696C41.2929 13.3696 41.8333 13.4142 42.3794 13.5062C42.9284 13.5982 43.4258 13.7653 43.8747 14.0106C44.3236 14.2558 44.6895 14.593 44.9783 15.025C45.2642 15.457 45.4101 16.0144 45.4101 16.6943C45.4101 17.3353 45.2785 17.8815 45.0184 18.333C44.7582 18.7844 44.4093 19.1551 43.9776 19.4393C43.5459 19.7236 43.0484 19.9326 42.4909 20.0636C41.9334 20.1946 41.3558 20.2614 40.7611 20.2614C40.6982 20.2614 40.6011 20.2587 40.4724 20.2531C40.3409 20.2475 40.2065 20.242 40.0664 20.2392C39.9263 20.2336 39.789 20.2252 39.6604 20.2169C39.5289 20.2057 39.4345 20.1973 39.3716 20.1862V24.1825H37.8077V13.6121H37.802ZM40.8069 14.7101C40.5239 14.7101 40.2523 14.7157 39.9864 14.724C39.7204 14.7352 39.5146 14.7603 39.3688 14.7992V18.843C39.4203 18.8625 39.506 18.8764 39.6261 18.882C39.7462 18.8876 39.872 18.8931 40.0007 18.9043C40.1322 18.9154 40.2551 18.9182 40.3752 18.9182C40.4952 18.9182 40.5868 18.9182 40.6497 18.9182C41.0242 18.9182 41.3959 18.8904 41.7619 18.8346C42.1278 18.7789 42.4566 18.6729 42.7568 18.5113C43.0541 18.3497 43.2943 18.1268 43.4773 17.8341C43.6603 17.5443 43.7517 17.1681 43.7517 16.7054C43.7517 16.3042 43.6631 15.9753 43.4859 15.7134C43.3086 15.4542 43.0799 15.248 42.7969 15.0975C42.5166 14.947 42.1993 14.8439 41.8505 14.7881C41.4988 14.738 41.15 14.7101 40.8069 14.7101Z"
				fill="#B8BABF" />
			<path
				d="M45.7672 20.1864C45.7672 19.5259 45.8559 18.9323 46.0331 18.4084C46.2104 17.8844 46.4706 17.4385 46.8165 17.0735C47.1596 16.7084 47.5799 16.427 48.0774 16.2347C48.572 16.0423 49.1381 15.9448 49.7757 15.9448C50.4418 15.9448 51.028 16.0507 51.5283 16.2653C52.0286 16.4799 52.4461 16.7753 52.7806 17.1571C53.1151 17.5389 53.361 17.9848 53.5239 18.5003C53.6869 19.0131 53.767 19.5761 53.767 20.1864C53.767 20.8357 53.6754 21.4209 53.4925 21.9393C53.3095 22.4576 53.0493 22.9007 52.7091 23.2658C52.3688 23.6309 51.9514 23.9124 51.4568 24.1047C50.9622 24.2969 50.4018 24.3945 49.7757 24.3945C49.0866 24.3945 48.4919 24.2886 47.9916 24.074C47.4913 23.8594 47.0767 23.5668 46.7479 23.1906C46.4191 22.8144 46.1732 22.3685 46.0131 21.8557C45.8473 21.3429 45.7672 20.7855 45.7672 20.1864ZM47.3311 20.1864C47.3311 20.5626 47.374 20.9304 47.4627 21.2927C47.5513 21.6551 47.6914 21.9755 47.8887 22.2626C48.086 22.5496 48.3376 22.7753 48.6463 22.9481C48.9551 23.1209 49.3354 23.2073 49.79 23.2073C51.3967 23.2073 52.2002 22.2012 52.2002 20.1892C52.2002 19.7934 52.1573 19.4116 52.0687 19.0438C51.98 18.6787 51.8428 18.3554 51.6512 18.0767C51.4596 17.7981 51.2109 17.5724 50.9021 17.3968C50.5933 17.224 50.2217 17.1376 49.79 17.1376C48.9866 17.1376 48.3776 17.3884 47.9602 17.8928C47.5398 18.3916 47.3311 19.158 47.3311 20.1864Z"
				fill="#B8BABF" />
			<path
				d="M61.6493 23.6309C61.2834 23.8845 60.8571 24.0768 60.3655 24.2022C59.8738 24.3304 59.359 24.3945 58.8157 24.3945C58.1268 24.3945 57.5406 24.2914 57.0545 24.0879C56.5688 23.8845 56.1771 23.6002 55.8739 23.2352C55.5708 22.8701 55.3535 22.427 55.2163 21.9087C55.0819 21.3903 55.0133 20.8162 55.0133 20.1864C55.0133 18.8347 55.3507 17.7897 56.0228 17.0512C56.6946 16.3155 57.6637 15.9448 58.9245 15.9448C59.4766 15.9448 59.9567 15.9922 60.3655 16.0897C60.7714 16.1873 61.1373 16.3071 61.4603 16.4492L61.089 17.5918C60.8088 17.4497 60.5055 17.3382 60.1798 17.2574C59.854 17.1766 59.4991 17.1348 59.1162 17.1348C57.4264 17.1348 56.5831 18.152 56.5831 20.1864C56.5831 20.5738 56.6287 20.9472 56.7232 21.3067C56.8171 21.669 56.966 21.9895 57.1748 22.2681C57.3835 22.5468 57.6549 22.7753 57.9895 22.9481C58.3268 23.1209 58.7388 23.2073 59.225 23.2073C59.6595 23.2073 60.0424 23.1488 60.3682 23.0317C60.6945 22.9147 60.9659 22.7753 61.1862 22.6137L61.6493 23.6309Z"
				fill="#B8BABF" />
			<path
				d="M68.9399 23.6309C68.574 23.8845 68.1477 24.0768 67.656 24.2022C67.1643 24.3304 66.6496 24.3945 66.1063 24.3945C65.4174 24.3945 64.8312 24.2914 64.345 24.0879C63.8594 23.8845 63.4677 23.6002 63.1644 23.2352C62.8612 22.8701 62.6442 22.427 62.5069 21.9087C62.3723 21.3903 62.3036 20.8162 62.3036 20.1864C62.3036 18.8347 62.6414 17.7897 63.3133 17.0512C63.9852 16.3155 64.9543 15.9448 66.215 15.9448C66.7672 15.9448 67.2473 15.9922 67.656 16.0897C68.062 16.1873 68.4279 16.3071 68.7509 16.4492L68.3795 17.5918C68.0994 17.4497 67.7961 17.3382 67.4703 17.2574C67.144 17.1766 66.7897 17.1348 66.4068 17.1348C64.7169 17.1348 63.8737 18.152 63.8737 20.1864C63.8737 20.5738 63.9193 20.9472 64.0138 21.3067C64.1077 21.669 64.2566 21.9895 64.4653 22.2681C64.6713 22.5468 64.9455 22.7753 65.2828 22.9481C65.6206 23.1209 66.0321 23.2073 66.5183 23.2073C66.9528 23.2073 67.3357 23.1488 67.6615 23.0317C67.9878 22.9147 68.2592 22.7753 68.4768 22.6137L68.9399 23.6309Z"
				fill="#B8BABF" />
			<path
				d="M76.0733 19.6067L76.293 18.021H76.1216L75.3553 19.5147L71.507 24.1826H70.3978V16.1733H71.8388V20.8998L71.73 22.3043H71.9014L72.6222 20.9472L76.393 16.1733H77.5197V24.1799H76.0788V19.6067H76.0733Z"
				fill="#B8BABF" />
			<path
				d="M85.3218 19.6067L85.5421 18.021H85.3702L84.6043 19.5147L80.7561 24.1826H79.6464V16.1733H81.0846V20.8998L80.9758 22.3043H81.1478L81.868 20.9472L85.6393 16.1733H86.7655V24.1799H85.3246V19.6067H85.3218Z"
				fill="#B8BABF" />
			<path
				d="M46.6393 4.58018L46.808 3.00283H46.7251L46.0875 4.44362L43.0368 9.18959H42.6166L39.383 4.42969L38.7797 3.00283H38.6968L38.9312 4.56346V11.6365H37.6246V1.12451H38.6624L42.3335 6.50031L42.8853 7.67076H42.9197L43.44 6.46963L46.9423 1.12451H48.0317V11.6337H46.6393V4.58018Z"
				fill="#B8BABF" stroke="#B8BABF" stroke-width="0.405132" stroke-miterlimit="10" />
			<path
				d="M55.9744 7.19163L56.0255 6.26081H55.9744L55.288 7.22231L51.517 11.6366H50.745V4.12891H52.0859V8.70768L52.0344 9.59389H52.1002L52.7549 8.66307L56.5259 4.12891H57.3121V11.6366H55.9716V7.19163H55.9744Z"
				fill="#B8BABF" stroke="#B8BABF" stroke-width="0.405132" stroke-miterlimit="10" />
			<path
				d="M65.0229 8.31753H61.2345V11.6366H59.8936V4.12891H61.2345V7.26687H65.0229V4.12891H66.3639V11.6366H65.0229V8.31753Z"
				fill="#B8BABF" stroke="#B8BABF" stroke-width="0.405132" stroke-miterlimit="10" />
			<path
				d="M76.4705 13.5428H75.564L75.3124 11.6366H68.9453V4.12891H70.2863V10.586H73.9231V4.12891H75.2641V10.586H76.4705V13.5428Z"
				fill="#B8BABF" stroke="#B8BABF" stroke-width="0.405132" stroke-miterlimit="10" />
			<path
				d="M83.3578 7.19163L83.4094 6.26081H83.3578L82.6716 7.22231L78.9003 11.6366H78.1284V4.12891H79.4694V8.70768L79.4178 9.59389H79.4864L80.1413 8.66307L83.9126 4.12891H84.6988V11.6366H83.3578V7.19163Z"
				fill="#B8BABF" stroke="#B8BABF" stroke-width="0.405132" stroke-miterlimit="10" />
			<path
				d="M91.0484 11.6949C90.8567 11.7562 90.6594 11.7897 90.454 11.8008C90.248 11.812 90.059 11.8148 89.8936 11.8148C88.8757 11.8148 88.095 11.4943 87.5462 10.8533C86.9974 10.2124 86.7255 9.22306 86.7255 7.87981C86.7255 6.59782 87.026 5.63359 87.6319 4.98148C88.2351 4.33215 89.1069 4.0061 90.2452 4.0061C90.5567 4.0061 90.8253 4.0256 91.0484 4.0674V1.12451H92.3234V4.08134C92.524 4.05068 92.7036 4.03118 92.8613 4.02003C93.0184 4.00888 93.1673 4.0061 93.3129 4.0061C94.4193 4.0061 95.2515 4.29314 95.8086 4.87001C96.3662 5.44688 96.6464 6.39996 96.6464 7.72929C96.6464 8.35912 96.5722 8.92764 96.4206 9.43206C96.269 9.93648 96.0492 10.3657 95.7575 10.7168C95.4658 11.0679 95.1115 11.3383 94.6939 11.5278C94.2737 11.7173 93.7902 11.812 93.2442 11.812C93.1442 11.812 92.9953 11.8036 92.8008 11.7897C92.6064 11.7758 92.4465 11.7479 92.3234 11.7061V14.6351H91.0484V11.6949ZM90.2276 10.8255C90.3622 10.8255 90.4968 10.8199 90.6309 10.8116C90.7655 10.8004 90.911 10.7809 91.0654 10.7502V5.05951C90.9314 5.04001 90.8056 5.02328 90.688 5.01492C90.571 5.00378 90.4282 5.00099 90.2622 5.00099C89.57 5.00099 89.03 5.2323 88.6438 5.70047C88.2582 6.16591 88.0665 6.89325 88.0665 7.88538C88.0665 8.30616 88.1093 8.69631 88.1923 9.05583C88.2752 9.41535 88.4065 9.73026 88.5867 9.995C88.7641 10.2597 88.9927 10.466 89.2646 10.6109C89.536 10.753 89.859 10.8255 90.2276 10.8255ZM93.0585 4.99821C92.9239 4.99821 92.8041 5.00099 92.6981 5.00657C92.5921 5.01214 92.4608 5.03443 92.3037 5.07345V10.7781C92.4152 10.7976 92.541 10.8116 92.6811 10.8143C92.8212 10.8199 92.9755 10.8227 93.1415 10.8227C93.8562 10.8227 94.3962 10.558 94.7593 10.0256C95.1224 9.49615 95.3054 8.72978 95.3054 7.72929C95.3054 6.87932 95.14 6.21046 94.811 5.72558C94.4824 5.24345 93.899 4.99821 93.0585 4.99821Z"
				fill="#B8BABF" stroke="#B8BABF" stroke-width="0.405132" stroke-miterlimit="10" />
			<path
				d="M98.6735 4.12841H99.5942L99.8458 5.02856H99.9117C100.169 4.67742 100.501 4.40988 100.909 4.22595C101.318 4.04202 101.784 3.94727 102.307 3.94727C103.425 3.94727 104.257 4.24267 104.803 4.83348C105.349 5.42429 105.624 6.39134 105.624 7.7318C105.624 8.36158 105.532 8.9301 105.347 9.43452C105.161 9.93894 104.903 10.3681 104.566 10.7193C104.231 11.0704 103.825 11.3407 103.351 11.5302C102.877 11.7197 102.348 11.8145 101.767 11.8145C101.353 11.8145 101.026 11.7922 100.786 11.7476C100.546 11.703 100.286 11.625 100.006 11.5135V14.6375H98.6647V4.12841H98.6735ZM102.059 4.9979C101.489 4.9979 101.038 5.13167 100.709 5.39642C100.38 5.66116 100.149 6.06524 100.014 6.60591V10.3291C100.214 10.4685 100.444 10.5771 100.701 10.6524C100.958 10.7276 101.298 10.7638 101.724 10.7638C102.496 10.7638 103.108 10.5075 103.559 9.9919C104.012 9.47634 104.237 8.71832 104.237 7.71783C104.237 7.30819 104.197 6.93475 104.12 6.60034C104.043 6.26593 103.917 5.97886 103.742 5.74475C103.568 5.51068 103.345 5.32675 103.074 5.19576C102.799 5.06479 102.462 4.9979 102.059 4.9979Z"
				fill="#B8BABF" stroke="#B8BABF" stroke-width="0.405132" stroke-miterlimit="10" />
			<path
				d="M109.08 6.99656C109.349 6.95752 109.606 6.92968 109.852 6.91297C110.098 6.89899 110.332 6.89064 110.556 6.89064C111.125 6.89064 111.602 6.94917 111.988 7.06344C112.374 7.17771 112.683 7.33653 112.917 7.53718C113.151 7.73787 113.317 7.97471 113.412 8.25065C113.506 8.52652 113.554 8.81916 113.554 9.12845C113.554 10.0398 113.272 10.7002 112.708 11.1099C112.145 11.5196 111.23 11.7258 109.969 11.7258C109.255 11.7258 108.511 11.6952 107.74 11.6366V4.12891H109.08V6.99656ZM109.08 10.586C109.492 10.6473 109.889 10.6752 110.269 10.6752C110.973 10.6752 111.465 10.5526 111.745 10.3073C112.025 10.0621 112.165 9.71373 112.165 9.26506C112.165 8.86371 112.028 8.53488 111.754 8.27292C111.479 8.01375 111.002 7.88277 110.321 7.88277C110.129 7.88277 109.924 7.88834 109.701 7.8967C109.478 7.90783 109.272 7.93573 109.08 7.98591V10.586ZM114.878 4.12891H116.219V11.6366H114.878V4.12891Z"
				fill="#B8BABF" stroke="#B8BABF" stroke-width="0.405132" stroke-miterlimit="10" />
		</g>
	</g>
	<defs>
		<clipPath id="clip0_1438_1123">
			<rect width="115.915" height="24.632" fill="white" transform="translate(0.649292 0.242188)" />
		</clipPath>
	</defs>
</svg>
	