<svg viewBox="0 0 123 32" fill="none" xmlns="http://www.w3.org/2000/svg">
	<path
		d="M49.2648 20.2521C49.2648 16.8865 47.687 12.5471 41.2348 12.5471H32.4793V27.823H41.2348C47.9194 27.823 49.2648 23.279 49.2648 20.2521ZM38.6074 24.0058V16.1456H39.8401C41.3193 16.1456 42.8478 16.6254 42.8478 20.1604C42.8478 23.6953 41.2066 24.0058 39.8401 24.0058H38.6074ZM56.2171 23.5824C56.2171 21.5927 57.6752 20.6402 59.3868 20.6402C59.7983 20.6542 60.2069 20.7133 60.6054 20.8165V16.2373C60.2888 16.165 59.9652 16.1271 59.6404 16.1244C58.8128 16.1473 58.0148 16.4381 57.3659 16.9532C56.7171 17.4683 56.2522 18.1801 56.041 18.982H55.9424V16.3855H50.4834V27.823H56.2171V23.5824ZM60.6054 27.8159H65.4375V23.5824H60.5843L60.6054 27.8159ZM83.4205 22.3124H83.3289L80.8706 12.533H75.0172L72.4884 22.3124H72.3969L70.4528 12.533H64.7261L68.4875 27.8089H75.151L77.6516 17.8602H77.7432L80.3917 27.8089H86.9354L90.7884 12.533H85.3435L83.4205 22.3124ZM97.9309 21.8679H105.383V18.4881H97.9098V16.1456H105.813V12.533H91.7605V27.823H105.813V24.2174H97.9098L97.9309 21.8679ZM119.415 20.1039V20.0192C121.401 19.6665 122.655 18.2482 122.655 16.4913C122.655 15.0802 121.746 12.5189 116.752 12.5189H107.13V27.823H116.407C118.436 27.823 123 27.6042 123 23.7377C123 21.3387 121.021 20.3368 119.394 20.118L119.415 20.1039ZM112.941 15.6305H114.519C116.203 15.6305 116.682 16.4631 116.682 17.0911C116.682 17.5285 116.477 18.5799 114.378 18.5799H112.97L112.941 15.6305ZM114.491 24.7114H112.941V21.5997H114.35C114.871 21.5997 116.766 21.5997 116.766 23.152C116.752 23.6953 116.435 24.7255 114.47 24.7255L114.491 24.7114ZM10.4813 16.7665L15.1232 14.2617L19.8003 16.7877C19.9183 16.4841 19.978 16.1609 19.9764 15.8351C19.9764 13.8525 17.8139 12.2438 15.1443 12.2438C12.4747 12.2438 10.3122 13.8525 10.3122 15.8351C10.3158 16.1529 10.373 16.4678 10.4813 16.7665ZM22.6038 16.5054L25.7946 15.8845L26.4568 18.1777L28.0416 13.288L21.6458 15.2566L22.6038 16.5054ZM23.449 19.476L26.3793 20.1815L25.7665 22.0584L30.2323 19.7441L23.0264 17.6979L23.449 19.476ZM19.9975 31.9647L27.0414 23.7447L23.2941 21.5715L19.9975 31.9647ZM19.5186 12.8999L20.8639 14.2688L24.4704 10H19.3495L21.2795 11.1572L19.5186 12.8999ZM10.7349 12.8999L8.97389 11.1572L10.8969 10H5.78301L9.38947 14.2758L10.7349 12.8999ZM3.24018 23.78L10.284 32L6.98752 21.5997L3.24018 23.78ZM4.43764 15.9057L7.62851 16.5337L8.57943 15.2566L2.19064 13.281L3.78256 18.1777L4.43764 15.9057ZM3.86004 20.1886L6.79029 19.483L7.21292 17.6767L0 19.7511L4.47286 22.0654L3.86004 20.1886ZM12.6367 17.084L13.2495 19.3701H13.2847L14.1511 16.9006H16.1375L17.0532 19.3701L17.5815 17.0911L15.088 15.6799L12.6367 17.084ZM21.8994 19.4477L19.2932 18.0366L18.3493 20.7954H16.0248L15.1443 18.2694H15.1091L14.2286 20.7954H11.89L10.9462 18.0436L8.33994 19.4548C8.33994 19.4548 7.38902 22.7004 11.0166 25.3675C11.943 26.1276 12.9783 26.7437 14.0877 27.195L13.9539 26.7223H16.3488L16.1868 27.195C17.2965 26.7498 18.3284 26.1305 19.2438 25.3605C22.808 22.6652 21.8994 19.4477 21.8994 19.4477ZM16.5883 25.9391H13.6581L13.3411 25.0077H16.9053L16.5883 25.9391ZM17.18 24.2174H13.0664L12.7494 23.2931H17.4758L17.18 24.2174ZM17.7646 22.4958H12.4817L12.1648 21.5715H18.0816L17.7646 22.4958Z"
		fill="#B8BABF" />
</svg>
	