<svg viewBox="0 0 118 32" fill="none" xmlns="http://www.w3.org/2000/svg">
	<path
		d="M53.1838 19.4449C53.1838 23.7319 50.5181 25.7655 47.1813 25.7655H45.1494V23.1823H47.0322C49.0455 23.1823 50.3876 22.1197 50.3876 19.4266C50.3876 16.7701 49.12 15.451 46.9763 15.451C44.9071 15.451 43.4344 16.6968 43.4344 19.3716V30.1442H40.6382V13.2159H43.4158V14.6816H43.8072C44.7393 13.4541 46.1001 12.9045 47.5355 12.9045C50.6113 12.9045 53.1838 15.1029 53.1838 19.4449ZM34.9153 18.3274L33.0698 18.1442C31.6158 18.0159 30.8515 17.6312 30.8515 16.7884C30.8515 15.7991 31.8395 15.2312 33.2376 15.2312C34.6916 15.2312 35.6237 15.909 35.6982 16.8617H38.3639C38.2521 14.4068 36.332 12.9045 33.2562 12.9045C30.1617 12.9045 28.0739 14.5167 28.0739 16.88C28.0739 18.8587 29.3415 20.1411 32.2309 20.4159L34.1137 20.5991C35.2508 20.709 36.0151 20.9289 36.0151 22.0098C36.0151 22.9808 35.3068 23.677 33.424 23.677C31.6903 23.677 30.8328 22.9075 30.5346 21.8632H27.6451C27.9248 24.2266 29.9567 26.0587 33.424 26.0587C36.6862 26.0587 38.7927 24.3732 38.7927 21.8632C38.7741 19.6831 37.3014 18.5472 34.9153 18.3274ZM63.9399 21.8816C63.5112 22.8709 62.4673 23.6037 60.976 23.6037C58.944 23.6037 57.4341 22.3029 57.4341 19.4999C57.4341 16.8251 58.8322 15.3411 61.0132 15.3411C62.9519 15.3411 64.0518 16.477 64.1636 18.1991H59.1677V20.1777H66.9039V18.877C66.9039 15.2678 64.4619 12.9228 60.9946 12.9228C57.7696 12.9228 54.6752 15.0846 54.6752 19.4999C54.6752 23.9152 57.7696 26.077 60.9946 26.077C63.9399 26.077 66.065 24.2816 66.7175 21.8816H63.9399ZM20.114 12.9045C17.0755 12.9045 14.8012 14.4617 14.5216 16.8617H17.5042C17.7093 15.9823 18.5295 15.3228 20.0954 15.3228C22.1087 15.3228 22.7611 16.3671 22.7611 17.6312V21.9182C21.624 23.2006 20.3004 23.7869 18.9769 23.7869C17.5974 23.7869 16.6467 23.1274 16.6467 21.9732C16.6467 20.8556 17.3924 20.1594 18.8091 20.1594H21.0275V18.1991H18.7159C15.5469 18.1991 13.7573 19.7564 13.7573 22.1564C13.7573 24.3915 15.4723 26.077 18.3058 26.077C19.8903 26.077 21.2884 25.4541 22.3323 24.7029H22.7238V25.7655H25.5014V17.393C25.576 14.2968 23.4322 12.9045 20.114 12.9045ZM1.26758 25.7655H4.04515V8.59912H1.26758V25.7655ZM12.9371 13.2159H9.54436L5.49917 18.4556V20.0861L9.6562 25.7655H13.1049L8.22082 19.2617L12.9371 13.2159ZM113.433 13.2159L111.159 18.1808C110.599 19.3716 110.077 20.5442 109.91 21.3319H109.518C109.35 20.5442 108.81 19.4083 108.251 18.2174L105.976 13.2159H102.9L108.251 24.4831L105.603 30.1625H108.567L116.509 13.2159H113.433ZM102.285 13.2159H98.8925L94.8474 18.4373V20.0678L99.0044 25.7472H102.453L97.5876 19.2434L102.285 13.2159ZM84.8742 18.3274L83.0287 18.1442C81.5747 18.0159 80.8104 17.6312 80.8104 16.7884C80.8104 15.7991 81.7984 15.2312 83.1965 15.2312C84.6505 15.2312 85.5826 15.909 85.6572 16.8617H88.3229C88.211 14.4068 86.291 12.9045 83.2151 12.9045C80.1207 12.9045 78.0328 14.5167 78.0328 16.88C78.0328 18.8587 79.3004 20.1411 82.1898 20.4159L84.0726 20.5991C85.2098 20.709 85.9741 20.9289 85.9741 22.0098C85.9741 22.9808 85.2657 23.677 83.3829 23.677C81.6493 23.677 80.7917 22.9075 80.4935 21.8632H77.6041C77.8837 24.2266 79.9156 26.0587 83.3829 26.0587C86.6451 26.0587 88.7516 24.3732 88.7516 21.8632C88.7516 19.6831 87.2603 18.5472 84.8742 18.3274ZM90.6158 25.7655H93.3933V8.59912H90.6158V25.7655ZM72.2726 14.6816H71.8812V13.2159H69.1036V25.7655H71.8812V19.2068C71.8812 16.9716 72.9251 15.6709 75.0129 15.6709H76.7652V12.9045H75.7399C73.8199 12.9045 72.9996 13.619 72.2726 14.6816Z"
		fill="#B8BABF" />
</svg>
	