<svg viewBox="0 0 102 25" fill="none" xmlns="http://www.w3.org/2000/svg">
	<path
		d="M11.3579 24.9106C11.0467 24.9106 10.7398 24.8286 10.4705 24.6732L1.30925 19.3837C0.978721 19.1929 0.768517 18.998 0.628141 18.7527L0.600209 18.7026C0.567264 18.6385 0.538974 18.5694 0.514981 18.4956L0.755982 18.3563C0.778543 18.3434 0.804327 18.3366 0.830826 18.3366C0.857325 18.3366 0.883108 18.3434 0.906027 18.3563L1.12053 18.4806L1.27809 18.4068L1.32357 18.3807L0.950074 18.1651C0.890629 18.1304 0.822948 18.1125 0.754192 18.1125C0.685795 18.1125 0.618114 18.1304 0.558669 18.1651L0.450881 18.2271C0.442287 18.1741 0.435841 18.1182 0.430827 18.0605L1.16672 17.6555C1.18928 17.6426 1.21543 17.6358 1.24157 17.6358C1.26807 17.6358 1.29385 17.6426 1.31677 17.6555L1.93306 18.0111L2.09062 17.9377L2.13646 17.9116L1.36081 17.4643C1.30137 17.4296 1.23369 17.412 1.16529 17.412C1.09654 17.412 1.02886 17.4296 0.969769 17.4643L0.421875 17.7801V17.605L1.57747 16.9551C1.60038 16.9422 1.62653 16.9354 1.65267 16.9354C1.67917 16.9354 1.70495 16.9422 1.72751 16.9551L2.74523 17.5427L2.90315 17.4693L2.94863 17.4428L1.77191 16.7635C1.71247 16.7291 1.64479 16.7112 1.57603 16.7112C1.50764 16.7112 1.43996 16.7291 1.38051 16.7635L0.421875 17.3168V17.1413L1.98857 16.2543C2.01113 16.2414 2.03727 16.2342 2.06341 16.2342C2.08991 16.2342 2.11569 16.2414 2.13861 16.2543L3.55776 17.0736L3.58426 17.0618L3.5925 17.0761L3.71962 17.0027L3.71783 16.9991L3.76116 16.9741L2.18266 16.0627C2.12321 16.0283 2.05553 16.0104 1.98713 16.0104C1.91838 16.0104 1.8507 16.0283 1.79125 16.0627L0.421875 16.853V16.6779L2.39931 15.5535C2.42222 15.5406 2.44801 15.5334 2.47451 15.5334C2.50101 15.5334 2.52679 15.5406 2.54935 15.5535L4.37029 16.6049L4.39643 16.5927L4.40467 16.6074L4.56044 16.5175L4.5583 16.5143L4.57369 16.5049L4.54254 16.4874L4.52965 16.4648L4.51676 16.4724L2.59376 15.3622C2.53431 15.3275 2.46663 15.3093 2.39787 15.3093C2.32948 15.3093 2.2618 15.3275 2.20235 15.3622L0.421875 16.3896V16.2142L2.81041 14.8527C2.83297 14.8398 2.85911 14.8326 2.88525 14.8326C2.91175 14.8326 2.93753 14.8398 2.96045 14.8527L5.18282 16.1357L5.20861 16.1239L5.2172 16.1383L5.34433 16.0648L5.34254 16.0616L5.38622 16.0362L3.0045 14.6614C2.94505 14.6267 2.87737 14.6084 2.80897 14.6084C2.74022 14.6084 2.67254 14.6267 2.61309 14.6614L0.421875 15.9263V15.7508L3.22115 14.1522C3.24407 14.139 3.27021 14.1318 3.29635 14.1318C3.32249 14.1318 3.34827 14.139 3.37119 14.1522L5.99535 15.6674L6.02114 15.6552L6.02937 15.6691L6.1565 15.5954L6.15507 15.5925L6.19875 15.5674L3.4156 13.9606C3.35615 13.9263 3.28847 13.908 3.21972 13.908C3.15132 13.908 3.08364 13.9263 3.02419 13.9606L0.421875 15.4625V15.287L3.63225 13.4514C3.65517 13.4382 3.68095 13.431 3.70709 13.431C3.73323 13.431 3.75937 13.4382 3.78193 13.4514L6.80788 15.1982L6.96545 15.1248L7.01129 15.0987L3.82634 13.2598C3.76725 13.2255 3.69957 13.2072 3.63082 13.2072C3.56206 13.2072 3.49474 13.2255 3.43493 13.2598L0.421875 14.9991V14.8237L4.04299 12.7506C4.06591 12.7374 4.09169 12.7306 4.11819 12.7306C4.14433 12.7306 4.17047 12.7374 4.19303 12.7506L7.62006 14.7291L7.77798 14.6557L7.82346 14.6296L4.23744 12.559C4.17799 12.5247 4.11031 12.5064 4.04156 12.5064C3.9728 12.5064 3.90512 12.5247 3.84567 12.559L0.421875 14.5358V14.3603L4.45409 12.0498C4.47665 12.0369 4.50243 12.0298 4.52893 12.0298C4.55543 12.0298 4.58121 12.0369 4.60413 12.0498L8.43294 14.2604L8.59051 14.187L8.63599 14.1605L4.64818 11.8582C4.58873 11.8239 4.52105 11.8056 4.4523 11.8056C4.3839 11.8056 4.31622 11.8239 4.25677 11.8582L0.421875 14.072V13.8965L4.86483 11.349C4.88775 11.3361 4.91353 11.329 4.93967 11.329C4.96617 11.329 4.99196 11.3361 5.01487 11.3494L9.24547 13.7913L9.27054 13.7798L9.27842 13.7931L9.4059 13.7196L9.40411 13.7171L9.44852 13.6917L5.05928 11.1574C4.99983 11.1234 4.93215 11.1052 4.8634 11.1052C4.79464 11.1052 4.72696 11.1234 4.66752 11.1574L0.421875 13.6086V13.4332L5.27593 10.6486C5.29849 10.6353 5.32427 10.6285 5.35077 10.6285C5.37691 10.6285 5.40305 10.6353 5.42597 10.6486L10.058 13.3229L10.0831 13.3107L10.091 13.3243L10.2181 13.2505L10.2166 13.2484L10.261 13.2226L5.47002 10.4566C5.41093 10.4226 5.34325 10.4043 5.2745 10.4043C5.20574 10.4043 5.13806 10.4226 5.07862 10.4566L0.421875 13.1452V12.9698L5.68667 9.94777C5.70959 9.93452 5.73537 9.92771 5.76187 9.92771C5.78801 9.92771 5.81415 9.93452 5.83671 9.94777L10.8702 12.8541L11.0281 12.7803L11.0736 12.7542L5.88112 9.75618C5.82167 9.72181 5.75399 9.70354 5.68524 9.70354C5.61684 9.70354 5.54916 9.72181 5.48972 9.75618L0.421875 12.6819V12.506L6.09777 9.24696C6.12033 9.23372 6.14647 9.22691 6.17261 9.22691C6.19911 9.22691 6.2249 9.23372 6.24746 9.24696L11.6827 12.385L11.8406 12.3116L11.8861 12.2851L6.29186 9.05538C6.23242 9.021 6.16509 9.00274 6.09634 9.00274C6.02758 9.00274 5.9599 9.021 5.90046 9.05538L0.421875 12.2181V12.0427L6.50851 8.54616C6.53107 8.53327 6.55721 8.52611 6.58335 8.52611C6.60985 8.52611 6.63564 8.53327 6.65856 8.54616L12.4952 11.9159L12.6528 11.8425L12.6986 11.8163L6.7026 8.35458C6.64316 8.3202 6.57548 8.3023 6.50708 8.3023C6.43832 8.3023 6.37064 8.3202 6.3112 8.35458L0.421875 11.7547V11.5789L6.91925 7.84536C6.94217 7.83247 6.96796 7.82531 6.99445 7.82531C7.02095 7.82531 7.04674 7.83247 7.0693 7.84536L13.3078 11.4471L13.4653 11.3737L13.5112 11.3476L7.1137 7.65378C7.05426 7.6194 6.98658 7.60149 6.91818 7.60149C6.84942 7.60149 6.78174 7.6194 6.7223 7.65378L0.421875 11.291V11.1159L7.33035 7.14491C7.35291 7.13166 7.37905 7.12486 7.4052 7.12486C7.43169 7.12486 7.45748 7.13166 7.4804 7.14491L14.1203 10.9784L14.2779 10.905L14.3237 10.8785L7.52444 6.95297C7.465 6.91859 7.39732 6.90069 7.32892 6.90069C7.26016 6.90069 7.19248 6.91859 7.1334 6.95297L0.421875 10.8276V10.6522L7.74109 6.44411C7.76401 6.43086 7.7898 6.4237 7.81629 6.4237C7.84279 6.4237 7.86858 6.43086 7.89114 6.44411L14.9328 10.5096L15.0904 10.4362L15.1362 10.4097L7.93554 6.25217C7.8761 6.21815 7.80842 6.19989 7.73966 6.19989C7.67126 6.19989 7.60358 6.21815 7.54414 6.25217L0.421875 10.3642V10.1888L8.15219 5.74331C8.17475 5.73006 8.2009 5.72326 8.22704 5.72326C8.25354 5.72326 8.27932 5.73006 8.30224 5.74331L15.745 10.0405L15.9029 9.96711L15.9484 9.94061L8.34628 5.55137C8.28684 5.51735 8.21916 5.49908 8.15076 5.49908C8.08201 5.49908 8.01432 5.51735 7.95488 5.55137L0.421875 9.9005V9.72539L8.56293 5.04286C8.58585 5.02926 8.61164 5.02245 8.63814 5.02245C8.66428 5.02245 8.69006 5.02926 8.71298 5.04286L16.5579 9.57176L16.7155 9.49835L16.7609 9.47185L8.75738 4.85092C8.69794 4.81655 8.63026 4.79828 8.5615 4.79828C8.49311 4.79828 8.42542 4.81655 8.36598 4.85092L0.421875 9.43712V9.26165L8.97403 4.34206C8.99695 4.32845 9.02274 4.32165 9.04924 4.32165C9.07538 4.32165 9.10116 4.32845 9.12408 4.3417L17.3704 9.10265L17.528 9.02924L17.5735 9.0031L9.16813 4.15012C9.10868 4.11574 9.041 4.09748 8.97224 4.09748C8.90385 4.09748 8.83617 4.11574 8.77672 4.15012L0.421875 8.97373V8.79827L9.38478 3.64126C9.40769 3.62801 9.43348 3.62085 9.45998 3.62085C9.48612 3.62085 9.51226 3.62801 9.53482 3.64126L18.1826 8.6339L18.3405 8.56049L18.386 8.53399L9.57922 3.44932C9.51978 3.4153 9.4521 3.39703 9.38334 3.39703C9.31459 3.39703 9.24691 3.4153 9.18746 3.44932L0.421875 8.51035V8.29299L9.75971 2.91969C9.78263 2.90644 9.80841 2.89927 9.83491 2.89927C9.86105 2.89927 9.88719 2.90644 9.90975 2.91933L18.9951 8.16514L19.153 8.09173L19.1985 8.06523L9.95416 2.72774C9.89471 2.69337 9.82703 2.67546 9.75828 2.67546C9.68952 2.67546 9.62184 2.69337 9.56239 2.72774L0.421875 8.00507V7.78806L10.1343 2.19811C10.1572 2.18486 10.183 2.17806 10.2095 2.17806C10.236 2.17806 10.2618 2.18486 10.2843 2.19811L19.8077 7.69603L19.9656 7.62262L20.0111 7.59612L10.3287 2.00617C10.2693 1.97179 10.2016 1.95389 10.1328 1.95389C10.0645 1.95389 9.99677 1.97179 9.93733 2.00617L0.421875 7.49979V7.28242L10.5092 1.47654C10.5318 1.46293 10.5579 1.45613 10.5841 1.45613C10.6106 1.45613 10.6363 1.46293 10.6593 1.47654L20.6202 7.22728L20.7781 7.15387L20.8236 7.12737L10.7037 1.2846C10.6442 1.25022 10.5765 1.23196 10.5078 1.23196C10.4394 1.23196 10.3717 1.25022 10.3123 1.2846L0.436199 6.98663C0.445151 6.89424 0.459117 6.80866 0.477022 6.73131L10.902 0.723454C10.925 0.710205 10.9508 0.703402 10.9773 0.703402C11.0034 0.703402 11.0295 0.710205 11.0521 0.723454L21.451 6.72737L21.6085 6.65396L21.654 6.62746L11.0965 0.53187C11.0371 0.497492 10.9694 0.479231 10.9006 0.479231C10.8319 0.479231 10.7642 0.497492 10.7051 0.531511L0.621337 6.35351C0.787854 6.06166 1.04891 5.88189 1.30925 5.73185L10.4705 0.442345C10.7391 0.287287 11.0456 0.205284 11.3576 0.205284C11.3862 0.205284 11.4148 0.205997 11.4439 0.20743C11.7253 0.221039 12.0025 0.302326 12.2449 0.442345L21.4066 5.73185C21.7539 5.93239 21.9598 6.11967 22.0948 6.35817C22.2284 6.59451 22.2936 6.8921 22.2936 7.26846V17.8468C22.2936 18.5647 22.0282 19.0245 21.4066 19.3837L12.2449 24.6732C11.9756 24.8286 11.6687 24.9106 11.3579 24.9106Z"
		fill="#B8BABF" />
	<path
		d="M33.5615 12.6196H35.7677C36.5806 12.6196 37.1844 12.4796 37.579 12.1272C37.9733 11.7749 38.1706 11.2703 38.1706 10.5408C38.1706 9.82393 37.9733 9.32509 37.579 8.97308C37.1844 8.62071 36.5806 8.44452 35.7677 8.44452H33.5615V12.6196ZM35.059 14.919H33.5615V18.6558H31.1221V6.14516H35.8769C37.406 6.14516 38.5892 6.53477 39.4268 7.31364C40.2644 8.09215 40.683 9.14389 40.683 10.5408C40.683 11.6162 40.4309 12.4767 39.9274 13.1933C39.4236 13.9106 38.7045 14.375 37.7702 14.6594L40.7632 18.4029V18.6558H38.0438L35.059 14.919Z"
		fill="#B8BABF" />
	<path
		d="M49.7422 9.83065V18.656H47.7694L47.5213 17.3952H47.4482C47.2176 17.865 46.8567 18.2295 46.3653 18.4892C45.8737 18.7488 45.3061 18.8784 44.6629 18.8784C43.6312 18.8784 42.8244 18.554 42.2418 17.9051C41.6592 17.2562 41.368 16.3506 41.368 15.1885V9.83065H43.6617V14.6138C43.6617 16.0229 44.3166 16.7277 45.4815 16.7277C46.1125 16.7277 46.5379 16.5361 46.9021 16.1529C47.2663 15.7697 47.4482 15.2444 47.4482 14.5766V9.83065H49.7422Z"
		fill="#B8BABF" />
	<path
		d="M57.2502 16.0505C57.6749 15.5871 57.8872 14.9909 57.8872 14.2614C57.8872 13.532 57.6749 12.9325 57.2502 12.4627C56.8251 11.9932 56.2249 11.7579 55.5209 11.7579C54.8169 11.7579 54.2525 11.9932 53.8278 12.4627C53.4031 12.9325 53.1907 13.532 53.1907 14.2614C53.1907 14.9909 53.4031 15.5871 53.8278 16.0505C54.2525 16.5142 54.8169 16.7459 55.5209 16.7459C56.2249 16.7459 56.8251 16.5142 57.2502 16.0505ZM58.1608 10.2468C58.7918 10.6485 59.3254 11.2018 59.6896 11.9062C60.0537 12.6109 60.2357 13.3963 60.2357 14.2614C60.2357 15.1266 60.0537 15.9116 59.6896 16.6163C59.3254 17.3207 58.7889 17.8739 58.1515 18.2757C57.5144 18.6772 56.8015 18.8784 56.0126 18.8784C55.4056 18.8784 54.8595 18.7545 54.3739 18.5074C53.8887 18.2603 53.4672 17.8184 53.2817 17.4507H53.209L52.9608 18.6557H50.9515V6.18124H53.2455V11.0722H53.3182C53.5732 10.6145 53.9399 10.2625 54.4194 10.0151C54.8989 9.76762 55.4418 9.64408 56.0487 9.64408C56.8255 9.64408 57.5295 9.84533 58.1608 10.2468Z"
		fill="#B8BABF" />
	<path
		d="M73.8399 16.7345C73.6612 16.7423 73.5094 16.7459 73.3339 16.7459C72.7631 16.7459 72.3538 16.6227 72.1049 16.3753C71.856 16.1282 71.7317 15.7812 71.7317 15.0958V11.9961H73.8037V9.83065H71.7317V7.63585H69.4381V15.3554C69.4381 16.6514 69.7228 17.4414 70.2936 18.0161C70.8641 18.5912 71.7196 18.8784 72.8605 18.8784C73.2114 18.8784 73.5369 18.8473 73.8399 18.7885V16.7345Z"
		fill="#B8BABF" />
	<path
		d="M101.017 10.6175C101.606 11.2667 101.9 12.1659 101.9 13.3154V18.6558H99.6065V13.9088C99.6065 13.0959 99.412 12.6766 99.1026 12.3177C98.7932 11.9596 98.3506 11.7763 97.7684 11.7763C97.137 11.7763 96.7116 11.9575 96.3474 12.3403C95.9836 12.7238 95.8375 13.2445 95.8375 13.9818V18.6558H93.5073V6.18133H95.8013V11.1274H95.874C96.125 10.6923 96.462 10.3049 96.9573 10.0334C97.4446 9.76627 97.9438 9.6438 98.5873 9.6438C99.6183 9.6438 100.429 9.9686 101.017 10.6175Z"
		fill="#B8BABF" />
	<path
		d="M61.7559 22.0264H64.1824L69.0705 10.0472V9.83053H66.6777L64.3805 15.7163H64.3257L61.9812 9.83053H59.5876V10.0472L63.0806 18.5231L61.7559 21.8097V22.0264Z"
		fill="#B8BABF" />
	<path
		d="M78.7423 11.4801C79.9226 11.4801 80.7706 12.2897 80.9085 13.5245H76.5028C76.7112 12.1622 77.5506 11.4801 78.7423 11.4801ZM80.8415 16.0004C80.7266 16.2908 80.5156 16.5239 80.2073 16.6997C79.8492 16.9035 79.3973 17.0056 78.8512 17.0056C77.4553 17.0056 76.5998 16.1103 76.4662 14.9472H83.2164C83.2369 14.6879 83.2386 14.4655 83.2386 14.2428C83.2386 13.3408 83.0474 12.54 82.665 11.8414C82.2829 11.1434 81.7156 10.6024 81.036 10.2192C80.3563 9.83638 79.5857 9.64408 78.7241 9.64408C77.8381 9.64408 77.046 9.84247 76.3484 10.2378C75.6501 10.6335 75.1434 11.1836 74.7552 11.8879C74.3667 12.5927 74.1726 13.3898 74.1726 14.28C74.1726 15.1699 74.3638 15.9613 74.7459 16.6535C75.1284 17.3457 75.6713 17.8897 76.3753 18.2854C77.079 18.6807 77.8922 18.8784 78.8147 18.8784C79.9556 18.8784 80.902 18.5944 81.6548 18.0254C82.3649 17.489 82.8232 16.8125 83.0363 16.0004H80.8415Z"
		fill="#B8BABF" />
	<path
		d="M90.4993 15.34C90.3948 15.7565 90.1505 16.0863 89.8383 16.3291C89.4802 16.607 89.034 16.7821 88.5001 16.7821C87.8204 16.7821 87.2743 16.5178 86.8617 16.0598C86.4489 15.6029 86.2426 15.0031 86.2426 14.2614C86.2426 13.5198 86.4098 12.8809 86.8166 12.4176C87.2231 11.9542 87.772 11.686 88.4639 11.686C88.9978 11.686 89.4469 11.8647 89.8111 12.1486C90.1169 12.3875 90.3948 12.7416 90.504 13.137H92.8066C92.7582 12.5658 92.5416 11.9313 92.1957 11.4246C91.8071 10.8559 91.2553 10.4172 90.6121 10.1082C89.9686 9.79914 89.2528 9.64408 88.4639 9.64408C87.554 9.64408 86.7497 9.8482 86.0521 10.2561C85.3538 10.6643 84.8499 11.2176 84.4678 11.9159C84.0854 12.6142 83.8942 13.3963 83.8942 14.2614C83.8942 15.127 84.0854 15.9087 84.4678 16.607C84.8499 17.3056 85.39 17.8585 86.0879 18.2668C86.7858 18.6747 87.5898 18.8784 88.5001 18.8784C89.289 18.8784 90.0019 18.7209 90.6393 18.4057C91.2764 18.0902 91.7889 17.6519 92.1774 17.089C92.5319 16.5758 92.7475 15.9298 92.7937 15.34H90.4993Z"
		fill="#B8BABF" />
</svg>
	