<svg viewBox="0 0 20 20" xmlns="http://www.w3.org/2000/svg">
	<path
		d="M17.5 6.45833H2.5C2.15833 6.45833 1.875 6.17499 1.875 5.83333C1.875 5.49166 2.15833 5.20833 2.5 5.20833H17.5C17.8417 5.20833 18.125 5.49166 18.125 5.83333C18.125 6.17499 17.8417 6.45833 17.5 6.45833Z"
	/>
	<path
		d="M12.625 10.625H2.625C2.28333 10.625 2 10.3417 2 10C2 9.65833 2.28333 9.375 2.625 9.375H12.625C12.9667 9.375 13.25 9.65833 13.25 10C13.25 10.3417 12.9667 10.625 12.625 10.625Z"
	/>
	<path
		d="M5.95833 14.792H2.625C2.28333 14.792 2 14.5087 2 14.167C2 13.8253 2.28333 13.542 2.625 13.542H5.95833C6.3 13.542 6.58333 13.8253 6.58333 14.167C6.58333 14.5087 6.3 14.792 5.95833 14.792Z"
	/>
</svg>
	